[
  {
    "midi": 74,
    "degree": "1",
    "startBeat": 0,
    "durationBeats": 0.5,
    "velocity": 0.9,
    "ruleId": "chord-tone",
    "harmonicFunction": "chord-tone",
    "device": "target",
    "chordSymbol": "Dm7",
    "rootPc": 2,
    "quality": "m7",
    "scaleName": "dorian"
  },
  {
    "startBeat": 0.5,
    "durationBeats": 0.5,
    "midi": 73,
    "velocity": 0.9,
    "device": "neighbor",
    "chordSymbol": "Dm7",
    "rootPc": 2,
    "quality": "m7",
    "scaleName": "dorian",
    "ruleId": "neighbor",
    "harmonicFunction": "chromatic"
  },
  {
    "startBeat": 1,
    "durationBeats": 0.5,
    "midi": 74,
    "velocity": 0.9,
    "device": "neighbor",
    "chordSymbol": "Dm7",
    "rootPc": 2,
    "quality": "m7",
    "scaleName": "dorian",
    "ruleId": "scale-step",
    "harmonicFunction": "scale-step"
  },
  {
    "startBeat": 1.5,
    "durationBeats": 0.5,
    "midi": 76,
    "velocity": 0.9,
    "device": "melodic-cell",
    "cellName": "1-2-3-5 Ascending",
    "chordSymbol": "Dm7",
    "rootPc": 2,
    "quality": "m7",
    "scaleName": "dorian",
    "ruleId": "melodic-cell",
    "harmonicFunction": "scale-step"
  },
  {
    "startBeat": 2,
    "durationBeats": 0.5,
    "midi": 78,
    "velocity": 0.9,
    "device": "melodic-cell",
    "cellName": "1-2-3-5 Ascending",
    "chordSymbol": "Dm7",
    "rootPc": 2,
    "quality": "m7",
    "scaleName": "dorian",
    "ruleId": "melodic-cell",
    "harmonicFunction": "scale-step"
  },
  {
    "startBeat": 2.5,
    "durationBeats": 0.5,
    "midi": 79,
    "velocity": 0.9,
    "device": "melodic-cell",
    "cellName": "1-2-3-5 Ascending",
    "chordSymbol": "Dm7",
    "rootPc": 2,
    "quality": "m7",
    "scaleName": "dorian",
    "ruleId": "melodic-cell",
    "harmonicFunction": "scale-step"
  },
  {
    "startBeat": 3,
    "durationBeats": 0.5,
    "midi": 71,
    "velocity": 0.9,
    "device": "melodic-cell",
    "cellName": "1-2-3-5 Ascending",
    "chordSymbol": "Dm7",
    "rootPc": 2,
    "quality": "m7",
    "scaleName": "dorian",
    "ruleId": "melodic-cell",
    "harmonicFunction": "scale-step"
  },
  {
    "startBeat": 3.5,
    "durationBeats": 0.5,
    "midi": 77,
    "velocity": 0.9,
    "device": "arpeggio",
    "chordSymbol": "Dm7",
    "rootPc": 2,
    "quality": "m7",
    "scaleName": "dorian",
    "ruleId": "arpeggio",
    "harmonicFunction": "chord-tone"
  },
  {
    "midi": 71,
    "degree": "3",
    "startBeat": 4,
    "durationBeats": 0.5,
    "velocity": 0.9,
    "ruleId": "chord-tone",
    "harmonicFunction": "chord-tone",
    "device": "target",
    "chordSymbol": "G7",
    "rootPc": 7,
    "quality": "7",
    "scaleName": "mixolydian"
  },
  {
    "startBeat": 4.5,
    "durationBeats": 0.5,
    "midi": 69,
    "velocity": 0.9,
    "device": "melodic-cell",
    "cellName": "5-4-3-1 Descending",
    "chordSymbol": "G7",
    "rootPc": 7,
    "quality": "7",
    "scaleName": "mixolydian",
    "ruleId": "melodic-cell",
    "harmonicFunction": "scale-step"
  },
  {
    "startBeat": 5,
    "durationBeats": 0.5,
    "midi": 67,
    "velocity": 0.9,
    "device": "melodic-cell",
    "cellName": "5-4-3-1 Descending",
    "chordSymbol": "G7",
    "rootPc": 7,
    "quality": "7",
    "scaleName": "mixolydian",
    "ruleId": "melodic-cell",
    "harmonicFunction": "scale-step"
  },
  {
    "startBeat": 5.5,
    "durationBeats": 0.5,
    "midi": 66,
    "velocity": 0.9,
    "device": "melodic-cell",
    "cellName": "5-4-3-1 Descending",
    "chordSymbol": "G7",
    "rootPc": 7,
    "quality": "7",
    "scaleName": "mixolydian",
    "ruleId": "melodic-cell",
    "harmonicFunction": "scale-step"
  },
  {
    "startBeat": 6,
    "durationBeats": 0.5,
    "midi": 62,
    "velocity": 0.9,
    "device": "melodic-cell",
    "cellName": "5-4-3-1 Descending",
    "chordSymbol": "G7",
    "rootPc": 7,
    "quality": "7",
    "scaleName": "mixolydian",
    "ruleId": "melodic-cell",
    "harmonicFunction": "scale-step"
  },
  {
    "startBeat": 6.5,
    "durationBeats": 0.5,
    "midi": 59,
    "velocity": 0.9,
    "device": "arpeggio",
    "chordSymbol": "G7",
    "rootPc": 7,
    "quality": "7",
    "scaleName": "mixolydian",
    "ruleId": "arpeggio",
    "harmonicFunction": "chord-tone"
  },
  {
    "startBeat": 7,
    "durationBeats": 0.5,
    "midi": 66,
    "velocity": 0.9,
    "device": "enclosure",
    "enclosureType": "lower",
    "chordSymbol": "G7",
    "rootPc": 7,
    "quality": "7",
    "scaleName": "mixolydian",
    "ruleId": "enclosure",
    "harmonicFunction": "chromatic"
  },
  {
    "startBeat": 7.5,
    "durationBeats": 0.5,
    "midi": 69,
    "velocity": 0.9,
    "device": "enclosure",
    "enclosureType": "upper",
    "chordSymbol": "G7",
    "rootPc": 7,
    "quality": "7",
    "scaleName": "mixolydian",
    "ruleId": "enclosure",
    "harmonicFunction": "scale-step"
  },
  {
    "midi": 67,
    "degree": "5",
    "startBeat": 8,
    "durationBeats": 0.5,
    "velocity": 0.9,
    "ruleId": "chord-tone",
    "harmonicFunction": "chord-tone",
    "device": "target",
    "chordSymbol": "Cmaj7",
    "rootPc": 0,
    "quality": "maj7",
    "scaleName": "ionian"
  },
  {
    "startBeat": 8.5,
    "durationBeats": 0.5,
    "midi": 69,
    "velocity": 0.9,
    "device": "scale-run",
    "chordSymbol": "Cmaj7",
    "rootPc": 0,
    "quality": "maj7",
    "scaleName": "ionian",
    "ruleId": "scale-step",
    "harmonicFunction": "scale-step"
  },
  {
    "startBeat": 9,
    "durationBeats": 0.5,
    "midi": 71,
    "velocity": 0.9,
    "device": "scale-run",
    "chordSymbol": "Cmaj7",
    "rootPc": 0,
    "quality": "maj7",
    "scaleName": "ionian",
    "ruleId": "scale-step",
    "harmonicFunction": "scale-step"
  },
  {
    "startBeat": 9.5,
    "durationBeats": 0.5,
    "midi": 72,
    "velocity": 0.9,
    "device": "scale-run",
    "chordSymbol": "Cmaj7",
    "rootPc": 0,
    "quality": "maj7",
    "scaleName": "ionian",
    "ruleId": "scale-step",
    "harmonicFunction": "scale-step"
  },
  {
    "startBeat": 10,
    "durationBeats": 0.5,
    "midi": 74,
    "velocity": 0.9,
    "device": "scale-run",
    "chordSymbol": "Cmaj7",
    "rootPc": 0,
    "quality": "maj7",
    "scaleName": "ionian",
    "ruleId": "scale-step",
    "harmonicFunction": "scale-step"
  },
  {
    "startBeat": 10.5,
    "durationBeats": 0.5,
    "midi": 76,
    "velocity": 0.9,
    "device": "scale-run",
    "chordSymbol": "Cmaj7",
    "rootPc": 0,
    "quality": "maj7",
    "scaleName": "ionian",
    "ruleId": "scale-step",
    "harmonicFunction": "scale-step"
  }
]