[
  {
    "midi": 65,
    "noteName": "F4",
    "degree": "b3",
    "startBeat": 0,
    "durationBeats": 0.5,
    "velocity": 0.9,
    "ruleId": "chord-tone",
    "harmonicFunction": "chord-tone",
    "device": "enclosure-target",
    "chordSymbol": "Dm7",
    "rootPc": 2,
    "quality": "m7",
    "scaleName": "dorian"
  },
  {
    "startBeat": 0.5,
    "durationBeats": 0.5,
    "midi": 67,
    "velocity": 0.9,
    "device": "enclosure-fill",
    "chordSymbol": "Dm7",
    "rootPc": 2,
    "quality": "m7",
    "scaleName": "dorian",
    "ruleId": "scale-step",
    "harmonicFunction": "scale-step",
    "noteName": "G4"
  },
  {
    "startBeat": 1,
    "durationBeats": 0.5,
    "midi": 65,
    "velocity": 0.9,
    "device": "enclosure-fill",
    "chordSymbol": "Dm7",
    "rootPc": 2,
    "quality": "m7",
    "scaleName": "dorian",
    "ruleId": "scale-step",
    "harmonicFunction": "scale-step",
    "noteName": "F4"
  },
  {
    "startBeat": 1.5,
    "durationBeats": 0.5,
    "midi": 64,
    "velocity": 0.9,
    "device": "enclosure",
    "enclosureType": "upper",
    "chordSymbol": "Dm7",
    "rootPc": 2,
    "quality": "m7",
    "scaleName": "dorian",
    "ruleId": "enclosure",
    "harmonicFunction": "scale-step",
    "noteName": "E4"
  },
  {
    "startBeat": 2,
    "durationBeats": 0.5,
    "midi": 61,
    "velocity": 0.9,
    "device": "enclosure",
    "enclosureType": "lower",
    "chordSymbol": "Dm7",
    "rootPc": 2,
    "quality": "m7",
    "scaleName": "dorian",
    "ruleId": "enclosure",
    "harmonicFunction": "chromatic",
    "noteName": "C#4"
  },
  {
    "startBeat": 2.5,
    "durationBeats": 0.5,
    "midi": 62,
    "velocity": 0.9,
    "device": "enclosure-target",
    "chordSymbol": "Dm7",
    "rootPc": 2,
    "quality": "m7",
    "scaleName": "dorian",
    "ruleId": "chord-tone",
    "harmonicFunction": "chord-tone",
    "noteName": "D4"
  },
  {
    "startBeat": 3,
    "durationBeats": 0.5,
    "midi": 67,
    "velocity": 0.9,
    "device": "enclosure",
    "enclosureType": "upper",
    "chordSymbol": "Dm7",
    "rootPc": 2,
    "quality": "m7",
    "scaleName": "dorian",
    "ruleId": "enclosure",
    "harmonicFunction": "scale-step",
    "noteName": "G4"
  },
  {
    "startBeat": 3.5,
    "durationBeats": 0.5,
    "midi": 64,
    "velocity": 0.9,
    "device": "enclosure",
    "enclosureType": "lower",
    "chordSymbol": "Dm7",
    "rootPc": 2,
    "quality": "m7",
    "scaleName": "dorian",
    "ruleId": "enclosure",
    "harmonicFunction": "chromatic",
    "noteName": "E4"
  },
  {
    "midi": 65,
    "noteName": "F4",
    "degree": "b7",
    "startBeat": 4,
    "durationBeats": 0.5,
    "velocity": 0.9,
    "ruleId": "chord-tone",
    "harmonicFunction": "chord-tone",
    "device": "enclosure-target",
    "chordSymbol": "G7",
    "rootPc": 7,
    "quality": "7",
    "scaleName": "mixolydian"
  },
  {
    "startBeat": 4.5,
    "durationBeats": 0.5,
    "midi": 67,
    "velocity": 0.9,
    "device": "enclosure-fill",
    "chordSymbol": "G7",
    "rootPc": 7,
    "quality": "7",
    "scaleName": "mixolydian",
    "ruleId": "scale-step",
    "harmonicFunction": "scale-step",
    "noteName": "G4"
  },
  {
    "startBeat": 5,
    "durationBeats": 0.5,
    "midi": 69,
    "velocity": 0.9,
    "device": "enclosure-fill",
    "chordSymbol": "G7",
    "rootPc": 7,
    "quality": "7",
    "scaleName": "mixolydian",
    "ruleId": "scale-step",
    "harmonicFunction": "scale-step",
    "noteName": "A4"
  },
  {
    "startBeat": 5.5,
    "durationBeats": 0.5,
    "midi": 69,
    "velocity": 0.9,
    "device": "enclosure",
    "enclosureType": "upper",
    "chordSymbol": "G7",
    "rootPc": 7,
    "quality": "7",
    "scaleName": "mixolydian",
    "ruleId": "enclosure",
    "harmonicFunction": "scale-step",
    "noteName": "A4"
  },
  {
    "startBeat": 6,
    "durationBeats": 0.5,
    "midi": 66,
    "velocity": 0.9,
    "device": "enclosure",
    "enclosureType": "lower",
    "chordSymbol": "G7",
    "rootPc": 7,
    "quality": "7",
    "scaleName": "mixolydian",
    "ruleId": "enclosure",
    "harmonicFunction": "chromatic",
    "noteName": "F#4"
  },
  {
    "startBeat": 6.5,
    "durationBeats": 0.5,
    "midi": 67,
    "velocity": 0.9,
    "device": "enclosure-target",
    "chordSymbol": "G7",
    "rootPc": 7,
    "quality": "7",
    "scaleName": "mixolydian",
    "ruleId": "chord-tone",
    "harmonicFunction": "chord-tone",
    "noteName": "G4"
  },
  {
    "startBeat": 7,
    "durationBeats": 0.5,
    "midi": 59,
    "velocity": 0.9,
    "device": "enclosure",
    "enclosureType": "lower",
    "chordSymbol": "G7",
    "rootPc": 7,
    "quality": "7",
    "scaleName": "mixolydian",
    "ruleId": "enclosure",
    "harmonicFunction": "chromatic",
    "noteName": "B3"
  },
  {
    "startBeat": 7.5,
    "durationBeats": 0.5,
    "midi": 62,
    "velocity": 0.9,
    "device": "enclosure",
    "enclosureType": "upper",
    "chordSymbol": "G7",
    "rootPc": 7,
    "quality": "7",
    "scaleName": "mixolydian",
    "ruleId": "enclosure",
    "harmonicFunction": "scale-step",
    "noteName": "D4"
  },
  {
    "midi": 60,
    "noteName": "C4",
    "degree": "1",
    "startBeat": 8,
    "durationBeats": 0.5,
    "velocity": 0.9,
    "ruleId": "chord-tone",
    "harmonicFunction": "chord-tone",
    "device": "arpeggio",
    "chordSymbol": "Cmaj7",
    "rootPc": 0,
    "quality": "maj7",
    "scaleName": "ionian"
  },
  {
    "startBeat": 8.5,
    "durationBeats": 0.5,
    "midi": 64,
    "velocity": 0.9,
    "device": "arpeggio",
    "chordSymbol": "Cmaj7",
    "rootPc": 0,
    "quality": "maj7",
    "scaleName": "ionian",
    "ruleId": "arpeggio",
    "harmonicFunction": "chord-tone",
    "noteName": "E4"
  },
  {
    "startBeat": 9,
    "durationBeats": 0.5,
    "midi": 67,
    "velocity": 0.9,
    "device": "arpeggio",
    "chordSymbol": "Cmaj7",
    "rootPc": 0,
    "quality": "maj7",
    "scaleName": "ionian",
    "ruleId": "arpeggio",
    "harmonicFunction": "chord-tone",
    "noteName": "G4"
  },
  {
    "startBeat": 9.5,
    "durationBeats": 0.5,
    "midi": 71,
    "velocity": 0.9,
    "device": "arpeggio",
    "chordSymbol": "Cmaj7",
    "rootPc": 0,
    "quality": "maj7",
    "scaleName": "ionian",
    "ruleId": "arpeggio",
    "harmonicFunction": "chord-tone",
    "noteName": "B4"
  },
  {
    "startBeat": 10,
    "durationBeats": 0.5,
    "midi": 60,
    "velocity": 0.9,
    "device": "arpeggio",
    "chordSymbol": "Cmaj7",
    "rootPc": 0,
    "quality": "maj7",
    "scaleName": "ionian",
    "ruleId": "arpeggio",
    "harmonicFunction": "chord-tone",
    "noteName": "C4"
  },
  {
    "startBeat": 10.5,
    "durationBeats": 0.5,
    "midi": 64,
    "velocity": 0.9,
    "device": "arpeggio",
    "chordSymbol": "Cmaj7",
    "rootPc": 0,
    "quality": "maj7",
    "scaleName": "ionian",
    "ruleId": "arpeggio",
    "harmonicFunction": "chord-tone",
    "noteName": "E4"
  },
  {
    "startBeat": 11,
    "durationBeats": 0.5,
    "midi": 67,
    "velocity": 0.9,
    "device": "arpeggio",
    "chordSymbol": "Cmaj7",
    "rootPc": 0,
    "quality": "maj7",
    "scaleName": "ionian",
    "ruleId": "arpeggio",
    "harmonicFunction": "chord-tone",
    "noteName": "G4"
  }
]