[
  {
    "startBeat": 0,
    "durationBeats": 0.5,
    "midi": 67,
    "velocity": 0.9,
    "device": "neighbor-approach",
    "chordSymbol": "Dm7",
    "rootPc": 2,
    "quality": "m7",
    "scaleName": "dorian"
  },
  {
    "startBeat": 0.5,
    "durationBeats": 0.5,
    "midi": 66,
    "velocity": 0.9,
    "device": "neighbor-approach",
    "chordSymbol": "Dm7",
    "rootPc": 2,
    "quality": "m7",
    "scaleName": "dorian"
  },
  {
    "startBeat": 1,
    "durationBeats": 0.5,
    "midi": 67,
    "velocity": 0.9,
    "device": "neighbor-approach",
    "chordSymbol": "Dm7",
    "rootPc": 2,
    "quality": "m7",
    "scaleName": "dorian"
  },
  {
    "startBeat": 1.5,
    "durationBeats": 0.5,
    "midi": 66,
    "velocity": 0.9,
    "device": "neighbor-approach",
    "chordSymbol": "Dm7",
    "rootPc": 2,
    "quality": "m7",
    "scaleName": "dorian"
  },
  {
    "startBeat": 2,
    "durationBeats": 0.5,
    "midi": 64,
    "velocity": 0.9,
    "device": "neighbor-approach",
    "chordSymbol": "Dm7",
    "rootPc": 2,
    "quality": "m7",
    "scaleName": "dorian"
  },
  {
    "startBeat": 3,
    "durationBeats": 0.5,
    "midi": 64,
    "velocity": 0.9,
    "device": "enclosure",
    "enclosureType": "lower",
    "chordSymbol": "Dm7",
    "rootPc": 2,
    "quality": "m7",
    "scaleName": "dorian"
  },
  {
    "startBeat": 3.5,
    "durationBeats": 0.5,
    "midi": 66,
    "velocity": 0.9,
    "device": "enclosure",
    "enclosureType": "upper",
    "chordSymbol": "Dm7",
    "rootPc": 2,
    "quality": "m7",
    "scaleName": "dorian"
  },
  {
    "startBeat": 4,
    "durationBeats": 0.5,
    "midi": 67,
    "velocity": 0.9,
    "device": "neighbor-approach",
    "chordSymbol": "G7",
    "rootPc": 7,
    "quality": "7",
    "scaleName": "mixolydian"
  },
  {
    "startBeat": 4.5,
    "durationBeats": 0.5,
    "midi": 66,
    "velocity": 0.9,
    "device": "neighbor-approach",
    "chordSymbol": "G7",
    "rootPc": 7,
    "quality": "7",
    "scaleName": "mixolydian"
  },
  {
    "startBeat": 5,
    "durationBeats": 0.5,
    "midi": 64,
    "velocity": 0.9,
    "device": "neighbor-approach",
    "chordSymbol": "G7",
    "rootPc": 7,
    "quality": "7",
    "scaleName": "mixolydian"
  },
  {
    "startBeat": 5.5,
    "durationBeats": 0.5,
    "midi": 62,
    "velocity": 0.9,
    "device": "neighbor-approach",
    "chordSymbol": "G7",
    "rootPc": 7,
    "quality": "7",
    "scaleName": "mixolydian"
  },
  {
    "startBeat": 6,
    "durationBeats": 0.5,
    "midi": 60,
    "velocity": 0.9,
    "device": "neighbor-approach",
    "chordSymbol": "G7",
    "rootPc": 7,
    "quality": "7",
    "scaleName": "mixolydian"
  },
  {
    "startBeat": 7,
    "durationBeats": 0.5,
    "midi": 62,
    "velocity": 0.9,
    "device": "enclosure",
    "enclosureType": "upper",
    "chordSymbol": "G7",
    "rootPc": 7,
    "quality": "7",
    "scaleName": "mixolydian"
  },
  {
    "startBeat": 7.5,
    "durationBeats": 0.5,
    "midi": 59,
    "velocity": 0.9,
    "device": "enclosure",
    "enclosureType": "lower",
    "chordSymbol": "G7",
    "rootPc": 7,
    "quality": "7",
    "scaleName": "mixolydian"
  },
  {
    "startBeat": 8,
    "durationBeats": 0.5714285714285714,
    "midi": 60,
    "velocity": 0.9,
    "device": "arpeggio",
    "chordSymbol": "Cmaj7",
    "rootPc": 0,
    "quality": "maj7",
    "scaleName": "ionian"
  },
  {
    "startBeat": 8.571428571428571,
    "durationBeats": 0.5714285714285714,
    "midi": 64,
    "velocity": 0.9,
    "device": "arpeggio",
    "chordSymbol": "Cmaj7",
    "rootPc": 0,
    "quality": "maj7",
    "scaleName": "ionian"
  },
  {
    "startBeat": 9.142857142857142,
    "durationBeats": 0.5714285714285714,
    "midi": 67,
    "velocity": 0.9,
    "device": "arpeggio",
    "chordSymbol": "Cmaj7",
    "rootPc": 0,
    "quality": "maj7",
    "scaleName": "ionian"
  },
  {
    "startBeat": 9.714285714285714,
    "durationBeats": 0.5714285714285714,
    "midi": 71,
    "velocity": 0.9,
    "device": "arpeggio",
    "chordSymbol": "Cmaj7",
    "rootPc": 0,
    "quality": "maj7",
    "scaleName": "ionian"
  },
  {
    "startBeat": 10.285714285714285,
    "durationBeats": 0.5714285714285714,
    "midi": 60,
    "velocity": 0.9,
    "device": "arpeggio",
    "chordSymbol": "Cmaj7",
    "rootPc": 0,
    "quality": "maj7",
    "scaleName": "ionian"
  },
  {
    "startBeat": 10.857142857142858,
    "durationBeats": 0.5714285714285714,
    "midi": 64,
    "velocity": 0.9,
    "device": "arpeggio",
    "chordSymbol": "Cmaj7",
    "rootPc": 0,
    "quality": "maj7",
    "scaleName": "ionian"
  },
  {
    "startBeat": 11.428571428571429,
    "durationBeats": 0.5714285714285714,
    "midi": 67,
    "velocity": 0.9,
    "device": "arpeggio",
    "chordSymbol": "Cmaj7",
    "rootPc": 0,
    "quality": "maj7",
    "scaleName": "ionian"
  }
]