[
  {
    "id": 0,
    "metadata": {
      "key": "Gb",
      "progressionType": "I-vi-ii-V",
      "deviceStrategy": "arpeggio-heavy",
      "swing": 0.7,
      "numNotes": 31,
      "duration": 15.5
    },
    "notes": [
      {
        "midi": 65,
        "noteName": "F4",
        "degree": "7",
        "startBeat": 0,
        "durationBeats": 0.6166666666666667,
        "velocity": 0.9,
        "ruleId": "chord-tone",
        "harmonicFunction": "chord-tone",
        "device": "scale-run",
        "chordSymbol": "Gbmaj7",
        "rootPc": 6,
        "quality": "maj7",
        "scaleName": "ionian"
      },
      {
        "startBeat": 0.6166666666666667,
        "durationBeats": 0.38333333333333336,
        "midi": 63,
        "velocity": 0.9,
        "device": "scale-run",
        "chordSymbol": "Gbmaj7",
        "rootPc": 6,
        "quality": "maj7",
        "scaleName": "ionian",
        "ruleId": "scale-step",
        "harmonicFunction": "scale-step",
        "noteName": "D#4",
        "degree": "6"
      },
      {
        "startBeat": 1,
        "durationBeats": 0.6166666666666667,
        "midi": 61,
        "velocity": 0.9,
        "device": "scale-run",
        "chordSymbol": "Gbmaj7",
        "rootPc": 6,
        "quality": "maj7",
        "scaleName": "ionian",
        "ruleId": "scale-run-chord-tone",
        "harmonicFunction": "chord-tone",
        "noteName": "C#4",
        "degree": "5"
      },
      {
        "startBeat": 1.6166666666666667,
        "durationBeats": 0.38333333333333336,
        "midi": 59,
        "velocity": 0.9,
        "device": "scale-run",
        "chordSymbol": "Gbmaj7",
        "rootPc": 6,
        "quality": "maj7",
        "scaleName": "ionian",
        "ruleId": "scale-step",
        "harmonicFunction": "scale-step",
        "noteName": "B3",
        "degree": "4"
      },
      {
        "startBeat": 2,
        "durationBeats": 0.6166666666666667,
        "midi": 61,
        "velocity": 0.9,
        "device": "scale-run",
        "chordSymbol": "Gbmaj7",
        "rootPc": 6,
        "quality": "maj7",
        "scaleName": "ionian",
        "ruleId": "scale-run-chord-tone",
        "harmonicFunction": "chord-tone",
        "noteName": "C#4",
        "degree": "5"
      },
      {
        "startBeat": 2.6166666666666667,
        "durationBeats": 0.38333333333333336,
        "midi": 63,
        "velocity": 0.9,
        "device": "scale-run",
        "chordSymbol": "Gbmaj7",
        "rootPc": 6,
        "quality": "maj7",
        "scaleName": "ionian",
        "ruleId": "scale-step",
        "harmonicFunction": "scale-step",
        "noteName": "D#4",
        "degree": "6"
      },
      {
        "startBeat": 3,
        "durationBeats": 0.6166666666666667,
        "midi": 65,
        "velocity": 0.9,
        "device": "scale-run",
        "chordSymbol": "Gbmaj7",
        "rootPc": 6,
        "quality": "maj7",
        "scaleName": "ionian",
        "ruleId": "scale-run-chord-tone",
        "harmonicFunction": "chord-tone",
        "noteName": "F4",
        "degree": "7"
      },
      {
        "startBeat": 3.6166666666666667,
        "durationBeats": 0.38333333333333336,
        "midi": 66,
        "velocity": 0.9,
        "device": "scale-run",
        "chordSymbol": "Gbmaj7",
        "rootPc": 6,
        "quality": "maj7",
        "scaleName": "ionian",
        "ruleId": "scale-run-chord-tone",
        "harmonicFunction": "chord-tone",
        "noteName": "F#4",
        "degree": "1"
      },
      {
        "midi": 70,
        "noteName": "A#4",
        "degree": "5",
        "startBeat": 4,
        "durationBeats": 0.6166666666666667,
        "velocity": 0.9,
        "ruleId": "chord-tone",
        "harmonicFunction": "chord-tone",
        "device": "scale-run",
        "chordSymbol": "Ebm7",
        "rootPc": 3,
        "quality": "m7",
        "scaleName": "dorian"
      },
      {
        "startBeat": 4.616666666666666,
        "durationBeats": 0.38333333333333336,
        "midi": 68,
        "velocity": 0.9,
        "device": "scale-run",
        "chordSymbol": "Ebm7",
        "rootPc": 3,
        "quality": "m7",
        "scaleName": "dorian",
        "ruleId": "scale-step",
        "harmonicFunction": "scale-step",
        "noteName": "G#4",
        "degree": "4"
      },
      {
        "startBeat": 5,
        "durationBeats": 0.6166666666666667,
        "midi": 66,
        "velocity": 0.9,
        "device": "scale-run",
        "chordSymbol": "Ebm7",
        "rootPc": 3,
        "quality": "m7",
        "scaleName": "dorian",
        "ruleId": "scale-run-chord-tone",
        "harmonicFunction": "chord-tone",
        "noteName": "F#4",
        "degree": "b3"
      },
      {
        "startBeat": 5.616666666666666,
        "durationBeats": 0.38333333333333336,
        "midi": 65,
        "velocity": 0.9,
        "device": "scale-run",
        "chordSymbol": "Ebm7",
        "rootPc": 3,
        "quality": "m7",
        "scaleName": "dorian",
        "ruleId": "scale-step",
        "harmonicFunction": "scale-step",
        "noteName": "F4",
        "degree": "2"
      },
      {
        "startBeat": 6,
        "durationBeats": 0.6166666666666667,
        "midi": 66,
        "velocity": 0.9,
        "device": "scale-run",
        "chordSymbol": "Ebm7",
        "rootPc": 3,
        "quality": "m7",
        "scaleName": "dorian",
        "ruleId": "scale-run-chord-tone",
        "harmonicFunction": "chord-tone",
        "noteName": "F#4",
        "degree": "b3"
      },
      {
        "startBeat": 6.616666666666666,
        "durationBeats": 0.38333333333333336,
        "midi": 66,
        "velocity": 0.9,
        "device": "scale-run",
        "chordSymbol": "Ebm7",
        "rootPc": 3,
        "quality": "m7",
        "scaleName": "dorian",
        "ruleId": "scale-run-chord-tone",
        "harmonicFunction": "chord-tone",
        "noteName": "F#4",
        "degree": "b3"
      },
      {
        "startBeat": 7,
        "durationBeats": 0.6166666666666667,
        "midi": 65,
        "velocity": 0.9,
        "device": "scale-run",
        "chordSymbol": "Ebm7",
        "rootPc": 3,
        "quality": "m7",
        "scaleName": "dorian",
        "ruleId": "scale-step",
        "harmonicFunction": "scale-step",
        "noteName": "F4",
        "degree": "2"
      },
      {
        "startBeat": 7.616666666666666,
        "durationBeats": 0.38333333333333336,
        "midi": 66,
        "velocity": 0.9,
        "device": "scale-run",
        "chordSymbol": "Ebm7",
        "rootPc": 3,
        "quality": "m7",
        "scaleName": "dorian",
        "ruleId": "scale-run-chord-tone",
        "harmonicFunction": "chord-tone",
        "noteName": "F#4",
        "degree": "b3"
      },
      {
        "midi": 68,
        "noteName": "G#4",
        "degree": "1",
        "startBeat": 8,
        "durationBeats": 0.6166666666666667,
        "velocity": 0.9,
        "ruleId": "chord-tone",
        "harmonicFunction": "chord-tone",
        "device": "enclosure-target",
        "chordSymbol": "Abm7",
        "rootPc": 8,
        "quality": "m7",
        "scaleName": "dorian"
      },
      {
        "startBeat": 8.616666666666667,
        "durationBeats": 0.38333333333333336,
        "midi": 70,
        "velocity": 0.9,
        "device": "enclosure-fill",
        "chordSymbol": "Abm7",
        "rootPc": 8,
        "quality": "m7",
        "scaleName": "dorian",
        "ruleId": "scale-step",
        "harmonicFunction": "scale-step",
        "noteName": "A#4",
        "degree": "2"
      },
      {
        "startBeat": 9,
        "durationBeats": 0.6166666666666667,
        "midi": 73,
        "velocity": 0.9,
        "device": "enclosure",
        "enclosureType": "upper",
        "chordSymbol": "Abm7",
        "rootPc": 8,
        "quality": "m7",
        "scaleName": "dorian",
        "ruleId": "enclosure",
        "harmonicFunction": "scale-step",
        "noteName": "C#5",
        "degree": "4"
      },
      {
        "startBeat": 9.616666666666667,
        "durationBeats": 0.38333333333333336,
        "midi": 70,
        "velocity": 0.9,
        "device": "enclosure",
        "enclosureType": "lower",
        "chordSymbol": "Abm7",
        "rootPc": 8,
        "quality": "m7",
        "scaleName": "dorian",
        "ruleId": "enclosure",
        "harmonicFunction": "chromatic",
        "noteName": "A#4"
      },
      {
        "startBeat": 10,
        "durationBeats": 0.6166666666666667,
        "midi": 71,
        "velocity": 0.9,
        "device": "enclosure-target",
        "chordSymbol": "Abm7",
        "rootPc": 8,
        "quality": "m7",
        "scaleName": "dorian",
        "ruleId": "chord-tone",
        "harmonicFunction": "chord-tone",
        "noteName": "B4",
        "degree": "b3"
      },
      {
        "startBeat": 10.616666666666667,
        "durationBeats": 0.38333333333333336,
        "midi": 70,
        "velocity": 0.9,
        "device": "enclosure-fill",
        "chordSymbol": "Abm7",
        "rootPc": 8,
        "quality": "m7",
        "scaleName": "dorian",
        "ruleId": "scale-step",
        "harmonicFunction": "scale-step",
        "noteName": "A#4",
        "degree": "2"
      },
      {
        "startBeat": 11,
        "durationBeats": 0.6166666666666667,
        "midi": 67,
        "velocity": 0.9,
        "device": "enclosure",
        "enclosureType": "lower",
        "chordSymbol": "Abm7",
        "rootPc": 8,
        "quality": "m7",
        "scaleName": "dorian",
        "ruleId": "enclosure",
        "harmonicFunction": "chromatic",
        "noteName": "G4"
      },
      {
        "startBeat": 11.616666666666667,
        "durationBeats": 0.38333333333333336,
        "midi": 70,
        "velocity": 0.9,
        "device": "enclosure",
        "enclosureType": "upper",
        "chordSymbol": "Abm7",
        "rootPc": 8,
        "quality": "m7",
        "scaleName": "dorian",
        "ruleId": "enclosure",
        "harmonicFunction": "scale-step",
        "noteName": "A#4",
        "degree": "2"
      },
      {
        "midi": 68,
        "noteName": "G#4",
        "degree": "5",
        "startBeat": 12,
        "durationBeats": 0.6166666666666667,
        "velocity": 0.9,
        "ruleId": "chord-tone",
        "harmonicFunction": "chord-tone",
        "device": "arpeggio",
        "chordSymbol": "Db7",
        "rootPc": 1,
        "quality": "7",
        "scaleName": "mixolydian"
      },
      {
        "startBeat": 12.616666666666667,
        "durationBeats": 0.38333333333333336,
        "midi": 65,
        "velocity": 0.9,
        "device": "arpeggio",
        "chordSymbol": "Db7",
        "rootPc": 1,
        "quality": "7",
        "scaleName": "mixolydian",
        "ruleId": "arpeggio",
        "harmonicFunction": "chord-tone",
        "noteName": "F4",
        "degree": "3"
      },
      {
        "startBeat": 13,
        "durationBeats": 0.6166666666666667,
        "midi": 61,
        "velocity": 0.9,
        "device": "arpeggio",
        "chordSymbol": "Db7",
        "rootPc": 1,
        "quality": "7",
        "scaleName": "mixolydian",
        "ruleId": "arpeggio",
        "harmonicFunction": "chord-tone",
        "noteName": "C#4",
        "degree": "1"
      },
      {
        "startBeat": 13.616666666666667,
        "durationBeats": 0.38333333333333336,
        "midi": 71,
        "velocity": 0.9,
        "device": "arpeggio",
        "chordSymbol": "Db7",
        "rootPc": 1,
        "quality": "7",
        "scaleName": "mixolydian",
        "ruleId": "arpeggio",
        "harmonicFunction": "chord-tone",
        "noteName": "B4",
        "degree": "b7"
      },
      {
        "startBeat": 14,
        "durationBeats": 0.6166666666666667,
        "midi": 68,
        "velocity": 0.9,
        "device": "arpeggio",
        "chordSymbol": "Db7",
        "rootPc": 1,
        "quality": "7",
        "scaleName": "mixolydian",
        "ruleId": "arpeggio",
        "harmonicFunction": "chord-tone",
        "noteName": "G#4",
        "degree": "5"
      },
      {
        "startBeat": 14.616666666666667,
        "durationBeats": 0.38333333333333336,
        "midi": 65,
        "velocity": 0.9,
        "device": "arpeggio",
        "chordSymbol": "Db7",
        "rootPc": 1,
        "quality": "7",
        "scaleName": "mixolydian",
        "ruleId": "arpeggio",
        "harmonicFunction": "chord-tone",
        "noteName": "F4",
        "degree": "3"
      },
      {
        "startBeat": 15,
        "durationBeats": 0.5,
        "midi": 61,
        "velocity": 0.9,
        "device": "arpeggio",
        "chordSymbol": "Db7",
        "rootPc": 1,
        "quality": "7",
        "scaleName": "mixolydian",
        "ruleId": "arpeggio",
        "harmonicFunction": "chord-tone",
        "noteName": "C#4",
        "degree": "1"
      }
    ],
    "tokens": [
      {
        "midi": 65,
        "duration": 1,
        "velocity": 114,
        "degree": "7",
        "harmonicFunction": "chord-tone",
        "device": "scale-run",
        "chordRoot": 6,
        "chordQuality": "maj7",
        "scale": "ionian"
      },
      {
        "midi": 63,
        "duration": 1,
        "velocity": 114,
        "degree": "6",
        "harmonicFunction": "scale-step",
        "device": "scale-run",
        "chordRoot": 6,
        "chordQuality": "maj7",
        "scale": "ionian"
      },
      {
        "midi": 61,
        "duration": 1,
        "velocity": 114,
        "degree": "5",
        "harmonicFunction": "chord-tone",
        "device": "scale-run",
        "chordRoot": 6,
        "chordQuality": "maj7",
        "scale": "ionian"
      },
      {
        "midi": 59,
        "duration": 1,
        "velocity": 114,
        "degree": "4",
        "harmonicFunction": "scale-step",
        "device": "scale-run",
        "chordRoot": 6,
        "chordQuality": "maj7",
        "scale": "ionian"
      },
      {
        "midi": 61,
        "duration": 1,
        "velocity": 114,
        "degree": "5",
        "harmonicFunction": "chord-tone",
        "device": "scale-run",
        "chordRoot": 6,
        "chordQuality": "maj7",
        "scale": "ionian"
      },
      {
        "midi": 63,
        "duration": 1,
        "velocity": 114,
        "degree": "6",
        "harmonicFunction": "scale-step",
        "device": "scale-run",
        "chordRoot": 6,
        "chordQuality": "maj7",
        "scale": "ionian"
      },
      {
        "midi": 65,
        "duration": 1,
        "velocity": 114,
        "degree": "7",
        "harmonicFunction": "chord-tone",
        "device": "scale-run",
        "chordRoot": 6,
        "chordQuality": "maj7",
        "scale": "ionian"
      },
      {
        "midi": 66,
        "duration": 1,
        "velocity": 114,
        "degree": "1",
        "harmonicFunction": "chord-tone",
        "device": "scale-run",
        "chordRoot": 6,
        "chordQuality": "maj7",
        "scale": "ionian"
      },
      {
        "midi": 70,
        "duration": 1,
        "velocity": 114,
        "degree": "5",
        "harmonicFunction": "chord-tone",
        "device": "scale-run",
        "chordRoot": 3,
        "chordQuality": "m7",
        "scale": "dorian"
      },
      {
        "midi": 68,
        "duration": 1,
        "velocity": 114,
        "degree": "4",
        "harmonicFunction": "scale-step",
        "device": "scale-run",
        "chordRoot": 3,
        "chordQuality": "m7",
        "scale": "dorian"
      },
      {
        "midi": 66,
        "duration": 1,
        "velocity": 114,
        "degree": "b3",
        "harmonicFunction": "chord-tone",
        "device": "scale-run",
        "chordRoot": 3,
        "chordQuality": "m7",
        "scale": "dorian"
      },
      {
        "midi": 65,
        "duration": 1,
        "velocity": 114,
        "degree": "2",
        "harmonicFunction": "scale-step",
        "device": "scale-run",
        "chordRoot": 3,
        "chordQuality": "m7",
        "scale": "dorian"
      },
      {
        "midi": 66,
        "duration": 1,
        "velocity": 114,
        "degree": "b3",
        "harmonicFunction": "chord-tone",
        "device": "scale-run",
        "chordRoot": 3,
        "chordQuality": "m7",
        "scale": "dorian"
      },
      {
        "midi": 66,
        "duration": 1,
        "velocity": 114,
        "degree": "b3",
        "harmonicFunction": "chord-tone",
        "device": "scale-run",
        "chordRoot": 3,
        "chordQuality": "m7",
        "scale": "dorian"
      },
      {
        "midi": 65,
        "duration": 1,
        "velocity": 114,
        "degree": "2",
        "harmonicFunction": "scale-step",
        "device": "scale-run",
        "chordRoot": 3,
        "chordQuality": "m7",
        "scale": "dorian"
      },
      {
        "midi": 66,
        "duration": 1,
        "velocity": 114,
        "degree": "b3",
        "harmonicFunction": "chord-tone",
        "device": "scale-run",
        "chordRoot": 3,
        "chordQuality": "m7",
        "scale": "dorian"
      },
      {
        "midi": 68,
        "duration": 1,
        "velocity": 114,
        "degree": "1",
        "harmonicFunction": "chord-tone",
        "device": "enclosure-target",
        "chordRoot": 8,
        "chordQuality": "m7",
        "scale": "dorian"
      },
      {
        "midi": 70,
        "duration": 1,
        "velocity": 114,
        "degree": "2",
        "harmonicFunction": "scale-step",
        "device": "enclosure-fill",
        "chordRoot": 8,
        "chordQuality": "m7",
        "scale": "dorian"
      },
      {
        "midi": 73,
        "duration": 1,
        "velocity": 114,
        "degree": "4",
        "harmonicFunction": "scale-step",
        "device": "enclosure",
        "chordRoot": 8,
        "chordQuality": "m7",
        "scale": "dorian"
      },
      {
        "midi": 70,
        "duration": 1,
        "velocity": 114,
        "degree": "X",
        "harmonicFunction": "chromatic",
        "device": "enclosure",
        "chordRoot": 8,
        "chordQuality": "m7",
        "scale": "dorian"
      },
      {
        "midi": 71,
        "duration": 1,
        "velocity": 114,
        "degree": "b3",
        "harmonicFunction": "chord-tone",
        "device": "enclosure-target",
        "chordRoot": 8,
        "chordQuality": "m7",
        "scale": "dorian"
      },
      {
        "midi": 70,
        "duration": 1,
        "velocity": 114,
        "degree": "2",
        "harmonicFunction": "scale-step",
        "device": "enclosure-fill",
        "chordRoot": 8,
        "chordQuality": "m7",
        "scale": "dorian"
      },
      {
        "midi": 67,
        "duration": 1,
        "velocity": 114,
        "degree": "X",
        "harmonicFunction": "chromatic",
        "device": "enclosure",
        "chordRoot": 8,
        "chordQuality": "m7",
        "scale": "dorian"
      },
      {
        "midi": 70,
        "duration": 1,
        "velocity": 114,
        "degree": "2",
        "harmonicFunction": "scale-step",
        "device": "enclosure",
        "chordRoot": 8,
        "chordQuality": "m7",
        "scale": "dorian"
      },
      {
        "midi": 68,
        "duration": 1,
        "velocity": 114,
        "degree": "5",
        "harmonicFunction": "chord-tone",
        "device": "arpeggio",
        "chordRoot": 1,
        "chordQuality": "7",
        "scale": "mixolydian"
      },
      {
        "midi": 65,
        "duration": 1,
        "velocity": 114,
        "degree": "3",
        "harmonicFunction": "chord-tone",
        "device": "arpeggio",
        "chordRoot": 1,
        "chordQuality": "7",
        "scale": "mixolydian"
      },
      {
        "midi": 61,
        "duration": 1,
        "velocity": 114,
        "degree": "1",
        "harmonicFunction": "chord-tone",
        "device": "arpeggio",
        "chordRoot": 1,
        "chordQuality": "7",
        "scale": "mixolydian"
      },
      {
        "midi": 71,
        "duration": 1,
        "velocity": 114,
        "degree": "b7",
        "harmonicFunction": "chord-tone",
        "device": "arpeggio",
        "chordRoot": 1,
        "chordQuality": "7",
        "scale": "mixolydian"
      },
      {
        "midi": 68,
        "duration": 1,
        "velocity": 114,
        "degree": "5",
        "harmonicFunction": "chord-tone",
        "device": "arpeggio",
        "chordRoot": 1,
        "chordQuality": "7",
        "scale": "mixolydian"
      },
      {
        "midi": 65,
        "duration": 1,
        "velocity": 114,
        "degree": "3",
        "harmonicFunction": "chord-tone",
        "device": "arpeggio",
        "chordRoot": 1,
        "chordQuality": "7",
        "scale": "mixolydian"
      },
      {
        "midi": 61,
        "duration": 1,
        "velocity": 114,
        "degree": "1",
        "harmonicFunction": "chord-tone",
        "device": "arpeggio",
        "chordRoot": 1,
        "chordQuality": "7",
        "scale": "mixolydian"
      }
    ],
    "sequences": {
      "midi": [
        65,
        63,
        61,
        59,
        61,
        63,
        65,
        66,
        70,
        68,
        66,
        65,
        66,
        66,
        65,
        66,
        68,
        70,
        73,
        70,
        71,
        70,
        67,
        70,
        68,
        65,
        61,
        71,
        68,
        65,
        61
      ],
      "intervals": [
        0,
        -2,
        -2,
        -2,
        2,
        2,
        2,
        1,
        4,
        -2,
        -2,
        -1,
        1,
        0,
        -1,
        1,
        2,
        2,
        3,
        -3,
        1,
        -1,
        -3,
        3,
        -2,
        -3,
        -4,
        10,
        -3,
        -3,
        -4
      ],
      "degrees": [
        7,
        0,
        5,
        4,
        5,
        0,
        7,
        1,
        5,
        4,
        3,
        2,
        3,
        3,
        2,
        3,
        1,
        2,
        4,
        0,
        3,
        2,
        0,
        2,
        5,
        3,
        1,
        7,
        5,
        3,
        1
      ]
    },
    "features": [
      {
        "midi": 65,
        "duration": 1,
        "velocity": 114,
        "position": 0,
        "beatPosition": 0,
        "isDownbeat": true,
        "prevInterval": 0,
        "nextInterval": -2,
        "chordRoot": 6,
        "isMinor": true,
        "isDominant": false,
        "isMajor": true,
        "isChordTone": true,
        "isScaleStep": false,
        "isChromatic": false,
        "deviceArpeggio": false,
        "deviceEnclosure": false,
        "deviceNeighbor": false,
        "deviceApproach": false,
        "label": "chord-tone"
      },
      {
        "midi": 63,
        "duration": 1,
        "velocity": 114,
        "position": 1,
        "beatPosition": 1,
        "isDownbeat": false,
        "prevInterval": -2,
        "nextInterval": -2,
        "chordRoot": 6,
        "isMinor": true,
        "isDominant": false,
        "isMajor": true,
        "isChordTone": false,
        "isScaleStep": true,
        "isChromatic": false,
        "deviceArpeggio": false,
        "deviceEnclosure": false,
        "deviceNeighbor": false,
        "deviceApproach": false,
        "label": "scale-step"
      },
      {
        "midi": 61,
        "duration": 1,
        "velocity": 114,
        "position": 2,
        "beatPosition": 2,
        "isDownbeat": false,
        "prevInterval": -2,
        "nextInterval": -2,
        "chordRoot": 6,
        "isMinor": true,
        "isDominant": false,
        "isMajor": true,
        "isChordTone": true,
        "isScaleStep": false,
        "isChromatic": false,
        "deviceArpeggio": false,
        "deviceEnclosure": false,
        "deviceNeighbor": false,
        "deviceApproach": false,
        "label": "chord-tone"
      },
      {
        "midi": 59,
        "duration": 1,
        "velocity": 114,
        "position": 3,
        "beatPosition": 3,
        "isDownbeat": false,
        "prevInterval": -2,
        "nextInterval": 2,
        "chordRoot": 6,
        "isMinor": true,
        "isDominant": false,
        "isMajor": true,
        "isChordTone": false,
        "isScaleStep": true,
        "isChromatic": false,
        "deviceArpeggio": false,
        "deviceEnclosure": false,
        "deviceNeighbor": false,
        "deviceApproach": false,
        "label": "scale-step"
      },
      {
        "midi": 61,
        "duration": 1,
        "velocity": 114,
        "position": 4,
        "beatPosition": 4,
        "isDownbeat": false,
        "prevInterval": 2,
        "nextInterval": 2,
        "chordRoot": 6,
        "isMinor": true,
        "isDominant": false,
        "isMajor": true,
        "isChordTone": true,
        "isScaleStep": false,
        "isChromatic": false,
        "deviceArpeggio": false,
        "deviceEnclosure": false,
        "deviceNeighbor": false,
        "deviceApproach": false,
        "label": "chord-tone"
      },
      {
        "midi": 63,
        "duration": 1,
        "velocity": 114,
        "position": 5,
        "beatPosition": 5,
        "isDownbeat": false,
        "prevInterval": 2,
        "nextInterval": 2,
        "chordRoot": 6,
        "isMinor": true,
        "isDominant": false,
        "isMajor": true,
        "isChordTone": false,
        "isScaleStep": true,
        "isChromatic": false,
        "deviceArpeggio": false,
        "deviceEnclosure": false,
        "deviceNeighbor": false,
        "deviceApproach": false,
        "label": "scale-step"
      },
      {
        "midi": 65,
        "duration": 1,
        "velocity": 114,
        "position": 6,
        "beatPosition": 6,
        "isDownbeat": false,
        "prevInterval": 2,
        "nextInterval": 1,
        "chordRoot": 6,
        "isMinor": true,
        "isDominant": false,
        "isMajor": true,
        "isChordTone": true,
        "isScaleStep": false,
        "isChromatic": false,
        "deviceArpeggio": false,
        "deviceEnclosure": false,
        "deviceNeighbor": false,
        "deviceApproach": false,
        "label": "chord-tone"
      },
      {
        "midi": 66,
        "duration": 1,
        "velocity": 114,
        "position": 7,
        "beatPosition": 7,
        "isDownbeat": false,
        "prevInterval": 1,
        "nextInterval": 4,
        "chordRoot": 6,
        "isMinor": true,
        "isDominant": false,
        "isMajor": true,
        "isChordTone": true,
        "isScaleStep": false,
        "isChromatic": false,
        "deviceArpeggio": false,
        "deviceEnclosure": false,
        "deviceNeighbor": false,
        "deviceApproach": false,
        "label": "chord-tone"
      },
      {
        "midi": 70,
        "duration": 1,
        "velocity": 114,
        "position": 8,
        "beatPosition": 0,
        "isDownbeat": true,
        "prevInterval": 4,
        "nextInterval": -2,
        "chordRoot": 3,
        "isMinor": true,
        "isDominant": true,
        "isMajor": false,
        "isChordTone": true,
        "isScaleStep": false,
        "isChromatic": false,
        "deviceArpeggio": false,
        "deviceEnclosure": false,
        "deviceNeighbor": false,
        "deviceApproach": false,
        "label": "chord-tone"
      },
      {
        "midi": 68,
        "duration": 1,
        "velocity": 114,
        "position": 9,
        "beatPosition": 1,
        "isDownbeat": false,
        "prevInterval": -2,
        "nextInterval": -2,
        "chordRoot": 3,
        "isMinor": true,
        "isDominant": true,
        "isMajor": false,
        "isChordTone": false,
        "isScaleStep": true,
        "isChromatic": false,
        "deviceArpeggio": false,
        "deviceEnclosure": false,
        "deviceNeighbor": false,
        "deviceApproach": false,
        "label": "scale-step"
      },
      {
        "midi": 66,
        "duration": 1,
        "velocity": 114,
        "position": 10,
        "beatPosition": 2,
        "isDownbeat": false,
        "prevInterval": -2,
        "nextInterval": -1,
        "chordRoot": 3,
        "isMinor": true,
        "isDominant": true,
        "isMajor": false,
        "isChordTone": true,
        "isScaleStep": false,
        "isChromatic": false,
        "deviceArpeggio": false,
        "deviceEnclosure": false,
        "deviceNeighbor": false,
        "deviceApproach": false,
        "label": "chord-tone"
      },
      {
        "midi": 65,
        "duration": 1,
        "velocity": 114,
        "position": 11,
        "beatPosition": 3,
        "isDownbeat": false,
        "prevInterval": -1,
        "nextInterval": 1,
        "chordRoot": 3,
        "isMinor": true,
        "isDominant": true,
        "isMajor": false,
        "isChordTone": false,
        "isScaleStep": true,
        "isChromatic": false,
        "deviceArpeggio": false,
        "deviceEnclosure": false,
        "deviceNeighbor": false,
        "deviceApproach": false,
        "label": "scale-step"
      },
      {
        "midi": 66,
        "duration": 1,
        "velocity": 114,
        "position": 12,
        "beatPosition": 4,
        "isDownbeat": false,
        "prevInterval": 1,
        "nextInterval": 0,
        "chordRoot": 3,
        "isMinor": true,
        "isDominant": true,
        "isMajor": false,
        "isChordTone": true,
        "isScaleStep": false,
        "isChromatic": false,
        "deviceArpeggio": false,
        "deviceEnclosure": false,
        "deviceNeighbor": false,
        "deviceApproach": false,
        "label": "chord-tone"
      },
      {
        "midi": 66,
        "duration": 1,
        "velocity": 114,
        "position": 13,
        "beatPosition": 5,
        "isDownbeat": false,
        "prevInterval": 0,
        "nextInterval": -1,
        "chordRoot": 3,
        "isMinor": true,
        "isDominant": true,
        "isMajor": false,
        "isChordTone": true,
        "isScaleStep": false,
        "isChromatic": false,
        "deviceArpeggio": false,
        "deviceEnclosure": false,
        "deviceNeighbor": false,
        "deviceApproach": false,
        "label": "chord-tone"
      },
      {
        "midi": 65,
        "duration": 1,
        "velocity": 114,
        "position": 14,
        "beatPosition": 6,
        "isDownbeat": false,
        "prevInterval": -1,
        "nextInterval": 1,
        "chordRoot": 3,
        "isMinor": true,
        "isDominant": true,
        "isMajor": false,
        "isChordTone": false,
        "isScaleStep": true,
        "isChromatic": false,
        "deviceArpeggio": false,
        "deviceEnclosure": false,
        "deviceNeighbor": false,
        "deviceApproach": false,
        "label": "scale-step"
      },
      {
        "midi": 66,
        "duration": 1,
        "velocity": 114,
        "position": 15,
        "beatPosition": 7,
        "isDownbeat": false,
        "prevInterval": 1,
        "nextInterval": 2,
        "chordRoot": 3,
        "isMinor": true,
        "isDominant": true,
        "isMajor": false,
        "isChordTone": true,
        "isScaleStep": false,
        "isChromatic": false,
        "deviceArpeggio": false,
        "deviceEnclosure": false,
        "deviceNeighbor": false,
        "deviceApproach": false,
        "label": "chord-tone"
      },
      {
        "midi": 68,
        "duration": 1,
        "velocity": 114,
        "position": 16,
        "beatPosition": 0,
        "isDownbeat": true,
        "prevInterval": 2,
        "nextInterval": 2,
        "chordRoot": 8,
        "isMinor": true,
        "isDominant": true,
        "isMajor": false,
        "isChordTone": true,
        "isScaleStep": false,
        "isChromatic": false,
        "deviceArpeggio": false,
        "deviceEnclosure": true,
        "deviceNeighbor": false,
        "deviceApproach": false,
        "label": "chord-tone"
      },
      {
        "midi": 70,
        "duration": 1,
        "velocity": 114,
        "position": 17,
        "beatPosition": 1,
        "isDownbeat": false,
        "prevInterval": 2,
        "nextInterval": 3,
        "chordRoot": 8,
        "isMinor": true,
        "isDominant": true,
        "isMajor": false,
        "isChordTone": false,
        "isScaleStep": true,
        "isChromatic": false,
        "deviceArpeggio": false,
        "deviceEnclosure": true,
        "deviceNeighbor": false,
        "deviceApproach": false,
        "label": "scale-step"
      },
      {
        "midi": 73,
        "duration": 1,
        "velocity": 114,
        "position": 18,
        "beatPosition": 2,
        "isDownbeat": false,
        "prevInterval": 3,
        "nextInterval": -3,
        "chordRoot": 8,
        "isMinor": true,
        "isDominant": true,
        "isMajor": false,
        "isChordTone": false,
        "isScaleStep": true,
        "isChromatic": false,
        "deviceArpeggio": false,
        "deviceEnclosure": true,
        "deviceNeighbor": false,
        "deviceApproach": false,
        "label": "scale-step"
      },
      {
        "midi": 70,
        "duration": 1,
        "velocity": 114,
        "position": 19,
        "beatPosition": 3,
        "isDownbeat": false,
        "prevInterval": -3,
        "nextInterval": 1,
        "chordRoot": 8,
        "isMinor": true,
        "isDominant": true,
        "isMajor": false,
        "isChordTone": false,
        "isScaleStep": false,
        "isChromatic": true,
        "deviceArpeggio": false,
        "deviceEnclosure": true,
        "deviceNeighbor": false,
        "deviceApproach": false,
        "label": "chromatic"
      },
      {
        "midi": 71,
        "duration": 1,
        "velocity": 114,
        "position": 20,
        "beatPosition": 4,
        "isDownbeat": false,
        "prevInterval": 1,
        "nextInterval": -1,
        "chordRoot": 8,
        "isMinor": true,
        "isDominant": true,
        "isMajor": false,
        "isChordTone": true,
        "isScaleStep": false,
        "isChromatic": false,
        "deviceArpeggio": false,
        "deviceEnclosure": true,
        "deviceNeighbor": false,
        "deviceApproach": false,
        "label": "chord-tone"
      },
      {
        "midi": 70,
        "duration": 1,
        "velocity": 114,
        "position": 21,
        "beatPosition": 5,
        "isDownbeat": false,
        "prevInterval": -1,
        "nextInterval": -3,
        "chordRoot": 8,
        "isMinor": true,
        "isDominant": true,
        "isMajor": false,
        "isChordTone": false,
        "isScaleStep": true,
        "isChromatic": false,
        "deviceArpeggio": false,
        "deviceEnclosure": true,
        "deviceNeighbor": false,
        "deviceApproach": false,
        "label": "scale-step"
      },
      {
        "midi": 67,
        "duration": 1,
        "velocity": 114,
        "position": 22,
        "beatPosition": 6,
        "isDownbeat": false,
        "prevInterval": -3,
        "nextInterval": 3,
        "chordRoot": 8,
        "isMinor": true,
        "isDominant": true,
        "isMajor": false,
        "isChordTone": false,
        "isScaleStep": false,
        "isChromatic": true,
        "deviceArpeggio": false,
        "deviceEnclosure": true,
        "deviceNeighbor": false,
        "deviceApproach": false,
        "label": "chromatic"
      },
      {
        "midi": 70,
        "duration": 1,
        "velocity": 114,
        "position": 23,
        "beatPosition": 7,
        "isDownbeat": false,
        "prevInterval": 3,
        "nextInterval": -2,
        "chordRoot": 8,
        "isMinor": true,
        "isDominant": true,
        "isMajor": false,
        "isChordTone": false,
        "isScaleStep": true,
        "isChromatic": false,
        "deviceArpeggio": false,
        "deviceEnclosure": true,
        "deviceNeighbor": false,
        "deviceApproach": false,
        "label": "scale-step"
      },
      {
        "midi": 68,
        "duration": 1,
        "velocity": 114,
        "position": 24,
        "beatPosition": 0,
        "isDownbeat": true,
        "prevInterval": -2,
        "nextInterval": -3,
        "chordRoot": 1,
        "isMinor": false,
        "isDominant": true,
        "isMajor": false,
        "isChordTone": true,
        "isScaleStep": false,
        "isChromatic": false,
        "deviceArpeggio": true,
        "deviceEnclosure": false,
        "deviceNeighbor": false,
        "deviceApproach": false,
        "label": "chord-tone"
      },
      {
        "midi": 65,
        "duration": 1,
        "velocity": 114,
        "position": 25,
        "beatPosition": 1,
        "isDownbeat": false,
        "prevInterval": -3,
        "nextInterval": -4,
        "chordRoot": 1,
        "isMinor": false,
        "isDominant": true,
        "isMajor": false,
        "isChordTone": true,
        "isScaleStep": false,
        "isChromatic": false,
        "deviceArpeggio": true,
        "deviceEnclosure": false,
        "deviceNeighbor": false,
        "deviceApproach": false,
        "label": "chord-tone"
      },
      {
        "midi": 61,
        "duration": 1,
        "velocity": 114,
        "position": 26,
        "beatPosition": 2,
        "isDownbeat": false,
        "prevInterval": -4,
        "nextInterval": 10,
        "chordRoot": 1,
        "isMinor": false,
        "isDominant": true,
        "isMajor": false,
        "isChordTone": true,
        "isScaleStep": false,
        "isChromatic": false,
        "deviceArpeggio": true,
        "deviceEnclosure": false,
        "deviceNeighbor": false,
        "deviceApproach": false,
        "label": "chord-tone"
      },
      {
        "midi": 71,
        "duration": 1,
        "velocity": 114,
        "position": 27,
        "beatPosition": 3,
        "isDownbeat": false,
        "prevInterval": 10,
        "nextInterval": -3,
        "chordRoot": 1,
        "isMinor": false,
        "isDominant": true,
        "isMajor": false,
        "isChordTone": true,
        "isScaleStep": false,
        "isChromatic": false,
        "deviceArpeggio": true,
        "deviceEnclosure": false,
        "deviceNeighbor": false,
        "deviceApproach": false,
        "label": "chord-tone"
      },
      {
        "midi": 68,
        "duration": 1,
        "velocity": 114,
        "position": 28,
        "beatPosition": 4,
        "isDownbeat": false,
        "prevInterval": -3,
        "nextInterval": -3,
        "chordRoot": 1,
        "isMinor": false,
        "isDominant": true,
        "isMajor": false,
        "isChordTone": true,
        "isScaleStep": false,
        "isChromatic": false,
        "deviceArpeggio": true,
        "deviceEnclosure": false,
        "deviceNeighbor": false,
        "deviceApproach": false,
        "label": "chord-tone"
      },
      {
        "midi": 65,
        "duration": 1,
        "velocity": 114,
        "position": 29,
        "beatPosition": 5,
        "isDownbeat": false,
        "prevInterval": -3,
        "nextInterval": -4,
        "chordRoot": 1,
        "isMinor": false,
        "isDominant": true,
        "isMajor": false,
        "isChordTone": true,
        "isScaleStep": false,
        "isChromatic": false,
        "deviceArpeggio": true,
        "deviceEnclosure": false,
        "deviceNeighbor": false,
        "deviceApproach": false,
        "label": "chord-tone"
      },
      {
        "midi": 61,
        "duration": 1,
        "velocity": 114,
        "position": 30,
        "beatPosition": 6,
        "isDownbeat": false,
        "prevInterval": -4,
        "nextInterval": 0,
        "chordRoot": 1,
        "isMinor": false,
        "isDominant": true,
        "isMajor": false,
        "isChordTone": true,
        "isScaleStep": false,
        "isChromatic": false,
        "deviceArpeggio": true,
        "deviceEnclosure": false,
        "deviceNeighbor": false,
        "deviceApproach": false,
        "label": "chord-tone"
      }
    ]
  },
  {
    "id": 1,
    "metadata": {
      "key": "D",
      "progressionType": "ii-V-I",
      "deviceStrategy": "enclosure-heavy",
      "swing": 0.3,
      "numNotes": 23,
      "duration": 11.5
    },
    "notes": [
      {
        "midi": 60,
        "noteName": "C4",
        "degree": "b7",
        "startBeat": 0,
        "durationBeats": 0.55,
        "velocity": 0.9,
        "ruleId": "chord-tone",
        "harmonicFunction": "chord-tone",
        "device": "arpeggio",
        "chordSymbol": "Dm7",
        "rootPc": 2,
        "quality": "m7",
        "scaleName": "dorian"
      },
      {
        "startBeat": 0.55,
        "durationBeats": 0.45,
        "midi": 62,
        "velocity": 0.9,
        "device": "arpeggio",
        "chordSymbol": "Dm7",
        "rootPc": 2,
        "quality": "m7",
        "scaleName": "dorian",
        "ruleId": "arpeggio",
        "harmonicFunction": "chord-tone",
        "noteName": "D4",
        "degree": "1"
      },
      {
        "startBeat": 1,
        "durationBeats": 0.55,
        "midi": 65,
        "velocity": 0.9,
        "device": "arpeggio",
        "chordSymbol": "Dm7",
        "rootPc": 2,
        "quality": "m7",
        "scaleName": "dorian",
        "ruleId": "arpeggio",
        "harmonicFunction": "chord-tone",
        "noteName": "F4",
        "degree": "b3"
      },
      {
        "startBeat": 1.55,
        "durationBeats": 0.45,
        "midi": 69,
        "velocity": 0.9,
        "device": "arpeggio",
        "chordSymbol": "Dm7",
        "rootPc": 2,
        "quality": "m7",
        "scaleName": "dorian",
        "ruleId": "arpeggio",
        "harmonicFunction": "chord-tone",
        "noteName": "A4",
        "degree": "5"
      },
      {
        "startBeat": 2,
        "durationBeats": 0.55,
        "midi": 60,
        "velocity": 0.9,
        "device": "arpeggio",
        "chordSymbol": "Dm7",
        "rootPc": 2,
        "quality": "m7",
        "scaleName": "dorian",
        "ruleId": "arpeggio",
        "harmonicFunction": "chord-tone",
        "noteName": "C4",
        "degree": "b7"
      },
      {
        "startBeat": 2.55,
        "durationBeats": 0.45,
        "midi": 62,
        "velocity": 0.9,
        "device": "arpeggio",
        "chordSymbol": "Dm7",
        "rootPc": 2,
        "quality": "m7",
        "scaleName": "dorian",
        "ruleId": "arpeggio",
        "harmonicFunction": "chord-tone",
        "noteName": "D4",
        "degree": "1"
      },
      {
        "startBeat": 3,
        "durationBeats": 0.55,
        "midi": 71,
        "velocity": 0.9,
        "device": "arpeggio",
        "chordSymbol": "Dm7",
        "rootPc": 2,
        "quality": "m7",
        "scaleName": "dorian",
        "ruleId": "arpeggio",
        "harmonicFunction": "chord-tone",
        "noteName": "B4",
        "degree": "13"
      },
      {
        "startBeat": 3.55,
        "durationBeats": 0.45,
        "midi": 71,
        "velocity": 0.9,
        "device": "arpeggio",
        "chordSymbol": "Dm7",
        "rootPc": 2,
        "quality": "m7",
        "scaleName": "dorian",
        "ruleId": "arpeggio",
        "harmonicFunction": "chord-tone",
        "noteName": "B4",
        "degree": "13"
      },
      {
        "midi": 73,
        "noteName": "C#5",
        "degree": "3",
        "startBeat": 4,
        "durationBeats": 0.55,
        "velocity": 0.9,
        "ruleId": "chord-tone",
        "harmonicFunction": "chord-tone",
        "device": "arpeggio",
        "chordSymbol": "A7",
        "rootPc": 9,
        "quality": "7",
        "scaleName": "mixolydian"
      },
      {
        "startBeat": 4.55,
        "durationBeats": 0.45,
        "midi": 81,
        "velocity": 0.9,
        "device": "arpeggio",
        "chordSymbol": "A7",
        "rootPc": 9,
        "quality": "7",
        "scaleName": "mixolydian",
        "ruleId": "arpeggio",
        "harmonicFunction": "chord-tone",
        "noteName": "A5",
        "degree": "1"
      },
      {
        "startBeat": 5,
        "durationBeats": 0.55,
        "midi": 79,
        "velocity": 0.9,
        "device": "arpeggio",
        "chordSymbol": "A7",
        "rootPc": 9,
        "quality": "7",
        "scaleName": "mixolydian",
        "ruleId": "arpeggio",
        "harmonicFunction": "chord-tone",
        "noteName": "G5",
        "degree": "b7"
      },
      {
        "startBeat": 5.55,
        "durationBeats": 0.45,
        "midi": 76,
        "velocity": 0.9,
        "device": "arpeggio",
        "chordSymbol": "A7",
        "rootPc": 9,
        "quality": "7",
        "scaleName": "mixolydian",
        "ruleId": "arpeggio",
        "harmonicFunction": "chord-tone",
        "noteName": "E5",
        "degree": "5"
      },
      {
        "startBeat": 6,
        "durationBeats": 0.55,
        "midi": 73,
        "velocity": 0.9,
        "device": "arpeggio",
        "chordSymbol": "A7",
        "rootPc": 9,
        "quality": "7",
        "scaleName": "mixolydian",
        "ruleId": "arpeggio",
        "harmonicFunction": "chord-tone",
        "noteName": "C#5",
        "degree": "3"
      },
      {
        "startBeat": 6.55,
        "durationBeats": 0.45,
        "midi": 81,
        "velocity": 0.9,
        "device": "arpeggio",
        "chordSymbol": "A7",
        "rootPc": 9,
        "quality": "7",
        "scaleName": "mixolydian",
        "ruleId": "arpeggio",
        "harmonicFunction": "chord-tone",
        "noteName": "A5",
        "degree": "1"
      },
      {
        "startBeat": 7,
        "durationBeats": 0.55,
        "midi": 79,
        "velocity": 0.9,
        "device": "arpeggio",
        "chordSymbol": "A7",
        "rootPc": 9,
        "quality": "7",
        "scaleName": "mixolydian",
        "ruleId": "arpeggio",
        "harmonicFunction": "chord-tone",
        "noteName": "G5",
        "degree": "b7"
      },
      {
        "startBeat": 7.55,
        "durationBeats": 0.45,
        "midi": 79,
        "velocity": 0.9,
        "device": "arpeggio",
        "chordSymbol": "A7",
        "rootPc": 9,
        "quality": "7",
        "scaleName": "mixolydian",
        "ruleId": "arpeggio",
        "harmonicFunction": "chord-tone",
        "noteName": "G5",
        "degree": "b7"
      },
      {
        "midi": 78,
        "noteName": "F#5",
        "degree": "3",
        "startBeat": 8,
        "durationBeats": 0.55,
        "velocity": 0.9,
        "ruleId": "chord-tone",
        "harmonicFunction": "chord-tone",
        "device": "arpeggio",
        "chordSymbol": "Dmaj7",
        "rootPc": 2,
        "quality": "maj7",
        "scaleName": "ionian"
      },
      {
        "startBeat": 8.55,
        "durationBeats": 0.45,
        "midi": 74,
        "velocity": 0.9,
        "device": "arpeggio",
        "chordSymbol": "Dmaj7",
        "rootPc": 2,
        "quality": "maj7",
        "scaleName": "ionian",
        "ruleId": "arpeggio",
        "harmonicFunction": "chord-tone",
        "noteName": "D5",
        "degree": "1"
      },
      {
        "startBeat": 9,
        "durationBeats": 0.55,
        "midi": 73,
        "velocity": 0.9,
        "device": "arpeggio",
        "chordSymbol": "Dmaj7",
        "rootPc": 2,
        "quality": "maj7",
        "scaleName": "ionian",
        "ruleId": "arpeggio",
        "harmonicFunction": "chord-tone",
        "noteName": "C#5",
        "degree": "7"
      },
      {
        "startBeat": 9.55,
        "durationBeats": 0.45,
        "midi": 81,
        "velocity": 0.9,
        "device": "arpeggio",
        "chordSymbol": "Dmaj7",
        "rootPc": 2,
        "quality": "maj7",
        "scaleName": "ionian",
        "ruleId": "arpeggio",
        "harmonicFunction": "chord-tone",
        "noteName": "A5",
        "degree": "5"
      },
      {
        "startBeat": 10,
        "durationBeats": 0.55,
        "midi": 78,
        "velocity": 0.9,
        "device": "arpeggio",
        "chordSymbol": "Dmaj7",
        "rootPc": 2,
        "quality": "maj7",
        "scaleName": "ionian",
        "ruleId": "arpeggio",
        "harmonicFunction": "chord-tone",
        "noteName": "F#5",
        "degree": "3"
      },
      {
        "startBeat": 10.55,
        "durationBeats": 0.45,
        "midi": 74,
        "velocity": 0.9,
        "device": "arpeggio",
        "chordSymbol": "Dmaj7",
        "rootPc": 2,
        "quality": "maj7",
        "scaleName": "ionian",
        "ruleId": "arpeggio",
        "harmonicFunction": "chord-tone",
        "noteName": "D5",
        "degree": "1"
      },
      {
        "startBeat": 11,
        "durationBeats": 0.5,
        "midi": 73,
        "velocity": 0.9,
        "device": "arpeggio",
        "chordSymbol": "Dmaj7",
        "rootPc": 2,
        "quality": "maj7",
        "scaleName": "ionian",
        "ruleId": "arpeggio",
        "harmonicFunction": "chord-tone",
        "noteName": "C#5",
        "degree": "7"
      }
    ],
    "tokens": [
      {
        "midi": 60,
        "duration": 1,
        "velocity": 114,
        "degree": "b7",
        "harmonicFunction": "chord-tone",
        "device": "arpeggio",
        "chordRoot": 2,
        "chordQuality": "m7",
        "scale": "dorian"
      },
      {
        "midi": 62,
        "duration": 1,
        "velocity": 114,
        "degree": "1",
        "harmonicFunction": "chord-tone",
        "device": "arpeggio",
        "chordRoot": 2,
        "chordQuality": "m7",
        "scale": "dorian"
      },
      {
        "midi": 65,
        "duration": 1,
        "velocity": 114,
        "degree": "b3",
        "harmonicFunction": "chord-tone",
        "device": "arpeggio",
        "chordRoot": 2,
        "chordQuality": "m7",
        "scale": "dorian"
      },
      {
        "midi": 69,
        "duration": 1,
        "velocity": 114,
        "degree": "5",
        "harmonicFunction": "chord-tone",
        "device": "arpeggio",
        "chordRoot": 2,
        "chordQuality": "m7",
        "scale": "dorian"
      },
      {
        "midi": 60,
        "duration": 1,
        "velocity": 114,
        "degree": "b7",
        "harmonicFunction": "chord-tone",
        "device": "arpeggio",
        "chordRoot": 2,
        "chordQuality": "m7",
        "scale": "dorian"
      },
      {
        "midi": 62,
        "duration": 1,
        "velocity": 114,
        "degree": "1",
        "harmonicFunction": "chord-tone",
        "device": "arpeggio",
        "chordRoot": 2,
        "chordQuality": "m7",
        "scale": "dorian"
      },
      {
        "midi": 71,
        "duration": 1,
        "velocity": 114,
        "degree": "13",
        "harmonicFunction": "chord-tone",
        "device": "arpeggio",
        "chordRoot": 2,
        "chordQuality": "m7",
        "scale": "dorian"
      },
      {
        "midi": 71,
        "duration": 1,
        "velocity": 114,
        "degree": "13",
        "harmonicFunction": "chord-tone",
        "device": "arpeggio",
        "chordRoot": 2,
        "chordQuality": "m7",
        "scale": "dorian"
      },
      {
        "midi": 73,
        "duration": 1,
        "velocity": 114,
        "degree": "3",
        "harmonicFunction": "chord-tone",
        "device": "arpeggio",
        "chordRoot": 9,
        "chordQuality": "7",
        "scale": "mixolydian"
      },
      {
        "midi": 81,
        "duration": 1,
        "velocity": 114,
        "degree": "1",
        "harmonicFunction": "chord-tone",
        "device": "arpeggio",
        "chordRoot": 9,
        "chordQuality": "7",
        "scale": "mixolydian"
      },
      {
        "midi": 79,
        "duration": 1,
        "velocity": 114,
        "degree": "b7",
        "harmonicFunction": "chord-tone",
        "device": "arpeggio",
        "chordRoot": 9,
        "chordQuality": "7",
        "scale": "mixolydian"
      },
      {
        "midi": 76,
        "duration": 1,
        "velocity": 114,
        "degree": "5",
        "harmonicFunction": "chord-tone",
        "device": "arpeggio",
        "chordRoot": 9,
        "chordQuality": "7",
        "scale": "mixolydian"
      },
      {
        "midi": 73,
        "duration": 1,
        "velocity": 114,
        "degree": "3",
        "harmonicFunction": "chord-tone",
        "device": "arpeggio",
        "chordRoot": 9,
        "chordQuality": "7",
        "scale": "mixolydian"
      },
      {
        "midi": 81,
        "duration": 1,
        "velocity": 114,
        "degree": "1",
        "harmonicFunction": "chord-tone",
        "device": "arpeggio",
        "chordRoot": 9,
        "chordQuality": "7",
        "scale": "mixolydian"
      },
      {
        "midi": 79,
        "duration": 1,
        "velocity": 114,
        "degree": "b7",
        "harmonicFunction": "chord-tone",
        "device": "arpeggio",
        "chordRoot": 9,
        "chordQuality": "7",
        "scale": "mixolydian"
      },
      {
        "midi": 79,
        "duration": 1,
        "velocity": 114,
        "degree": "b7",
        "harmonicFunction": "chord-tone",
        "device": "arpeggio",
        "chordRoot": 9,
        "chordQuality": "7",
        "scale": "mixolydian"
      },
      {
        "midi": 78,
        "duration": 1,
        "velocity": 114,
        "degree": "3",
        "harmonicFunction": "chord-tone",
        "device": "arpeggio",
        "chordRoot": 2,
        "chordQuality": "maj7",
        "scale": "ionian"
      },
      {
        "midi": 74,
        "duration": 1,
        "velocity": 114,
        "degree": "1",
        "harmonicFunction": "chord-tone",
        "device": "arpeggio",
        "chordRoot": 2,
        "chordQuality": "maj7",
        "scale": "ionian"
      },
      {
        "midi": 73,
        "duration": 1,
        "velocity": 114,
        "degree": "7",
        "harmonicFunction": "chord-tone",
        "device": "arpeggio",
        "chordRoot": 2,
        "chordQuality": "maj7",
        "scale": "ionian"
      },
      {
        "midi": 81,
        "duration": 1,
        "velocity": 114,
        "degree": "5",
        "harmonicFunction": "chord-tone",
        "device": "arpeggio",
        "chordRoot": 2,
        "chordQuality": "maj7",
        "scale": "ionian"
      },
      {
        "midi": 78,
        "duration": 1,
        "velocity": 114,
        "degree": "3",
        "harmonicFunction": "chord-tone",
        "device": "arpeggio",
        "chordRoot": 2,
        "chordQuality": "maj7",
        "scale": "ionian"
      },
      {
        "midi": 74,
        "duration": 1,
        "velocity": 114,
        "degree": "1",
        "harmonicFunction": "chord-tone",
        "device": "arpeggio",
        "chordRoot": 2,
        "chordQuality": "maj7",
        "scale": "ionian"
      },
      {
        "midi": 73,
        "duration": 1,
        "velocity": 114,
        "degree": "7",
        "harmonicFunction": "chord-tone",
        "device": "arpeggio",
        "chordRoot": 2,
        "chordQuality": "maj7",
        "scale": "ionian"
      }
    ],
    "sequences": {
      "midi": [
        60,
        62,
        65,
        69,
        60,
        62,
        71,
        71,
        73,
        81,
        79,
        76,
        73,
        81,
        79,
        79,
        78,
        74,
        73,
        81,
        78,
        74,
        73
      ],
      "intervals": [
        0,
        2,
        3,
        4,
        -9,
        2,
        9,
        0,
        2,
        8,
        -2,
        -3,
        -3,
        8,
        -2,
        0,
        -1,
        -4,
        -1,
        8,
        -3,
        -4,
        -1
      ],
      "degrees": [
        7,
        1,
        3,
        5,
        7,
        1,
        6,
        6,
        3,
        1,
        7,
        5,
        3,
        1,
        7,
        7,
        3,
        1,
        7,
        5,
        3,
        1,
        7
      ]
    },
    "features": [
      {
        "midi": 60,
        "duration": 1,
        "velocity": 114,
        "position": 0,
        "beatPosition": 0,
        "isDownbeat": true,
        "prevInterval": 0,
        "nextInterval": 2,
        "chordRoot": 2,
        "isMinor": true,
        "isDominant": true,
        "isMajor": false,
        "isChordTone": true,
        "isScaleStep": false,
        "isChromatic": false,
        "deviceArpeggio": true,
        "deviceEnclosure": false,
        "deviceNeighbor": false,
        "deviceApproach": false,
        "label": "chord-tone"
      },
      {
        "midi": 62,
        "duration": 1,
        "velocity": 114,
        "position": 1,
        "beatPosition": 1,
        "isDownbeat": false,
        "prevInterval": 2,
        "nextInterval": 3,
        "chordRoot": 2,
        "isMinor": true,
        "isDominant": true,
        "isMajor": false,
        "isChordTone": true,
        "isScaleStep": false,
        "isChromatic": false,
        "deviceArpeggio": true,
        "deviceEnclosure": false,
        "deviceNeighbor": false,
        "deviceApproach": false,
        "label": "chord-tone"
      },
      {
        "midi": 65,
        "duration": 1,
        "velocity": 114,
        "position": 2,
        "beatPosition": 2,
        "isDownbeat": false,
        "prevInterval": 3,
        "nextInterval": 4,
        "chordRoot": 2,
        "isMinor": true,
        "isDominant": true,
        "isMajor": false,
        "isChordTone": true,
        "isScaleStep": false,
        "isChromatic": false,
        "deviceArpeggio": true,
        "deviceEnclosure": false,
        "deviceNeighbor": false,
        "deviceApproach": false,
        "label": "chord-tone"
      },
      {
        "midi": 69,
        "duration": 1,
        "velocity": 114,
        "position": 3,
        "beatPosition": 3,
        "isDownbeat": false,
        "prevInterval": 4,
        "nextInterval": -9,
        "chordRoot": 2,
        "isMinor": true,
        "isDominant": true,
        "isMajor": false,
        "isChordTone": true,
        "isScaleStep": false,
        "isChromatic": false,
        "deviceArpeggio": true,
        "deviceEnclosure": false,
        "deviceNeighbor": false,
        "deviceApproach": false,
        "label": "chord-tone"
      },
      {
        "midi": 60,
        "duration": 1,
        "velocity": 114,
        "position": 4,
        "beatPosition": 4,
        "isDownbeat": false,
        "prevInterval": -9,
        "nextInterval": 2,
        "chordRoot": 2,
        "isMinor": true,
        "isDominant": true,
        "isMajor": false,
        "isChordTone": true,
        "isScaleStep": false,
        "isChromatic": false,
        "deviceArpeggio": true,
        "deviceEnclosure": false,
        "deviceNeighbor": false,
        "deviceApproach": false,
        "label": "chord-tone"
      },
      {
        "midi": 62,
        "duration": 1,
        "velocity": 114,
        "position": 5,
        "beatPosition": 5,
        "isDownbeat": false,
        "prevInterval": 2,
        "nextInterval": 9,
        "chordRoot": 2,
        "isMinor": true,
        "isDominant": true,
        "isMajor": false,
        "isChordTone": true,
        "isScaleStep": false,
        "isChromatic": false,
        "deviceArpeggio": true,
        "deviceEnclosure": false,
        "deviceNeighbor": false,
        "deviceApproach": false,
        "label": "chord-tone"
      },
      {
        "midi": 71,
        "duration": 1,
        "velocity": 114,
        "position": 6,
        "beatPosition": 6,
        "isDownbeat": false,
        "prevInterval": 9,
        "nextInterval": 0,
        "chordRoot": 2,
        "isMinor": true,
        "isDominant": true,
        "isMajor": false,
        "isChordTone": true,
        "isScaleStep": false,
        "isChromatic": false,
        "deviceArpeggio": true,
        "deviceEnclosure": false,
        "deviceNeighbor": false,
        "deviceApproach": false,
        "label": "chord-tone"
      },
      {
        "midi": 71,
        "duration": 1,
        "velocity": 114,
        "position": 7,
        "beatPosition": 7,
        "isDownbeat": false,
        "prevInterval": 0,
        "nextInterval": 2,
        "chordRoot": 2,
        "isMinor": true,
        "isDominant": true,
        "isMajor": false,
        "isChordTone": true,
        "isScaleStep": false,
        "isChromatic": false,
        "deviceArpeggio": true,
        "deviceEnclosure": false,
        "deviceNeighbor": false,
        "deviceApproach": false,
        "label": "chord-tone"
      },
      {
        "midi": 73,
        "duration": 1,
        "velocity": 114,
        "position": 8,
        "beatPosition": 0,
        "isDownbeat": true,
        "prevInterval": 2,
        "nextInterval": 8,
        "chordRoot": 9,
        "isMinor": false,
        "isDominant": true,
        "isMajor": false,
        "isChordTone": true,
        "isScaleStep": false,
        "isChromatic": false,
        "deviceArpeggio": true,
        "deviceEnclosure": false,
        "deviceNeighbor": false,
        "deviceApproach": false,
        "label": "chord-tone"
      },
      {
        "midi": 81,
        "duration": 1,
        "velocity": 114,
        "position": 9,
        "beatPosition": 1,
        "isDownbeat": false,
        "prevInterval": 8,
        "nextInterval": -2,
        "chordRoot": 9,
        "isMinor": false,
        "isDominant": true,
        "isMajor": false,
        "isChordTone": true,
        "isScaleStep": false,
        "isChromatic": false,
        "deviceArpeggio": true,
        "deviceEnclosure": false,
        "deviceNeighbor": false,
        "deviceApproach": false,
        "label": "chord-tone"
      },
      {
        "midi": 79,
        "duration": 1,
        "velocity": 114,
        "position": 10,
        "beatPosition": 2,
        "isDownbeat": false,
        "prevInterval": -2,
        "nextInterval": -3,
        "chordRoot": 9,
        "isMinor": false,
        "isDominant": true,
        "isMajor": false,
        "isChordTone": true,
        "isScaleStep": false,
        "isChromatic": false,
        "deviceArpeggio": true,
        "deviceEnclosure": false,
        "deviceNeighbor": false,
        "deviceApproach": false,
        "label": "chord-tone"
      },
      {
        "midi": 76,
        "duration": 1,
        "velocity": 114,
        "position": 11,
        "beatPosition": 3,
        "isDownbeat": false,
        "prevInterval": -3,
        "nextInterval": -3,
        "chordRoot": 9,
        "isMinor": false,
        "isDominant": true,
        "isMajor": false,
        "isChordTone": true,
        "isScaleStep": false,
        "isChromatic": false,
        "deviceArpeggio": true,
        "deviceEnclosure": false,
        "deviceNeighbor": false,
        "deviceApproach": false,
        "label": "chord-tone"
      },
      {
        "midi": 73,
        "duration": 1,
        "velocity": 114,
        "position": 12,
        "beatPosition": 4,
        "isDownbeat": false,
        "prevInterval": -3,
        "nextInterval": 8,
        "chordRoot": 9,
        "isMinor": false,
        "isDominant": true,
        "isMajor": false,
        "isChordTone": true,
        "isScaleStep": false,
        "isChromatic": false,
        "deviceArpeggio": true,
        "deviceEnclosure": false,
        "deviceNeighbor": false,
        "deviceApproach": false,
        "label": "chord-tone"
      },
      {
        "midi": 81,
        "duration": 1,
        "velocity": 114,
        "position": 13,
        "beatPosition": 5,
        "isDownbeat": false,
        "prevInterval": 8,
        "nextInterval": -2,
        "chordRoot": 9,
        "isMinor": false,
        "isDominant": true,
        "isMajor": false,
        "isChordTone": true,
        "isScaleStep": false,
        "isChromatic": false,
        "deviceArpeggio": true,
        "deviceEnclosure": false,
        "deviceNeighbor": false,
        "deviceApproach": false,
        "label": "chord-tone"
      },
      {
        "midi": 79,
        "duration": 1,
        "velocity": 114,
        "position": 14,
        "beatPosition": 6,
        "isDownbeat": false,
        "prevInterval": -2,
        "nextInterval": 0,
        "chordRoot": 9,
        "isMinor": false,
        "isDominant": true,
        "isMajor": false,
        "isChordTone": true,
        "isScaleStep": false,
        "isChromatic": false,
        "deviceArpeggio": true,
        "deviceEnclosure": false,
        "deviceNeighbor": false,
        "deviceApproach": false,
        "label": "chord-tone"
      },
      {
        "midi": 79,
        "duration": 1,
        "velocity": 114,
        "position": 15,
        "beatPosition": 7,
        "isDownbeat": false,
        "prevInterval": 0,
        "nextInterval": -1,
        "chordRoot": 9,
        "isMinor": false,
        "isDominant": true,
        "isMajor": false,
        "isChordTone": true,
        "isScaleStep": false,
        "isChromatic": false,
        "deviceArpeggio": true,
        "deviceEnclosure": false,
        "deviceNeighbor": false,
        "deviceApproach": false,
        "label": "chord-tone"
      },
      {
        "midi": 78,
        "duration": 1,
        "velocity": 114,
        "position": 16,
        "beatPosition": 0,
        "isDownbeat": true,
        "prevInterval": -1,
        "nextInterval": -4,
        "chordRoot": 2,
        "isMinor": true,
        "isDominant": false,
        "isMajor": true,
        "isChordTone": true,
        "isScaleStep": false,
        "isChromatic": false,
        "deviceArpeggio": true,
        "deviceEnclosure": false,
        "deviceNeighbor": false,
        "deviceApproach": false,
        "label": "chord-tone"
      },
      {
        "midi": 74,
        "duration": 1,
        "velocity": 114,
        "position": 17,
        "beatPosition": 1,
        "isDownbeat": false,
        "prevInterval": -4,
        "nextInterval": -1,
        "chordRoot": 2,
        "isMinor": true,
        "isDominant": false,
        "isMajor": true,
        "isChordTone": true,
        "isScaleStep": false,
        "isChromatic": false,
        "deviceArpeggio": true,
        "deviceEnclosure": false,
        "deviceNeighbor": false,
        "deviceApproach": false,
        "label": "chord-tone"
      },
      {
        "midi": 73,
        "duration": 1,
        "velocity": 114,
        "position": 18,
        "beatPosition": 2,
        "isDownbeat": false,
        "prevInterval": -1,
        "nextInterval": 8,
        "chordRoot": 2,
        "isMinor": true,
        "isDominant": false,
        "isMajor": true,
        "isChordTone": true,
        "isScaleStep": false,
        "isChromatic": false,
        "deviceArpeggio": true,
        "deviceEnclosure": false,
        "deviceNeighbor": false,
        "deviceApproach": false,
        "label": "chord-tone"
      },
      {
        "midi": 81,
        "duration": 1,
        "velocity": 114,
        "position": 19,
        "beatPosition": 3,
        "isDownbeat": false,
        "prevInterval": 8,
        "nextInterval": -3,
        "chordRoot": 2,
        "isMinor": true,
        "isDominant": false,
        "isMajor": true,
        "isChordTone": true,
        "isScaleStep": false,
        "isChromatic": false,
        "deviceArpeggio": true,
        "deviceEnclosure": false,
        "deviceNeighbor": false,
        "deviceApproach": false,
        "label": "chord-tone"
      },
      {
        "midi": 78,
        "duration": 1,
        "velocity": 114,
        "position": 20,
        "beatPosition": 4,
        "isDownbeat": false,
        "prevInterval": -3,
        "nextInterval": -4,
        "chordRoot": 2,
        "isMinor": true,
        "isDominant": false,
        "isMajor": true,
        "isChordTone": true,
        "isScaleStep": false,
        "isChromatic": false,
        "deviceArpeggio": true,
        "deviceEnclosure": false,
        "deviceNeighbor": false,
        "deviceApproach": false,
        "label": "chord-tone"
      },
      {
        "midi": 74,
        "duration": 1,
        "velocity": 114,
        "position": 21,
        "beatPosition": 5,
        "isDownbeat": false,
        "prevInterval": -4,
        "nextInterval": -1,
        "chordRoot": 2,
        "isMinor": true,
        "isDominant": false,
        "isMajor": true,
        "isChordTone": true,
        "isScaleStep": false,
        "isChromatic": false,
        "deviceArpeggio": true,
        "deviceEnclosure": false,
        "deviceNeighbor": false,
        "deviceApproach": false,
        "label": "chord-tone"
      },
      {
        "midi": 73,
        "duration": 1,
        "velocity": 114,
        "position": 22,
        "beatPosition": 6,
        "isDownbeat": false,
        "prevInterval": -1,
        "nextInterval": 0,
        "chordRoot": 2,
        "isMinor": true,
        "isDominant": false,
        "isMajor": true,
        "isChordTone": true,
        "isScaleStep": false,
        "isChromatic": false,
        "deviceArpeggio": true,
        "deviceEnclosure": false,
        "deviceNeighbor": false,
        "deviceApproach": false,
        "label": "chord-tone"
      }
    ]
  },
  {
    "id": 2,
    "metadata": {
      "key": "Bb",
      "progressionType": "I-vi-ii-V",
      "deviceStrategy": "arpeggio-heavy",
      "swing": 0.3,
      "numNotes": 31,
      "duration": 15.5
    },
    "notes": [
      {
        "midi": 57,
        "noteName": "A3",
        "degree": "7",
        "startBeat": 0,
        "durationBeats": 0.55,
        "velocity": 0.9,
        "ruleId": "chord-tone",
        "harmonicFunction": "chord-tone",
        "device": "enclosure-target",
        "chordSymbol": "Bbmaj7",
        "rootPc": 10,
        "quality": "maj7",
        "scaleName": "ionian"
      },
      {
        "startBeat": 0.55,
        "durationBeats": 0.45,
        "midi": 55,
        "velocity": 0.9,
        "device": "enclosure-fill",
        "chordSymbol": "Bbmaj7",
        "rootPc": 10,
        "quality": "maj7",
        "scaleName": "ionian",
        "ruleId": "scale-step",
        "harmonicFunction": "scale-step",
        "noteName": "G3",
        "degree": "6"
      },
      {
        "startBeat": 1,
        "durationBeats": 0.55,
        "midi": 60,
        "velocity": 0.9,
        "device": "enclosure",
        "enclosureType": "upper",
        "chordSymbol": "Bbmaj7",
        "rootPc": 10,
        "quality": "maj7",
        "scaleName": "ionian",
        "ruleId": "enclosure",
        "harmonicFunction": "scale-step",
        "noteName": "C4",
        "degree": "2"
      },
      {
        "startBeat": 1.55,
        "durationBeats": 0.45,
        "midi": 57,
        "velocity": 0.9,
        "device": "enclosure",
        "enclosureType": "lower",
        "chordSymbol": "Bbmaj7",
        "rootPc": 10,
        "quality": "maj7",
        "scaleName": "ionian",
        "ruleId": "enclosure",
        "harmonicFunction": "chord-tone",
        "noteName": "A3",
        "degree": "7"
      },
      {
        "startBeat": 2,
        "durationBeats": 0.55,
        "midi": 58,
        "velocity": 0.9,
        "device": "enclosure-target",
        "chordSymbol": "Bbmaj7",
        "rootPc": 10,
        "quality": "maj7",
        "scaleName": "ionian",
        "ruleId": "chord-tone",
        "harmonicFunction": "chord-tone",
        "noteName": "A#3",
        "degree": "1"
      },
      {
        "startBeat": 2.55,
        "durationBeats": 0.45,
        "midi": 57,
        "velocity": 0.9,
        "device": "enclosure-fill",
        "chordSymbol": "Bbmaj7",
        "rootPc": 10,
        "quality": "maj7",
        "scaleName": "ionian",
        "ruleId": "chord-tone",
        "harmonicFunction": "chord-tone",
        "noteName": "A3",
        "degree": "7"
      },
      {
        "startBeat": 3,
        "durationBeats": 0.55,
        "midi": 67,
        "velocity": 0.9,
        "device": "enclosure",
        "enclosureType": "upper",
        "chordSymbol": "Bbmaj7",
        "rootPc": 10,
        "quality": "maj7",
        "scaleName": "ionian",
        "ruleId": "enclosure",
        "harmonicFunction": "scale-step",
        "noteName": "G4",
        "degree": "6"
      },
      {
        "startBeat": 3.55,
        "durationBeats": 0.45,
        "midi": 64,
        "velocity": 0.9,
        "device": "enclosure",
        "enclosureType": "lower",
        "chordSymbol": "Bbmaj7",
        "rootPc": 10,
        "quality": "maj7",
        "scaleName": "ionian",
        "ruleId": "enclosure",
        "harmonicFunction": "chromatic",
        "noteName": "E4"
      },
      {
        "midi": 65,
        "noteName": "F4",
        "degree": "b7",
        "startBeat": 4,
        "durationBeats": 0.55,
        "velocity": 0.9,
        "ruleId": "chord-tone",
        "harmonicFunction": "chord-tone",
        "device": "enclosure-target",
        "chordSymbol": "Gm7",
        "rootPc": 7,
        "quality": "m7",
        "scaleName": "dorian"
      },
      {
        "startBeat": 4.55,
        "durationBeats": 0.45,
        "midi": 67,
        "velocity": 0.9,
        "device": "enclosure-fill",
        "chordSymbol": "Gm7",
        "rootPc": 7,
        "quality": "m7",
        "scaleName": "dorian",
        "ruleId": "chord-tone",
        "harmonicFunction": "chord-tone",
        "noteName": "G4",
        "degree": "1"
      },
      {
        "startBeat": 5,
        "durationBeats": 0.55,
        "midi": 69,
        "velocity": 0.9,
        "device": "enclosure",
        "enclosureType": "lower",
        "chordSymbol": "Gm7",
        "rootPc": 7,
        "quality": "m7",
        "scaleName": "dorian",
        "ruleId": "enclosure",
        "harmonicFunction": "chromatic",
        "noteName": "A4"
      },
      {
        "startBeat": 5.55,
        "durationBeats": 0.45,
        "midi": 72,
        "velocity": 0.9,
        "device": "enclosure",
        "enclosureType": "upper",
        "chordSymbol": "Gm7",
        "rootPc": 7,
        "quality": "m7",
        "scaleName": "dorian",
        "ruleId": "enclosure",
        "harmonicFunction": "scale-step",
        "noteName": "C5",
        "degree": "4"
      },
      {
        "startBeat": 6,
        "durationBeats": 0.55,
        "midi": 70,
        "velocity": 0.9,
        "device": "enclosure-target",
        "chordSymbol": "Gm7",
        "rootPc": 7,
        "quality": "m7",
        "scaleName": "dorian",
        "ruleId": "chord-tone",
        "harmonicFunction": "chord-tone",
        "noteName": "A#4",
        "degree": "b3"
      },
      {
        "startBeat": 6.55,
        "durationBeats": 0.45,
        "midi": 72,
        "velocity": 0.9,
        "device": "enclosure-fill",
        "chordSymbol": "Gm7",
        "rootPc": 7,
        "quality": "m7",
        "scaleName": "dorian",
        "ruleId": "scale-step",
        "harmonicFunction": "scale-step",
        "noteName": "C5",
        "degree": "4"
      },
      {
        "startBeat": 7,
        "durationBeats": 0.55,
        "midi": 69,
        "velocity": 0.9,
        "device": "enclosure",
        "enclosureType": "lower",
        "chordSymbol": "Gm7",
        "rootPc": 7,
        "quality": "m7",
        "scaleName": "dorian",
        "ruleId": "enclosure",
        "harmonicFunction": "chromatic",
        "noteName": "A4"
      },
      {
        "startBeat": 7.55,
        "durationBeats": 0.45,
        "midi": 72,
        "velocity": 0.9,
        "device": "enclosure",
        "enclosureType": "upper",
        "chordSymbol": "Gm7",
        "rootPc": 7,
        "quality": "m7",
        "scaleName": "dorian",
        "ruleId": "enclosure",
        "harmonicFunction": "scale-step",
        "noteName": "C5",
        "degree": "4"
      },
      {
        "midi": 70,
        "noteName": "A#4",
        "degree": "b7",
        "startBeat": 8,
        "durationBeats": 0.55,
        "velocity": 0.9,
        "ruleId": "chord-tone",
        "harmonicFunction": "chord-tone",
        "device": "scale-run",
        "chordSymbol": "Cm7",
        "rootPc": 0,
        "quality": "m7",
        "scaleName": "dorian"
      },
      {
        "startBeat": 8.55,
        "durationBeats": 0.45,
        "midi": 72,
        "velocity": 0.9,
        "device": "scale-run",
        "chordSymbol": "Cm7",
        "rootPc": 0,
        "quality": "m7",
        "scaleName": "dorian",
        "ruleId": "scale-run-chord-tone",
        "harmonicFunction": "chord-tone",
        "noteName": "C5",
        "degree": "1"
      },
      {
        "startBeat": 9,
        "durationBeats": 0.55,
        "midi": 74,
        "velocity": 0.9,
        "device": "scale-run",
        "chordSymbol": "Cm7",
        "rootPc": 0,
        "quality": "m7",
        "scaleName": "dorian",
        "ruleId": "scale-step",
        "harmonicFunction": "scale-step",
        "noteName": "D5",
        "degree": "2"
      },
      {
        "startBeat": 9.55,
        "durationBeats": 0.45,
        "midi": 75,
        "velocity": 0.9,
        "device": "scale-run",
        "chordSymbol": "Cm7",
        "rootPc": 0,
        "quality": "m7",
        "scaleName": "dorian",
        "ruleId": "scale-run-chord-tone",
        "harmonicFunction": "chord-tone",
        "noteName": "D#5",
        "degree": "b3"
      },
      {
        "startBeat": 10,
        "durationBeats": 0.55,
        "midi": 74,
        "velocity": 0.9,
        "device": "scale-run",
        "chordSymbol": "Cm7",
        "rootPc": 0,
        "quality": "m7",
        "scaleName": "dorian",
        "ruleId": "scale-step",
        "harmonicFunction": "scale-step",
        "noteName": "D5",
        "degree": "2"
      },
      {
        "startBeat": 10.55,
        "durationBeats": 0.45,
        "midi": 72,
        "velocity": 0.9,
        "device": "scale-run",
        "chordSymbol": "Cm7",
        "rootPc": 0,
        "quality": "m7",
        "scaleName": "dorian",
        "ruleId": "scale-run-chord-tone",
        "harmonicFunction": "chord-tone",
        "noteName": "C5",
        "degree": "1"
      },
      {
        "startBeat": 11,
        "durationBeats": 0.55,
        "midi": 70,
        "velocity": 0.9,
        "device": "scale-run",
        "chordSymbol": "Cm7",
        "rootPc": 0,
        "quality": "m7",
        "scaleName": "dorian",
        "ruleId": "scale-run-chord-tone",
        "harmonicFunction": "chord-tone",
        "noteName": "A#4",
        "degree": "b7"
      },
      {
        "startBeat": 11.55,
        "durationBeats": 0.45,
        "midi": 73,
        "velocity": 0.9,
        "device": "scale-run",
        "chordSymbol": "Cm7",
        "rootPc": 0,
        "quality": "m7",
        "scaleName": "dorian",
        "ruleId": "scale-step",
        "harmonicFunction": "scale-step",
        "noteName": "C#5"
      },
      {
        "midi": 69,
        "noteName": "A4",
        "degree": "3",
        "startBeat": 12,
        "durationBeats": 0.55,
        "velocity": 0.9,
        "ruleId": "chord-tone",
        "harmonicFunction": "chord-tone",
        "device": "arpeggio",
        "chordSymbol": "F7",
        "rootPc": 5,
        "quality": "7",
        "scaleName": "mixolydian"
      },
      {
        "startBeat": 12.55,
        "durationBeats": 0.45,
        "midi": 60,
        "velocity": 0.9,
        "device": "arpeggio",
        "chordSymbol": "F7",
        "rootPc": 5,
        "quality": "7",
        "scaleName": "mixolydian",
        "ruleId": "arpeggio",
        "harmonicFunction": "chord-tone",
        "noteName": "C4",
        "degree": "5"
      },
      {
        "startBeat": 13,
        "durationBeats": 0.55,
        "midi": 63,
        "velocity": 0.9,
        "device": "arpeggio",
        "chordSymbol": "F7",
        "rootPc": 5,
        "quality": "7",
        "scaleName": "mixolydian",
        "ruleId": "arpeggio",
        "harmonicFunction": "chord-tone",
        "noteName": "D#4",
        "degree": "b7"
      },
      {
        "startBeat": 13.55,
        "durationBeats": 0.45,
        "midi": 65,
        "velocity": 0.9,
        "device": "arpeggio",
        "chordSymbol": "F7",
        "rootPc": 5,
        "quality": "7",
        "scaleName": "mixolydian",
        "ruleId": "arpeggio",
        "harmonicFunction": "chord-tone",
        "noteName": "F4",
        "degree": "1"
      },
      {
        "startBeat": 14,
        "durationBeats": 0.55,
        "midi": 69,
        "velocity": 0.9,
        "device": "arpeggio",
        "chordSymbol": "F7",
        "rootPc": 5,
        "quality": "7",
        "scaleName": "mixolydian",
        "ruleId": "arpeggio",
        "harmonicFunction": "chord-tone",
        "noteName": "A4",
        "degree": "3"
      },
      {
        "startBeat": 14.55,
        "durationBeats": 0.45,
        "midi": 72,
        "velocity": 0.9,
        "device": "arpeggio",
        "chordSymbol": "F7",
        "rootPc": 5,
        "quality": "7",
        "scaleName": "mixolydian",
        "ruleId": "arpeggio",
        "harmonicFunction": "chord-tone",
        "noteName": "C5",
        "degree": "5"
      },
      {
        "startBeat": 15,
        "durationBeats": 0.5,
        "midi": 75,
        "velocity": 0.9,
        "device": "arpeggio",
        "chordSymbol": "F7",
        "rootPc": 5,
        "quality": "7",
        "scaleName": "mixolydian",
        "ruleId": "arpeggio",
        "harmonicFunction": "chord-tone",
        "noteName": "D#5",
        "degree": "b7"
      }
    ],
    "tokens": [
      {
        "midi": 57,
        "duration": 1,
        "velocity": 114,
        "degree": "7",
        "harmonicFunction": "chord-tone",
        "device": "enclosure-target",
        "chordRoot": 10,
        "chordQuality": "maj7",
        "scale": "ionian"
      },
      {
        "midi": 55,
        "duration": 1,
        "velocity": 114,
        "degree": "6",
        "harmonicFunction": "scale-step",
        "device": "enclosure-fill",
        "chordRoot": 10,
        "chordQuality": "maj7",
        "scale": "ionian"
      },
      {
        "midi": 60,
        "duration": 1,
        "velocity": 114,
        "degree": "2",
        "harmonicFunction": "scale-step",
        "device": "enclosure",
        "chordRoot": 10,
        "chordQuality": "maj7",
        "scale": "ionian"
      },
      {
        "midi": 57,
        "duration": 1,
        "velocity": 114,
        "degree": "7",
        "harmonicFunction": "chord-tone",
        "device": "enclosure",
        "chordRoot": 10,
        "chordQuality": "maj7",
        "scale": "ionian"
      },
      {
        "midi": 58,
        "duration": 1,
        "velocity": 114,
        "degree": "1",
        "harmonicFunction": "chord-tone",
        "device": "enclosure-target",
        "chordRoot": 10,
        "chordQuality": "maj7",
        "scale": "ionian"
      },
      {
        "midi": 57,
        "duration": 1,
        "velocity": 114,
        "degree": "7",
        "harmonicFunction": "chord-tone",
        "device": "enclosure-fill",
        "chordRoot": 10,
        "chordQuality": "maj7",
        "scale": "ionian"
      },
      {
        "midi": 67,
        "duration": 1,
        "velocity": 114,
        "degree": "6",
        "harmonicFunction": "scale-step",
        "device": "enclosure",
        "chordRoot": 10,
        "chordQuality": "maj7",
        "scale": "ionian"
      },
      {
        "midi": 64,
        "duration": 1,
        "velocity": 114,
        "degree": "X",
        "harmonicFunction": "chromatic",
        "device": "enclosure",
        "chordRoot": 10,
        "chordQuality": "maj7",
        "scale": "ionian"
      },
      {
        "midi": 65,
        "duration": 1,
        "velocity": 114,
        "degree": "b7",
        "harmonicFunction": "chord-tone",
        "device": "enclosure-target",
        "chordRoot": 7,
        "chordQuality": "m7",
        "scale": "dorian"
      },
      {
        "midi": 67,
        "duration": 1,
        "velocity": 114,
        "degree": "1",
        "harmonicFunction": "chord-tone",
        "device": "enclosure-fill",
        "chordRoot": 7,
        "chordQuality": "m7",
        "scale": "dorian"
      },
      {
        "midi": 69,
        "duration": 1,
        "velocity": 114,
        "degree": "X",
        "harmonicFunction": "chromatic",
        "device": "enclosure",
        "chordRoot": 7,
        "chordQuality": "m7",
        "scale": "dorian"
      },
      {
        "midi": 72,
        "duration": 1,
        "velocity": 114,
        "degree": "4",
        "harmonicFunction": "scale-step",
        "device": "enclosure",
        "chordRoot": 7,
        "chordQuality": "m7",
        "scale": "dorian"
      },
      {
        "midi": 70,
        "duration": 1,
        "velocity": 114,
        "degree": "b3",
        "harmonicFunction": "chord-tone",
        "device": "enclosure-target",
        "chordRoot": 7,
        "chordQuality": "m7",
        "scale": "dorian"
      },
      {
        "midi": 72,
        "duration": 1,
        "velocity": 114,
        "degree": "4",
        "harmonicFunction": "scale-step",
        "device": "enclosure-fill",
        "chordRoot": 7,
        "chordQuality": "m7",
        "scale": "dorian"
      },
      {
        "midi": 69,
        "duration": 1,
        "velocity": 114,
        "degree": "X",
        "harmonicFunction": "chromatic",
        "device": "enclosure",
        "chordRoot": 7,
        "chordQuality": "m7",
        "scale": "dorian"
      },
      {
        "midi": 72,
        "duration": 1,
        "velocity": 114,
        "degree": "4",
        "harmonicFunction": "scale-step",
        "device": "enclosure",
        "chordRoot": 7,
        "chordQuality": "m7",
        "scale": "dorian"
      },
      {
        "midi": 70,
        "duration": 1,
        "velocity": 114,
        "degree": "b7",
        "harmonicFunction": "chord-tone",
        "device": "scale-run",
        "chordRoot": 0,
        "chordQuality": "m7",
        "scale": "dorian"
      },
      {
        "midi": 72,
        "duration": 1,
        "velocity": 114,
        "degree": "1",
        "harmonicFunction": "chord-tone",
        "device": "scale-run",
        "chordRoot": 0,
        "chordQuality": "m7",
        "scale": "dorian"
      },
      {
        "midi": 74,
        "duration": 1,
        "velocity": 114,
        "degree": "2",
        "harmonicFunction": "scale-step",
        "device": "scale-run",
        "chordRoot": 0,
        "chordQuality": "m7",
        "scale": "dorian"
      },
      {
        "midi": 75,
        "duration": 1,
        "velocity": 114,
        "degree": "b3",
        "harmonicFunction": "chord-tone",
        "device": "scale-run",
        "chordRoot": 0,
        "chordQuality": "m7",
        "scale": "dorian"
      },
      {
        "midi": 74,
        "duration": 1,
        "velocity": 114,
        "degree": "2",
        "harmonicFunction": "scale-step",
        "device": "scale-run",
        "chordRoot": 0,
        "chordQuality": "m7",
        "scale": "dorian"
      },
      {
        "midi": 72,
        "duration": 1,
        "velocity": 114,
        "degree": "1",
        "harmonicFunction": "chord-tone",
        "device": "scale-run",
        "chordRoot": 0,
        "chordQuality": "m7",
        "scale": "dorian"
      },
      {
        "midi": 70,
        "duration": 1,
        "velocity": 114,
        "degree": "b7",
        "harmonicFunction": "chord-tone",
        "device": "scale-run",
        "chordRoot": 0,
        "chordQuality": "m7",
        "scale": "dorian"
      },
      {
        "midi": 73,
        "duration": 1,
        "velocity": 114,
        "degree": "X",
        "harmonicFunction": "scale-step",
        "device": "scale-run",
        "chordRoot": 0,
        "chordQuality": "m7",
        "scale": "dorian"
      },
      {
        "midi": 69,
        "duration": 1,
        "velocity": 114,
        "degree": "3",
        "harmonicFunction": "chord-tone",
        "device": "arpeggio",
        "chordRoot": 5,
        "chordQuality": "7",
        "scale": "mixolydian"
      },
      {
        "midi": 60,
        "duration": 1,
        "velocity": 114,
        "degree": "5",
        "harmonicFunction": "chord-tone",
        "device": "arpeggio",
        "chordRoot": 5,
        "chordQuality": "7",
        "scale": "mixolydian"
      },
      {
        "midi": 63,
        "duration": 1,
        "velocity": 114,
        "degree": "b7",
        "harmonicFunction": "chord-tone",
        "device": "arpeggio",
        "chordRoot": 5,
        "chordQuality": "7",
        "scale": "mixolydian"
      },
      {
        "midi": 65,
        "duration": 1,
        "velocity": 114,
        "degree": "1",
        "harmonicFunction": "chord-tone",
        "device": "arpeggio",
        "chordRoot": 5,
        "chordQuality": "7",
        "scale": "mixolydian"
      },
      {
        "midi": 69,
        "duration": 1,
        "velocity": 114,
        "degree": "3",
        "harmonicFunction": "chord-tone",
        "device": "arpeggio",
        "chordRoot": 5,
        "chordQuality": "7",
        "scale": "mixolydian"
      },
      {
        "midi": 72,
        "duration": 1,
        "velocity": 114,
        "degree": "5",
        "harmonicFunction": "chord-tone",
        "device": "arpeggio",
        "chordRoot": 5,
        "chordQuality": "7",
        "scale": "mixolydian"
      },
      {
        "midi": 75,
        "duration": 1,
        "velocity": 114,
        "degree": "b7",
        "harmonicFunction": "chord-tone",
        "device": "arpeggio",
        "chordRoot": 5,
        "chordQuality": "7",
        "scale": "mixolydian"
      }
    ],
    "sequences": {
      "midi": [
        57,
        55,
        60,
        57,
        58,
        57,
        67,
        64,
        65,
        67,
        69,
        72,
        70,
        72,
        69,
        72,
        70,
        72,
        74,
        75,
        74,
        72,
        70,
        73,
        69,
        60,
        63,
        65,
        69,
        72,
        75
      ],
      "intervals": [
        0,
        -2,
        5,
        -3,
        1,
        -1,
        10,
        -3,
        1,
        2,
        2,
        3,
        -2,
        2,
        -3,
        3,
        -2,
        2,
        2,
        1,
        -1,
        -2,
        -2,
        3,
        -4,
        -9,
        3,
        2,
        4,
        3,
        3
      ],
      "degrees": [
        7,
        0,
        2,
        7,
        1,
        7,
        0,
        0,
        7,
        1,
        0,
        4,
        3,
        4,
        0,
        4,
        7,
        1,
        2,
        3,
        2,
        1,
        7,
        0,
        3,
        5,
        7,
        1,
        3,
        5,
        7
      ]
    },
    "features": [
      {
        "midi": 57,
        "duration": 1,
        "velocity": 114,
        "position": 0,
        "beatPosition": 0,
        "isDownbeat": true,
        "prevInterval": 0,
        "nextInterval": -2,
        "chordRoot": 10,
        "isMinor": true,
        "isDominant": false,
        "isMajor": true,
        "isChordTone": true,
        "isScaleStep": false,
        "isChromatic": false,
        "deviceArpeggio": false,
        "deviceEnclosure": true,
        "deviceNeighbor": false,
        "deviceApproach": false,
        "label": "chord-tone"
      },
      {
        "midi": 55,
        "duration": 1,
        "velocity": 114,
        "position": 1,
        "beatPosition": 1,
        "isDownbeat": false,
        "prevInterval": -2,
        "nextInterval": 5,
        "chordRoot": 10,
        "isMinor": true,
        "isDominant": false,
        "isMajor": true,
        "isChordTone": false,
        "isScaleStep": true,
        "isChromatic": false,
        "deviceArpeggio": false,
        "deviceEnclosure": true,
        "deviceNeighbor": false,
        "deviceApproach": false,
        "label": "scale-step"
      },
      {
        "midi": 60,
        "duration": 1,
        "velocity": 114,
        "position": 2,
        "beatPosition": 2,
        "isDownbeat": false,
        "prevInterval": 5,
        "nextInterval": -3,
        "chordRoot": 10,
        "isMinor": true,
        "isDominant": false,
        "isMajor": true,
        "isChordTone": false,
        "isScaleStep": true,
        "isChromatic": false,
        "deviceArpeggio": false,
        "deviceEnclosure": true,
        "deviceNeighbor": false,
        "deviceApproach": false,
        "label": "scale-step"
      },
      {
        "midi": 57,
        "duration": 1,
        "velocity": 114,
        "position": 3,
        "beatPosition": 3,
        "isDownbeat": false,
        "prevInterval": -3,
        "nextInterval": 1,
        "chordRoot": 10,
        "isMinor": true,
        "isDominant": false,
        "isMajor": true,
        "isChordTone": true,
        "isScaleStep": false,
        "isChromatic": false,
        "deviceArpeggio": false,
        "deviceEnclosure": true,
        "deviceNeighbor": false,
        "deviceApproach": false,
        "label": "chord-tone"
      },
      {
        "midi": 58,
        "duration": 1,
        "velocity": 114,
        "position": 4,
        "beatPosition": 4,
        "isDownbeat": false,
        "prevInterval": 1,
        "nextInterval": -1,
        "chordRoot": 10,
        "isMinor": true,
        "isDominant": false,
        "isMajor": true,
        "isChordTone": true,
        "isScaleStep": false,
        "isChromatic": false,
        "deviceArpeggio": false,
        "deviceEnclosure": true,
        "deviceNeighbor": false,
        "deviceApproach": false,
        "label": "chord-tone"
      },
      {
        "midi": 57,
        "duration": 1,
        "velocity": 114,
        "position": 5,
        "beatPosition": 5,
        "isDownbeat": false,
        "prevInterval": -1,
        "nextInterval": 10,
        "chordRoot": 10,
        "isMinor": true,
        "isDominant": false,
        "isMajor": true,
        "isChordTone": true,
        "isScaleStep": false,
        "isChromatic": false,
        "deviceArpeggio": false,
        "deviceEnclosure": true,
        "deviceNeighbor": false,
        "deviceApproach": false,
        "label": "chord-tone"
      },
      {
        "midi": 67,
        "duration": 1,
        "velocity": 114,
        "position": 6,
        "beatPosition": 6,
        "isDownbeat": false,
        "prevInterval": 10,
        "nextInterval": -3,
        "chordRoot": 10,
        "isMinor": true,
        "isDominant": false,
        "isMajor": true,
        "isChordTone": false,
        "isScaleStep": true,
        "isChromatic": false,
        "deviceArpeggio": false,
        "deviceEnclosure": true,
        "deviceNeighbor": false,
        "deviceApproach": false,
        "label": "scale-step"
      },
      {
        "midi": 64,
        "duration": 1,
        "velocity": 114,
        "position": 7,
        "beatPosition": 7,
        "isDownbeat": false,
        "prevInterval": -3,
        "nextInterval": 1,
        "chordRoot": 10,
        "isMinor": true,
        "isDominant": false,
        "isMajor": true,
        "isChordTone": false,
        "isScaleStep": false,
        "isChromatic": true,
        "deviceArpeggio": false,
        "deviceEnclosure": true,
        "deviceNeighbor": false,
        "deviceApproach": false,
        "label": "chromatic"
      },
      {
        "midi": 65,
        "duration": 1,
        "velocity": 114,
        "position": 8,
        "beatPosition": 0,
        "isDownbeat": true,
        "prevInterval": 1,
        "nextInterval": 2,
        "chordRoot": 7,
        "isMinor": true,
        "isDominant": true,
        "isMajor": false,
        "isChordTone": true,
        "isScaleStep": false,
        "isChromatic": false,
        "deviceArpeggio": false,
        "deviceEnclosure": true,
        "deviceNeighbor": false,
        "deviceApproach": false,
        "label": "chord-tone"
      },
      {
        "midi": 67,
        "duration": 1,
        "velocity": 114,
        "position": 9,
        "beatPosition": 1,
        "isDownbeat": false,
        "prevInterval": 2,
        "nextInterval": 2,
        "chordRoot": 7,
        "isMinor": true,
        "isDominant": true,
        "isMajor": false,
        "isChordTone": true,
        "isScaleStep": false,
        "isChromatic": false,
        "deviceArpeggio": false,
        "deviceEnclosure": true,
        "deviceNeighbor": false,
        "deviceApproach": false,
        "label": "chord-tone"
      },
      {
        "midi": 69,
        "duration": 1,
        "velocity": 114,
        "position": 10,
        "beatPosition": 2,
        "isDownbeat": false,
        "prevInterval": 2,
        "nextInterval": 3,
        "chordRoot": 7,
        "isMinor": true,
        "isDominant": true,
        "isMajor": false,
        "isChordTone": false,
        "isScaleStep": false,
        "isChromatic": true,
        "deviceArpeggio": false,
        "deviceEnclosure": true,
        "deviceNeighbor": false,
        "deviceApproach": false,
        "label": "chromatic"
      },
      {
        "midi": 72,
        "duration": 1,
        "velocity": 114,
        "position": 11,
        "beatPosition": 3,
        "isDownbeat": false,
        "prevInterval": 3,
        "nextInterval": -2,
        "chordRoot": 7,
        "isMinor": true,
        "isDominant": true,
        "isMajor": false,
        "isChordTone": false,
        "isScaleStep": true,
        "isChromatic": false,
        "deviceArpeggio": false,
        "deviceEnclosure": true,
        "deviceNeighbor": false,
        "deviceApproach": false,
        "label": "scale-step"
      },
      {
        "midi": 70,
        "duration": 1,
        "velocity": 114,
        "position": 12,
        "beatPosition": 4,
        "isDownbeat": false,
        "prevInterval": -2,
        "nextInterval": 2,
        "chordRoot": 7,
        "isMinor": true,
        "isDominant": true,
        "isMajor": false,
        "isChordTone": true,
        "isScaleStep": false,
        "isChromatic": false,
        "deviceArpeggio": false,
        "deviceEnclosure": true,
        "deviceNeighbor": false,
        "deviceApproach": false,
        "label": "chord-tone"
      },
      {
        "midi": 72,
        "duration": 1,
        "velocity": 114,
        "position": 13,
        "beatPosition": 5,
        "isDownbeat": false,
        "prevInterval": 2,
        "nextInterval": -3,
        "chordRoot": 7,
        "isMinor": true,
        "isDominant": true,
        "isMajor": false,
        "isChordTone": false,
        "isScaleStep": true,
        "isChromatic": false,
        "deviceArpeggio": false,
        "deviceEnclosure": true,
        "deviceNeighbor": false,
        "deviceApproach": false,
        "label": "scale-step"
      },
      {
        "midi": 69,
        "duration": 1,
        "velocity": 114,
        "position": 14,
        "beatPosition": 6,
        "isDownbeat": false,
        "prevInterval": -3,
        "nextInterval": 3,
        "chordRoot": 7,
        "isMinor": true,
        "isDominant": true,
        "isMajor": false,
        "isChordTone": false,
        "isScaleStep": false,
        "isChromatic": true,
        "deviceArpeggio": false,
        "deviceEnclosure": true,
        "deviceNeighbor": false,
        "deviceApproach": false,
        "label": "chromatic"
      },
      {
        "midi": 72,
        "duration": 1,
        "velocity": 114,
        "position": 15,
        "beatPosition": 7,
        "isDownbeat": false,
        "prevInterval": 3,
        "nextInterval": -2,
        "chordRoot": 7,
        "isMinor": true,
        "isDominant": true,
        "isMajor": false,
        "isChordTone": false,
        "isScaleStep": true,
        "isChromatic": false,
        "deviceArpeggio": false,
        "deviceEnclosure": true,
        "deviceNeighbor": false,
        "deviceApproach": false,
        "label": "scale-step"
      },
      {
        "midi": 70,
        "duration": 1,
        "velocity": 114,
        "position": 16,
        "beatPosition": 0,
        "isDownbeat": true,
        "prevInterval": -2,
        "nextInterval": 2,
        "chordRoot": 0,
        "isMinor": true,
        "isDominant": true,
        "isMajor": false,
        "isChordTone": true,
        "isScaleStep": false,
        "isChromatic": false,
        "deviceArpeggio": false,
        "deviceEnclosure": false,
        "deviceNeighbor": false,
        "deviceApproach": false,
        "label": "chord-tone"
      },
      {
        "midi": 72,
        "duration": 1,
        "velocity": 114,
        "position": 17,
        "beatPosition": 1,
        "isDownbeat": false,
        "prevInterval": 2,
        "nextInterval": 2,
        "chordRoot": 0,
        "isMinor": true,
        "isDominant": true,
        "isMajor": false,
        "isChordTone": true,
        "isScaleStep": false,
        "isChromatic": false,
        "deviceArpeggio": false,
        "deviceEnclosure": false,
        "deviceNeighbor": false,
        "deviceApproach": false,
        "label": "chord-tone"
      },
      {
        "midi": 74,
        "duration": 1,
        "velocity": 114,
        "position": 18,
        "beatPosition": 2,
        "isDownbeat": false,
        "prevInterval": 2,
        "nextInterval": 1,
        "chordRoot": 0,
        "isMinor": true,
        "isDominant": true,
        "isMajor": false,
        "isChordTone": false,
        "isScaleStep": true,
        "isChromatic": false,
        "deviceArpeggio": false,
        "deviceEnclosure": false,
        "deviceNeighbor": false,
        "deviceApproach": false,
        "label": "scale-step"
      },
      {
        "midi": 75,
        "duration": 1,
        "velocity": 114,
        "position": 19,
        "beatPosition": 3,
        "isDownbeat": false,
        "prevInterval": 1,
        "nextInterval": -1,
        "chordRoot": 0,
        "isMinor": true,
        "isDominant": true,
        "isMajor": false,
        "isChordTone": true,
        "isScaleStep": false,
        "isChromatic": false,
        "deviceArpeggio": false,
        "deviceEnclosure": false,
        "deviceNeighbor": false,
        "deviceApproach": false,
        "label": "chord-tone"
      },
      {
        "midi": 74,
        "duration": 1,
        "velocity": 114,
        "position": 20,
        "beatPosition": 4,
        "isDownbeat": false,
        "prevInterval": -1,
        "nextInterval": -2,
        "chordRoot": 0,
        "isMinor": true,
        "isDominant": true,
        "isMajor": false,
        "isChordTone": false,
        "isScaleStep": true,
        "isChromatic": false,
        "deviceArpeggio": false,
        "deviceEnclosure": false,
        "deviceNeighbor": false,
        "deviceApproach": false,
        "label": "scale-step"
      },
      {
        "midi": 72,
        "duration": 1,
        "velocity": 114,
        "position": 21,
        "beatPosition": 5,
        "isDownbeat": false,
        "prevInterval": -2,
        "nextInterval": -2,
        "chordRoot": 0,
        "isMinor": true,
        "isDominant": true,
        "isMajor": false,
        "isChordTone": true,
        "isScaleStep": false,
        "isChromatic": false,
        "deviceArpeggio": false,
        "deviceEnclosure": false,
        "deviceNeighbor": false,
        "deviceApproach": false,
        "label": "chord-tone"
      },
      {
        "midi": 70,
        "duration": 1,
        "velocity": 114,
        "position": 22,
        "beatPosition": 6,
        "isDownbeat": false,
        "prevInterval": -2,
        "nextInterval": 3,
        "chordRoot": 0,
        "isMinor": true,
        "isDominant": true,
        "isMajor": false,
        "isChordTone": true,
        "isScaleStep": false,
        "isChromatic": false,
        "deviceArpeggio": false,
        "deviceEnclosure": false,
        "deviceNeighbor": false,
        "deviceApproach": false,
        "label": "chord-tone"
      },
      {
        "midi": 73,
        "duration": 1,
        "velocity": 114,
        "position": 23,
        "beatPosition": 7,
        "isDownbeat": false,
        "prevInterval": 3,
        "nextInterval": -4,
        "chordRoot": 0,
        "isMinor": true,
        "isDominant": true,
        "isMajor": false,
        "isChordTone": false,
        "isScaleStep": true,
        "isChromatic": false,
        "deviceArpeggio": false,
        "deviceEnclosure": false,
        "deviceNeighbor": false,
        "deviceApproach": false,
        "label": "scale-step"
      },
      {
        "midi": 69,
        "duration": 1,
        "velocity": 114,
        "position": 24,
        "beatPosition": 0,
        "isDownbeat": true,
        "prevInterval": -4,
        "nextInterval": -9,
        "chordRoot": 5,
        "isMinor": false,
        "isDominant": true,
        "isMajor": false,
        "isChordTone": true,
        "isScaleStep": false,
        "isChromatic": false,
        "deviceArpeggio": true,
        "deviceEnclosure": false,
        "deviceNeighbor": false,
        "deviceApproach": false,
        "label": "chord-tone"
      },
      {
        "midi": 60,
        "duration": 1,
        "velocity": 114,
        "position": 25,
        "beatPosition": 1,
        "isDownbeat": false,
        "prevInterval": -9,
        "nextInterval": 3,
        "chordRoot": 5,
        "isMinor": false,
        "isDominant": true,
        "isMajor": false,
        "isChordTone": true,
        "isScaleStep": false,
        "isChromatic": false,
        "deviceArpeggio": true,
        "deviceEnclosure": false,
        "deviceNeighbor": false,
        "deviceApproach": false,
        "label": "chord-tone"
      },
      {
        "midi": 63,
        "duration": 1,
        "velocity": 114,
        "position": 26,
        "beatPosition": 2,
        "isDownbeat": false,
        "prevInterval": 3,
        "nextInterval": 2,
        "chordRoot": 5,
        "isMinor": false,
        "isDominant": true,
        "isMajor": false,
        "isChordTone": true,
        "isScaleStep": false,
        "isChromatic": false,
        "deviceArpeggio": true,
        "deviceEnclosure": false,
        "deviceNeighbor": false,
        "deviceApproach": false,
        "label": "chord-tone"
      },
      {
        "midi": 65,
        "duration": 1,
        "velocity": 114,
        "position": 27,
        "beatPosition": 3,
        "isDownbeat": false,
        "prevInterval": 2,
        "nextInterval": 4,
        "chordRoot": 5,
        "isMinor": false,
        "isDominant": true,
        "isMajor": false,
        "isChordTone": true,
        "isScaleStep": false,
        "isChromatic": false,
        "deviceArpeggio": true,
        "deviceEnclosure": false,
        "deviceNeighbor": false,
        "deviceApproach": false,
        "label": "chord-tone"
      },
      {
        "midi": 69,
        "duration": 1,
        "velocity": 114,
        "position": 28,
        "beatPosition": 4,
        "isDownbeat": false,
        "prevInterval": 4,
        "nextInterval": 3,
        "chordRoot": 5,
        "isMinor": false,
        "isDominant": true,
        "isMajor": false,
        "isChordTone": true,
        "isScaleStep": false,
        "isChromatic": false,
        "deviceArpeggio": true,
        "deviceEnclosure": false,
        "deviceNeighbor": false,
        "deviceApproach": false,
        "label": "chord-tone"
      },
      {
        "midi": 72,
        "duration": 1,
        "velocity": 114,
        "position": 29,
        "beatPosition": 5,
        "isDownbeat": false,
        "prevInterval": 3,
        "nextInterval": 3,
        "chordRoot": 5,
        "isMinor": false,
        "isDominant": true,
        "isMajor": false,
        "isChordTone": true,
        "isScaleStep": false,
        "isChromatic": false,
        "deviceArpeggio": true,
        "deviceEnclosure": false,
        "deviceNeighbor": false,
        "deviceApproach": false,
        "label": "chord-tone"
      },
      {
        "midi": 75,
        "duration": 1,
        "velocity": 114,
        "position": 30,
        "beatPosition": 6,
        "isDownbeat": false,
        "prevInterval": 3,
        "nextInterval": 0,
        "chordRoot": 5,
        "isMinor": false,
        "isDominant": true,
        "isMajor": false,
        "isChordTone": true,
        "isScaleStep": false,
        "isChromatic": false,
        "deviceArpeggio": true,
        "deviceEnclosure": false,
        "deviceNeighbor": false,
        "deviceApproach": false,
        "label": "chord-tone"
      }
    ]
  },
  {
    "id": 3,
    "metadata": {
      "key": "F",
      "progressionType": "V-I",
      "deviceStrategy": "arpeggio-heavy",
      "swing": 0.3,
      "numNotes": 15,
      "duration": 7.5
    },
    "notes": [
      {
        "midi": 60,
        "noteName": "C4",
        "degree": "5",
        "startBeat": 0,
        "durationBeats": 0.55,
        "velocity": 0.9,
        "ruleId": "chord-tone",
        "harmonicFunction": "chord-tone",
        "device": "enclosure-target",
        "chordSymbol": "F7",
        "rootPc": 5,
        "quality": "7",
        "scaleName": "mixolydian"
      },
      {
        "startBeat": 0.55,
        "durationBeats": 0.45,
        "midi": 58,
        "velocity": 0.9,
        "device": "enclosure-fill",
        "chordSymbol": "F7",
        "rootPc": 5,
        "quality": "7",
        "scaleName": "mixolydian",
        "ruleId": "scale-step",
        "harmonicFunction": "scale-step",
        "noteName": "A#3",
        "degree": "4"
      },
      {
        "startBeat": 1,
        "durationBeats": 0.55,
        "midi": 56,
        "velocity": 0.9,
        "device": "enclosure",
        "enclosureType": "lower",
        "chordSymbol": "F7",
        "rootPc": 5,
        "quality": "7",
        "scaleName": "mixolydian",
        "ruleId": "enclosure",
        "harmonicFunction": "chromatic",
        "noteName": "G#3"
      },
      {
        "startBeat": 1.55,
        "durationBeats": 0.45,
        "midi": 58,
        "velocity": 0.9,
        "device": "enclosure",
        "enclosureType": "upper",
        "chordSymbol": "F7",
        "rootPc": 5,
        "quality": "7",
        "scaleName": "mixolydian",
        "ruleId": "enclosure",
        "harmonicFunction": "scale-step",
        "noteName": "A#3",
        "degree": "4"
      },
      {
        "startBeat": 2,
        "durationBeats": 0.55,
        "midi": 57,
        "velocity": 0.9,
        "device": "enclosure-target",
        "chordSymbol": "F7",
        "rootPc": 5,
        "quality": "7",
        "scaleName": "mixolydian",
        "ruleId": "chord-tone",
        "harmonicFunction": "chord-tone",
        "noteName": "A3",
        "degree": "3"
      },
      {
        "startBeat": 2.55,
        "durationBeats": 0.45,
        "midi": 55,
        "velocity": 0.9,
        "device": "enclosure-fill",
        "chordSymbol": "F7",
        "rootPc": 5,
        "quality": "7",
        "scaleName": "mixolydian",
        "ruleId": "scale-step",
        "harmonicFunction": "scale-step",
        "noteName": "G3",
        "degree": "2"
      },
      {
        "startBeat": 3,
        "durationBeats": 0.55,
        "midi": 58,
        "velocity": 0.9,
        "device": "enclosure",
        "enclosureType": "lower",
        "chordSymbol": "F7",
        "rootPc": 5,
        "quality": "7",
        "scaleName": "mixolydian",
        "ruleId": "enclosure",
        "harmonicFunction": "chromatic",
        "noteName": "A#3"
      },
      {
        "startBeat": 3.55,
        "durationBeats": 0.45,
        "midi": 60,
        "velocity": 0.9,
        "device": "enclosure",
        "enclosureType": "upper",
        "chordSymbol": "F7",
        "rootPc": 5,
        "quality": "7",
        "scaleName": "mixolydian",
        "ruleId": "enclosure",
        "harmonicFunction": "chord-tone",
        "noteName": "C4",
        "degree": "5"
      },
      {
        "midi": 59,
        "noteName": "B3",
        "degree": "7",
        "startBeat": 4,
        "durationBeats": 0.55,
        "velocity": 0.9,
        "ruleId": "chord-tone",
        "harmonicFunction": "chord-tone",
        "device": "arpeggio",
        "chordSymbol": "Cmaj7",
        "rootPc": 0,
        "quality": "maj7",
        "scaleName": "ionian"
      },
      {
        "startBeat": 4.55,
        "durationBeats": 0.45,
        "midi": 55,
        "velocity": 0.9,
        "device": "arpeggio",
        "chordSymbol": "Cmaj7",
        "rootPc": 0,
        "quality": "maj7",
        "scaleName": "ionian",
        "ruleId": "arpeggio",
        "harmonicFunction": "chord-tone",
        "noteName": "G3",
        "degree": "5"
      },
      {
        "startBeat": 5,
        "durationBeats": 0.55,
        "midi": 64,
        "velocity": 0.9,
        "device": "arpeggio",
        "chordSymbol": "Cmaj7",
        "rootPc": 0,
        "quality": "maj7",
        "scaleName": "ionian",
        "ruleId": "arpeggio",
        "harmonicFunction": "chord-tone",
        "noteName": "E4",
        "degree": "3"
      },
      {
        "startBeat": 5.55,
        "durationBeats": 0.45,
        "midi": 60,
        "velocity": 0.9,
        "device": "arpeggio",
        "chordSymbol": "Cmaj7",
        "rootPc": 0,
        "quality": "maj7",
        "scaleName": "ionian",
        "ruleId": "arpeggio",
        "harmonicFunction": "chord-tone",
        "noteName": "C4",
        "degree": "1"
      },
      {
        "startBeat": 6,
        "durationBeats": 0.55,
        "midi": 71,
        "velocity": 0.9,
        "device": "arpeggio",
        "chordSymbol": "Cmaj7",
        "rootPc": 0,
        "quality": "maj7",
        "scaleName": "ionian",
        "ruleId": "arpeggio",
        "harmonicFunction": "chord-tone",
        "noteName": "B4",
        "degree": "7"
      },
      {
        "startBeat": 6.55,
        "durationBeats": 0.45,
        "midi": 67,
        "velocity": 0.9,
        "device": "arpeggio",
        "chordSymbol": "Cmaj7",
        "rootPc": 0,
        "quality": "maj7",
        "scaleName": "ionian",
        "ruleId": "arpeggio",
        "harmonicFunction": "chord-tone",
        "noteName": "G4",
        "degree": "5"
      },
      {
        "startBeat": 7,
        "durationBeats": 0.5,
        "midi": 64,
        "velocity": 0.9,
        "device": "arpeggio",
        "chordSymbol": "Cmaj7",
        "rootPc": 0,
        "quality": "maj7",
        "scaleName": "ionian",
        "ruleId": "arpeggio",
        "harmonicFunction": "chord-tone",
        "noteName": "E4",
        "degree": "3"
      }
    ],
    "tokens": [
      {
        "midi": 60,
        "duration": 1,
        "velocity": 114,
        "degree": "5",
        "harmonicFunction": "chord-tone",
        "device": "enclosure-target",
        "chordRoot": 5,
        "chordQuality": "7",
        "scale": "mixolydian"
      },
      {
        "midi": 58,
        "duration": 1,
        "velocity": 114,
        "degree": "4",
        "harmonicFunction": "scale-step",
        "device": "enclosure-fill",
        "chordRoot": 5,
        "chordQuality": "7",
        "scale": "mixolydian"
      },
      {
        "midi": 56,
        "duration": 1,
        "velocity": 114,
        "degree": "X",
        "harmonicFunction": "chromatic",
        "device": "enclosure",
        "chordRoot": 5,
        "chordQuality": "7",
        "scale": "mixolydian"
      },
      {
        "midi": 58,
        "duration": 1,
        "velocity": 114,
        "degree": "4",
        "harmonicFunction": "scale-step",
        "device": "enclosure",
        "chordRoot": 5,
        "chordQuality": "7",
        "scale": "mixolydian"
      },
      {
        "midi": 57,
        "duration": 1,
        "velocity": 114,
        "degree": "3",
        "harmonicFunction": "chord-tone",
        "device": "enclosure-target",
        "chordRoot": 5,
        "chordQuality": "7",
        "scale": "mixolydian"
      },
      {
        "midi": 55,
        "duration": 1,
        "velocity": 114,
        "degree": "2",
        "harmonicFunction": "scale-step",
        "device": "enclosure-fill",
        "chordRoot": 5,
        "chordQuality": "7",
        "scale": "mixolydian"
      },
      {
        "midi": 58,
        "duration": 1,
        "velocity": 114,
        "degree": "X",
        "harmonicFunction": "chromatic",
        "device": "enclosure",
        "chordRoot": 5,
        "chordQuality": "7",
        "scale": "mixolydian"
      },
      {
        "midi": 60,
        "duration": 1,
        "velocity": 114,
        "degree": "5",
        "harmonicFunction": "chord-tone",
        "device": "enclosure",
        "chordRoot": 5,
        "chordQuality": "7",
        "scale": "mixolydian"
      },
      {
        "midi": 59,
        "duration": 1,
        "velocity": 114,
        "degree": "7",
        "harmonicFunction": "chord-tone",
        "device": "arpeggio",
        "chordRoot": 0,
        "chordQuality": "maj7",
        "scale": "ionian"
      },
      {
        "midi": 55,
        "duration": 1,
        "velocity": 114,
        "degree": "5",
        "harmonicFunction": "chord-tone",
        "device": "arpeggio",
        "chordRoot": 0,
        "chordQuality": "maj7",
        "scale": "ionian"
      },
      {
        "midi": 64,
        "duration": 1,
        "velocity": 114,
        "degree": "3",
        "harmonicFunction": "chord-tone",
        "device": "arpeggio",
        "chordRoot": 0,
        "chordQuality": "maj7",
        "scale": "ionian"
      },
      {
        "midi": 60,
        "duration": 1,
        "velocity": 114,
        "degree": "1",
        "harmonicFunction": "chord-tone",
        "device": "arpeggio",
        "chordRoot": 0,
        "chordQuality": "maj7",
        "scale": "ionian"
      },
      {
        "midi": 71,
        "duration": 1,
        "velocity": 114,
        "degree": "7",
        "harmonicFunction": "chord-tone",
        "device": "arpeggio",
        "chordRoot": 0,
        "chordQuality": "maj7",
        "scale": "ionian"
      },
      {
        "midi": 67,
        "duration": 1,
        "velocity": 114,
        "degree": "5",
        "harmonicFunction": "chord-tone",
        "device": "arpeggio",
        "chordRoot": 0,
        "chordQuality": "maj7",
        "scale": "ionian"
      },
      {
        "midi": 64,
        "duration": 1,
        "velocity": 114,
        "degree": "3",
        "harmonicFunction": "chord-tone",
        "device": "arpeggio",
        "chordRoot": 0,
        "chordQuality": "maj7",
        "scale": "ionian"
      }
    ],
    "sequences": {
      "midi": [
        60,
        58,
        56,
        58,
        57,
        55,
        58,
        60,
        59,
        55,
        64,
        60,
        71,
        67,
        64
      ],
      "intervals": [
        0,
        -2,
        -2,
        2,
        -1,
        -2,
        3,
        2,
        -1,
        -4,
        9,
        -4,
        11,
        -4,
        -3
      ],
      "degrees": [
        5,
        4,
        0,
        4,
        3,
        2,
        0,
        5,
        7,
        5,
        3,
        1,
        7,
        5,
        3
      ]
    },
    "features": [
      {
        "midi": 60,
        "duration": 1,
        "velocity": 114,
        "position": 0,
        "beatPosition": 0,
        "isDownbeat": true,
        "prevInterval": 0,
        "nextInterval": -2,
        "chordRoot": 5,
        "isMinor": false,
        "isDominant": true,
        "isMajor": false,
        "isChordTone": true,
        "isScaleStep": false,
        "isChromatic": false,
        "deviceArpeggio": false,
        "deviceEnclosure": true,
        "deviceNeighbor": false,
        "deviceApproach": false,
        "label": "chord-tone"
      },
      {
        "midi": 58,
        "duration": 1,
        "velocity": 114,
        "position": 1,
        "beatPosition": 1,
        "isDownbeat": false,
        "prevInterval": -2,
        "nextInterval": -2,
        "chordRoot": 5,
        "isMinor": false,
        "isDominant": true,
        "isMajor": false,
        "isChordTone": false,
        "isScaleStep": true,
        "isChromatic": false,
        "deviceArpeggio": false,
        "deviceEnclosure": true,
        "deviceNeighbor": false,
        "deviceApproach": false,
        "label": "scale-step"
      },
      {
        "midi": 56,
        "duration": 1,
        "velocity": 114,
        "position": 2,
        "beatPosition": 2,
        "isDownbeat": false,
        "prevInterval": -2,
        "nextInterval": 2,
        "chordRoot": 5,
        "isMinor": false,
        "isDominant": true,
        "isMajor": false,
        "isChordTone": false,
        "isScaleStep": false,
        "isChromatic": true,
        "deviceArpeggio": false,
        "deviceEnclosure": true,
        "deviceNeighbor": false,
        "deviceApproach": false,
        "label": "chromatic"
      },
      {
        "midi": 58,
        "duration": 1,
        "velocity": 114,
        "position": 3,
        "beatPosition": 3,
        "isDownbeat": false,
        "prevInterval": 2,
        "nextInterval": -1,
        "chordRoot": 5,
        "isMinor": false,
        "isDominant": true,
        "isMajor": false,
        "isChordTone": false,
        "isScaleStep": true,
        "isChromatic": false,
        "deviceArpeggio": false,
        "deviceEnclosure": true,
        "deviceNeighbor": false,
        "deviceApproach": false,
        "label": "scale-step"
      },
      {
        "midi": 57,
        "duration": 1,
        "velocity": 114,
        "position": 4,
        "beatPosition": 4,
        "isDownbeat": false,
        "prevInterval": -1,
        "nextInterval": -2,
        "chordRoot": 5,
        "isMinor": false,
        "isDominant": true,
        "isMajor": false,
        "isChordTone": true,
        "isScaleStep": false,
        "isChromatic": false,
        "deviceArpeggio": false,
        "deviceEnclosure": true,
        "deviceNeighbor": false,
        "deviceApproach": false,
        "label": "chord-tone"
      },
      {
        "midi": 55,
        "duration": 1,
        "velocity": 114,
        "position": 5,
        "beatPosition": 5,
        "isDownbeat": false,
        "prevInterval": -2,
        "nextInterval": 3,
        "chordRoot": 5,
        "isMinor": false,
        "isDominant": true,
        "isMajor": false,
        "isChordTone": false,
        "isScaleStep": true,
        "isChromatic": false,
        "deviceArpeggio": false,
        "deviceEnclosure": true,
        "deviceNeighbor": false,
        "deviceApproach": false,
        "label": "scale-step"
      },
      {
        "midi": 58,
        "duration": 1,
        "velocity": 114,
        "position": 6,
        "beatPosition": 6,
        "isDownbeat": false,
        "prevInterval": 3,
        "nextInterval": 2,
        "chordRoot": 5,
        "isMinor": false,
        "isDominant": true,
        "isMajor": false,
        "isChordTone": false,
        "isScaleStep": false,
        "isChromatic": true,
        "deviceArpeggio": false,
        "deviceEnclosure": true,
        "deviceNeighbor": false,
        "deviceApproach": false,
        "label": "chromatic"
      },
      {
        "midi": 60,
        "duration": 1,
        "velocity": 114,
        "position": 7,
        "beatPosition": 7,
        "isDownbeat": false,
        "prevInterval": 2,
        "nextInterval": -1,
        "chordRoot": 5,
        "isMinor": false,
        "isDominant": true,
        "isMajor": false,
        "isChordTone": true,
        "isScaleStep": false,
        "isChromatic": false,
        "deviceArpeggio": false,
        "deviceEnclosure": true,
        "deviceNeighbor": false,
        "deviceApproach": false,
        "label": "chord-tone"
      },
      {
        "midi": 59,
        "duration": 1,
        "velocity": 114,
        "position": 8,
        "beatPosition": 0,
        "isDownbeat": true,
        "prevInterval": -1,
        "nextInterval": -4,
        "chordRoot": 0,
        "isMinor": true,
        "isDominant": false,
        "isMajor": true,
        "isChordTone": true,
        "isScaleStep": false,
        "isChromatic": false,
        "deviceArpeggio": true,
        "deviceEnclosure": false,
        "deviceNeighbor": false,
        "deviceApproach": false,
        "label": "chord-tone"
      },
      {
        "midi": 55,
        "duration": 1,
        "velocity": 114,
        "position": 9,
        "beatPosition": 1,
        "isDownbeat": false,
        "prevInterval": -4,
        "nextInterval": 9,
        "chordRoot": 0,
        "isMinor": true,
        "isDominant": false,
        "isMajor": true,
        "isChordTone": true,
        "isScaleStep": false,
        "isChromatic": false,
        "deviceArpeggio": true,
        "deviceEnclosure": false,
        "deviceNeighbor": false,
        "deviceApproach": false,
        "label": "chord-tone"
      },
      {
        "midi": 64,
        "duration": 1,
        "velocity": 114,
        "position": 10,
        "beatPosition": 2,
        "isDownbeat": false,
        "prevInterval": 9,
        "nextInterval": -4,
        "chordRoot": 0,
        "isMinor": true,
        "isDominant": false,
        "isMajor": true,
        "isChordTone": true,
        "isScaleStep": false,
        "isChromatic": false,
        "deviceArpeggio": true,
        "deviceEnclosure": false,
        "deviceNeighbor": false,
        "deviceApproach": false,
        "label": "chord-tone"
      },
      {
        "midi": 60,
        "duration": 1,
        "velocity": 114,
        "position": 11,
        "beatPosition": 3,
        "isDownbeat": false,
        "prevInterval": -4,
        "nextInterval": 11,
        "chordRoot": 0,
        "isMinor": true,
        "isDominant": false,
        "isMajor": true,
        "isChordTone": true,
        "isScaleStep": false,
        "isChromatic": false,
        "deviceArpeggio": true,
        "deviceEnclosure": false,
        "deviceNeighbor": false,
        "deviceApproach": false,
        "label": "chord-tone"
      },
      {
        "midi": 71,
        "duration": 1,
        "velocity": 114,
        "position": 12,
        "beatPosition": 4,
        "isDownbeat": false,
        "prevInterval": 11,
        "nextInterval": -4,
        "chordRoot": 0,
        "isMinor": true,
        "isDominant": false,
        "isMajor": true,
        "isChordTone": true,
        "isScaleStep": false,
        "isChromatic": false,
        "deviceArpeggio": true,
        "deviceEnclosure": false,
        "deviceNeighbor": false,
        "deviceApproach": false,
        "label": "chord-tone"
      },
      {
        "midi": 67,
        "duration": 1,
        "velocity": 114,
        "position": 13,
        "beatPosition": 5,
        "isDownbeat": false,
        "prevInterval": -4,
        "nextInterval": -3,
        "chordRoot": 0,
        "isMinor": true,
        "isDominant": false,
        "isMajor": true,
        "isChordTone": true,
        "isScaleStep": false,
        "isChromatic": false,
        "deviceArpeggio": true,
        "deviceEnclosure": false,
        "deviceNeighbor": false,
        "deviceApproach": false,
        "label": "chord-tone"
      },
      {
        "midi": 64,
        "duration": 1,
        "velocity": 114,
        "position": 14,
        "beatPosition": 6,
        "isDownbeat": false,
        "prevInterval": -3,
        "nextInterval": 0,
        "chordRoot": 0,
        "isMinor": true,
        "isDominant": false,
        "isMajor": true,
        "isChordTone": true,
        "isScaleStep": false,
        "isChromatic": false,
        "deviceArpeggio": true,
        "deviceEnclosure": false,
        "deviceNeighbor": false,
        "deviceApproach": false,
        "label": "chord-tone"
      }
    ]
  },
  {
    "id": 4,
    "metadata": {
      "key": "Gb",
      "progressionType": "ii-V",
      "deviceStrategy": "arpeggio-heavy",
      "swing": 0.3,
      "numNotes": 14,
      "duration": 7
    },
    "notes": [
      {
        "midi": 66,
        "noteName": "F#4",
        "degree": "1",
        "startBeat": 0,
        "durationBeats": 0.55,
        "velocity": 0.9,
        "ruleId": "chord-tone",
        "harmonicFunction": "chord-tone",
        "device": "enclosure-target",
        "chordSymbol": "Gbm7",
        "rootPc": 6,
        "quality": "m7",
        "scaleName": "dorian"
      },
      {
        "startBeat": 0.55,
        "durationBeats": 0.45,
        "midi": 68,
        "velocity": 0.9,
        "device": "enclosure-fill",
        "chordSymbol": "Gbm7",
        "rootPc": 6,
        "quality": "m7",
        "scaleName": "dorian",
        "ruleId": "scale-step",
        "harmonicFunction": "scale-step",
        "noteName": "G#4",
        "degree": "2"
      },
      {
        "startBeat": 1,
        "durationBeats": 0.55,
        "midi": 71,
        "velocity": 0.9,
        "device": "enclosure",
        "enclosureType": "upper",
        "chordSymbol": "Gbm7",
        "rootPc": 6,
        "quality": "m7",
        "scaleName": "dorian",
        "ruleId": "enclosure",
        "harmonicFunction": "scale-step",
        "noteName": "B4",
        "degree": "4"
      },
      {
        "startBeat": 1.55,
        "durationBeats": 0.45,
        "midi": 68,
        "velocity": 0.9,
        "device": "enclosure",
        "enclosureType": "lower",
        "chordSymbol": "Gbm7",
        "rootPc": 6,
        "quality": "m7",
        "scaleName": "dorian",
        "ruleId": "enclosure",
        "harmonicFunction": "chromatic",
        "noteName": "G#4"
      },
      {
        "startBeat": 2,
        "durationBeats": 0.55,
        "midi": 69,
        "velocity": 0.9,
        "device": "enclosure-target",
        "chordSymbol": "Gbm7",
        "rootPc": 6,
        "quality": "m7",
        "scaleName": "dorian",
        "ruleId": "chord-tone",
        "harmonicFunction": "chord-tone",
        "noteName": "A4",
        "degree": "b3"
      },
      {
        "startBeat": 2.55,
        "durationBeats": 0.45,
        "midi": 71,
        "velocity": 0.9,
        "device": "enclosure-fill",
        "chordSymbol": "Gbm7",
        "rootPc": 6,
        "quality": "m7",
        "scaleName": "dorian",
        "ruleId": "scale-step",
        "harmonicFunction": "scale-step",
        "noteName": "B4",
        "degree": "4"
      },
      {
        "startBeat": 3,
        "durationBeats": 0.55,
        "midi": 67,
        "velocity": 0.9,
        "device": "enclosure",
        "enclosureType": "lower",
        "chordSymbol": "Gbm7",
        "rootPc": 6,
        "quality": "m7",
        "scaleName": "dorian",
        "ruleId": "enclosure",
        "harmonicFunction": "chromatic",
        "noteName": "G4"
      },
      {
        "startBeat": 3.55,
        "durationBeats": 0.45,
        "midi": 69,
        "velocity": 0.9,
        "device": "enclosure",
        "enclosureType": "upper",
        "chordSymbol": "Gbm7",
        "rootPc": 6,
        "quality": "m7",
        "scaleName": "dorian",
        "ruleId": "enclosure",
        "harmonicFunction": "chord-tone",
        "noteName": "A4",
        "degree": "b3"
      },
      {
        "midi": 68,
        "noteName": "G#4",
        "degree": "5",
        "startBeat": 4,
        "durationBeats": 0.55,
        "velocity": 0.9,
        "ruleId": "chord-tone",
        "harmonicFunction": "chord-tone",
        "device": "scale-run",
        "chordSymbol": "Db7",
        "rootPc": 1,
        "quality": "7",
        "scaleName": "mixolydian"
      },
      {
        "startBeat": 4.55,
        "durationBeats": 0.45,
        "midi": 70,
        "velocity": 0.9,
        "device": "scale-run",
        "chordSymbol": "Db7",
        "rootPc": 1,
        "quality": "7",
        "scaleName": "mixolydian",
        "ruleId": "scale-step",
        "harmonicFunction": "scale-step",
        "noteName": "A#4",
        "degree": "6"
      },
      {
        "startBeat": 5,
        "durationBeats": 0.55,
        "midi": 71,
        "velocity": 0.9,
        "device": "scale-run",
        "chordSymbol": "Db7",
        "rootPc": 1,
        "quality": "7",
        "scaleName": "mixolydian",
        "ruleId": "scale-run-chord-tone",
        "harmonicFunction": "chord-tone",
        "noteName": "B4",
        "degree": "b7"
      },
      {
        "startBeat": 5.55,
        "durationBeats": 0.45,
        "midi": 73,
        "velocity": 0.9,
        "device": "scale-run",
        "chordSymbol": "Db7",
        "rootPc": 1,
        "quality": "7",
        "scaleName": "mixolydian",
        "ruleId": "scale-run-chord-tone",
        "harmonicFunction": "chord-tone",
        "noteName": "C#5",
        "degree": "1"
      },
      {
        "startBeat": 6,
        "durationBeats": 0.55,
        "midi": 75,
        "velocity": 0.9,
        "device": "scale-run",
        "chordSymbol": "Db7",
        "rootPc": 1,
        "quality": "7",
        "scaleName": "mixolydian",
        "ruleId": "scale-step",
        "harmonicFunction": "scale-step",
        "noteName": "D#5",
        "degree": "2"
      },
      {
        "startBeat": 6.55,
        "durationBeats": 0.45,
        "midi": 77,
        "velocity": 0.9,
        "device": "scale-run",
        "chordSymbol": "Db7",
        "rootPc": 1,
        "quality": "7",
        "scaleName": "mixolydian",
        "ruleId": "scale-run-chord-tone",
        "harmonicFunction": "chord-tone",
        "noteName": "F5",
        "degree": "3"
      }
    ],
    "tokens": [
      {
        "midi": 66,
        "duration": 1,
        "velocity": 114,
        "degree": "1",
        "harmonicFunction": "chord-tone",
        "device": "enclosure-target",
        "chordRoot": 6,
        "chordQuality": "m7",
        "scale": "dorian"
      },
      {
        "midi": 68,
        "duration": 1,
        "velocity": 114,
        "degree": "2",
        "harmonicFunction": "scale-step",
        "device": "enclosure-fill",
        "chordRoot": 6,
        "chordQuality": "m7",
        "scale": "dorian"
      },
      {
        "midi": 71,
        "duration": 1,
        "velocity": 114,
        "degree": "4",
        "harmonicFunction": "scale-step",
        "device": "enclosure",
        "chordRoot": 6,
        "chordQuality": "m7",
        "scale": "dorian"
      },
      {
        "midi": 68,
        "duration": 1,
        "velocity": 114,
        "degree": "X",
        "harmonicFunction": "chromatic",
        "device": "enclosure",
        "chordRoot": 6,
        "chordQuality": "m7",
        "scale": "dorian"
      },
      {
        "midi": 69,
        "duration": 1,
        "velocity": 114,
        "degree": "b3",
        "harmonicFunction": "chord-tone",
        "device": "enclosure-target",
        "chordRoot": 6,
        "chordQuality": "m7",
        "scale": "dorian"
      },
      {
        "midi": 71,
        "duration": 1,
        "velocity": 114,
        "degree": "4",
        "harmonicFunction": "scale-step",
        "device": "enclosure-fill",
        "chordRoot": 6,
        "chordQuality": "m7",
        "scale": "dorian"
      },
      {
        "midi": 67,
        "duration": 1,
        "velocity": 114,
        "degree": "X",
        "harmonicFunction": "chromatic",
        "device": "enclosure",
        "chordRoot": 6,
        "chordQuality": "m7",
        "scale": "dorian"
      },
      {
        "midi": 69,
        "duration": 1,
        "velocity": 114,
        "degree": "b3",
        "harmonicFunction": "chord-tone",
        "device": "enclosure",
        "chordRoot": 6,
        "chordQuality": "m7",
        "scale": "dorian"
      },
      {
        "midi": 68,
        "duration": 1,
        "velocity": 114,
        "degree": "5",
        "harmonicFunction": "chord-tone",
        "device": "scale-run",
        "chordRoot": 1,
        "chordQuality": "7",
        "scale": "mixolydian"
      },
      {
        "midi": 70,
        "duration": 1,
        "velocity": 114,
        "degree": "6",
        "harmonicFunction": "scale-step",
        "device": "scale-run",
        "chordRoot": 1,
        "chordQuality": "7",
        "scale": "mixolydian"
      },
      {
        "midi": 71,
        "duration": 1,
        "velocity": 114,
        "degree": "b7",
        "harmonicFunction": "chord-tone",
        "device": "scale-run",
        "chordRoot": 1,
        "chordQuality": "7",
        "scale": "mixolydian"
      },
      {
        "midi": 73,
        "duration": 1,
        "velocity": 114,
        "degree": "1",
        "harmonicFunction": "chord-tone",
        "device": "scale-run",
        "chordRoot": 1,
        "chordQuality": "7",
        "scale": "mixolydian"
      },
      {
        "midi": 75,
        "duration": 1,
        "velocity": 114,
        "degree": "2",
        "harmonicFunction": "scale-step",
        "device": "scale-run",
        "chordRoot": 1,
        "chordQuality": "7",
        "scale": "mixolydian"
      },
      {
        "midi": 77,
        "duration": 1,
        "velocity": 114,
        "degree": "3",
        "harmonicFunction": "chord-tone",
        "device": "scale-run",
        "chordRoot": 1,
        "chordQuality": "7",
        "scale": "mixolydian"
      }
    ],
    "sequences": {
      "midi": [
        66,
        68,
        71,
        68,
        69,
        71,
        67,
        69,
        68,
        70,
        71,
        73,
        75,
        77
      ],
      "intervals": [
        0,
        2,
        3,
        -3,
        1,
        2,
        -4,
        2,
        -1,
        2,
        1,
        2,
        2,
        2
      ],
      "degrees": [
        1,
        2,
        4,
        0,
        3,
        4,
        0,
        3,
        5,
        0,
        7,
        1,
        2,
        3
      ]
    },
    "features": [
      {
        "midi": 66,
        "duration": 1,
        "velocity": 114,
        "position": 0,
        "beatPosition": 0,
        "isDownbeat": true,
        "prevInterval": 0,
        "nextInterval": 2,
        "chordRoot": 6,
        "isMinor": true,
        "isDominant": true,
        "isMajor": false,
        "isChordTone": true,
        "isScaleStep": false,
        "isChromatic": false,
        "deviceArpeggio": false,
        "deviceEnclosure": true,
        "deviceNeighbor": false,
        "deviceApproach": false,
        "label": "chord-tone"
      },
      {
        "midi": 68,
        "duration": 1,
        "velocity": 114,
        "position": 1,
        "beatPosition": 1,
        "isDownbeat": false,
        "prevInterval": 2,
        "nextInterval": 3,
        "chordRoot": 6,
        "isMinor": true,
        "isDominant": true,
        "isMajor": false,
        "isChordTone": false,
        "isScaleStep": true,
        "isChromatic": false,
        "deviceArpeggio": false,
        "deviceEnclosure": true,
        "deviceNeighbor": false,
        "deviceApproach": false,
        "label": "scale-step"
      },
      {
        "midi": 71,
        "duration": 1,
        "velocity": 114,
        "position": 2,
        "beatPosition": 2,
        "isDownbeat": false,
        "prevInterval": 3,
        "nextInterval": -3,
        "chordRoot": 6,
        "isMinor": true,
        "isDominant": true,
        "isMajor": false,
        "isChordTone": false,
        "isScaleStep": true,
        "isChromatic": false,
        "deviceArpeggio": false,
        "deviceEnclosure": true,
        "deviceNeighbor": false,
        "deviceApproach": false,
        "label": "scale-step"
      },
      {
        "midi": 68,
        "duration": 1,
        "velocity": 114,
        "position": 3,
        "beatPosition": 3,
        "isDownbeat": false,
        "prevInterval": -3,
        "nextInterval": 1,
        "chordRoot": 6,
        "isMinor": true,
        "isDominant": true,
        "isMajor": false,
        "isChordTone": false,
        "isScaleStep": false,
        "isChromatic": true,
        "deviceArpeggio": false,
        "deviceEnclosure": true,
        "deviceNeighbor": false,
        "deviceApproach": false,
        "label": "chromatic"
      },
      {
        "midi": 69,
        "duration": 1,
        "velocity": 114,
        "position": 4,
        "beatPosition": 4,
        "isDownbeat": false,
        "prevInterval": 1,
        "nextInterval": 2,
        "chordRoot": 6,
        "isMinor": true,
        "isDominant": true,
        "isMajor": false,
        "isChordTone": true,
        "isScaleStep": false,
        "isChromatic": false,
        "deviceArpeggio": false,
        "deviceEnclosure": true,
        "deviceNeighbor": false,
        "deviceApproach": false,
        "label": "chord-tone"
      },
      {
        "midi": 71,
        "duration": 1,
        "velocity": 114,
        "position": 5,
        "beatPosition": 5,
        "isDownbeat": false,
        "prevInterval": 2,
        "nextInterval": -4,
        "chordRoot": 6,
        "isMinor": true,
        "isDominant": true,
        "isMajor": false,
        "isChordTone": false,
        "isScaleStep": true,
        "isChromatic": false,
        "deviceArpeggio": false,
        "deviceEnclosure": true,
        "deviceNeighbor": false,
        "deviceApproach": false,
        "label": "scale-step"
      },
      {
        "midi": 67,
        "duration": 1,
        "velocity": 114,
        "position": 6,
        "beatPosition": 6,
        "isDownbeat": false,
        "prevInterval": -4,
        "nextInterval": 2,
        "chordRoot": 6,
        "isMinor": true,
        "isDominant": true,
        "isMajor": false,
        "isChordTone": false,
        "isScaleStep": false,
        "isChromatic": true,
        "deviceArpeggio": false,
        "deviceEnclosure": true,
        "deviceNeighbor": false,
        "deviceApproach": false,
        "label": "chromatic"
      },
      {
        "midi": 69,
        "duration": 1,
        "velocity": 114,
        "position": 7,
        "beatPosition": 7,
        "isDownbeat": false,
        "prevInterval": 2,
        "nextInterval": -1,
        "chordRoot": 6,
        "isMinor": true,
        "isDominant": true,
        "isMajor": false,
        "isChordTone": true,
        "isScaleStep": false,
        "isChromatic": false,
        "deviceArpeggio": false,
        "deviceEnclosure": true,
        "deviceNeighbor": false,
        "deviceApproach": false,
        "label": "chord-tone"
      },
      {
        "midi": 68,
        "duration": 1,
        "velocity": 114,
        "position": 8,
        "beatPosition": 0,
        "isDownbeat": true,
        "prevInterval": -1,
        "nextInterval": 2,
        "chordRoot": 1,
        "isMinor": false,
        "isDominant": true,
        "isMajor": false,
        "isChordTone": true,
        "isScaleStep": false,
        "isChromatic": false,
        "deviceArpeggio": false,
        "deviceEnclosure": false,
        "deviceNeighbor": false,
        "deviceApproach": false,
        "label": "chord-tone"
      },
      {
        "midi": 70,
        "duration": 1,
        "velocity": 114,
        "position": 9,
        "beatPosition": 1,
        "isDownbeat": false,
        "prevInterval": 2,
        "nextInterval": 1,
        "chordRoot": 1,
        "isMinor": false,
        "isDominant": true,
        "isMajor": false,
        "isChordTone": false,
        "isScaleStep": true,
        "isChromatic": false,
        "deviceArpeggio": false,
        "deviceEnclosure": false,
        "deviceNeighbor": false,
        "deviceApproach": false,
        "label": "scale-step"
      },
      {
        "midi": 71,
        "duration": 1,
        "velocity": 114,
        "position": 10,
        "beatPosition": 2,
        "isDownbeat": false,
        "prevInterval": 1,
        "nextInterval": 2,
        "chordRoot": 1,
        "isMinor": false,
        "isDominant": true,
        "isMajor": false,
        "isChordTone": true,
        "isScaleStep": false,
        "isChromatic": false,
        "deviceArpeggio": false,
        "deviceEnclosure": false,
        "deviceNeighbor": false,
        "deviceApproach": false,
        "label": "chord-tone"
      },
      {
        "midi": 73,
        "duration": 1,
        "velocity": 114,
        "position": 11,
        "beatPosition": 3,
        "isDownbeat": false,
        "prevInterval": 2,
        "nextInterval": 2,
        "chordRoot": 1,
        "isMinor": false,
        "isDominant": true,
        "isMajor": false,
        "isChordTone": true,
        "isScaleStep": false,
        "isChromatic": false,
        "deviceArpeggio": false,
        "deviceEnclosure": false,
        "deviceNeighbor": false,
        "deviceApproach": false,
        "label": "chord-tone"
      },
      {
        "midi": 75,
        "duration": 1,
        "velocity": 114,
        "position": 12,
        "beatPosition": 4,
        "isDownbeat": false,
        "prevInterval": 2,
        "nextInterval": 2,
        "chordRoot": 1,
        "isMinor": false,
        "isDominant": true,
        "isMajor": false,
        "isChordTone": false,
        "isScaleStep": true,
        "isChromatic": false,
        "deviceArpeggio": false,
        "deviceEnclosure": false,
        "deviceNeighbor": false,
        "deviceApproach": false,
        "label": "scale-step"
      },
      {
        "midi": 77,
        "duration": 1,
        "velocity": 114,
        "position": 13,
        "beatPosition": 5,
        "isDownbeat": false,
        "prevInterval": 2,
        "nextInterval": 0,
        "chordRoot": 1,
        "isMinor": false,
        "isDominant": true,
        "isMajor": false,
        "isChordTone": true,
        "isScaleStep": false,
        "isChromatic": false,
        "deviceArpeggio": false,
        "deviceEnclosure": false,
        "deviceNeighbor": false,
        "deviceApproach": false,
        "label": "chord-tone"
      }
    ]
  },
  {
    "id": 5,
    "metadata": {
      "key": "D",
      "progressionType": "V-I",
      "deviceStrategy": "arpeggio-heavy",
      "swing": 0.7,
      "numNotes": 15,
      "duration": 7.5
    },
    "notes": [
      {
        "midi": 60,
        "noteName": "C4",
        "degree": "b7",
        "startBeat": 0,
        "durationBeats": 0.6166666666666667,
        "velocity": 0.9,
        "ruleId": "chord-tone",
        "harmonicFunction": "chord-tone",
        "device": "arpeggio",
        "chordSymbol": "D7",
        "rootPc": 2,
        "quality": "7",
        "scaleName": "mixolydian"
      },
      {
        "startBeat": 0.6166666666666667,
        "durationBeats": 0.38333333333333336,
        "midi": 62,
        "velocity": 0.9,
        "device": "arpeggio",
        "chordSymbol": "D7",
        "rootPc": 2,
        "quality": "7",
        "scaleName": "mixolydian",
        "ruleId": "arpeggio",
        "harmonicFunction": "chord-tone",
        "noteName": "D4",
        "degree": "1"
      },
      {
        "startBeat": 1,
        "durationBeats": 0.6166666666666667,
        "midi": 66,
        "velocity": 0.9,
        "device": "arpeggio",
        "chordSymbol": "D7",
        "rootPc": 2,
        "quality": "7",
        "scaleName": "mixolydian",
        "ruleId": "arpeggio",
        "harmonicFunction": "chord-tone",
        "noteName": "F#4",
        "degree": "3"
      },
      {
        "startBeat": 1.6166666666666667,
        "durationBeats": 0.38333333333333336,
        "midi": 69,
        "velocity": 0.9,
        "device": "arpeggio",
        "chordSymbol": "D7",
        "rootPc": 2,
        "quality": "7",
        "scaleName": "mixolydian",
        "ruleId": "arpeggio",
        "harmonicFunction": "chord-tone",
        "noteName": "A4",
        "degree": "5"
      },
      {
        "startBeat": 2,
        "durationBeats": 0.6166666666666667,
        "midi": 60,
        "velocity": 0.9,
        "device": "arpeggio",
        "chordSymbol": "D7",
        "rootPc": 2,
        "quality": "7",
        "scaleName": "mixolydian",
        "ruleId": "arpeggio",
        "harmonicFunction": "chord-tone",
        "noteName": "C4",
        "degree": "b7"
      },
      {
        "startBeat": 2.6166666666666667,
        "durationBeats": 0.38333333333333336,
        "midi": 62,
        "velocity": 0.9,
        "device": "arpeggio",
        "chordSymbol": "D7",
        "rootPc": 2,
        "quality": "7",
        "scaleName": "mixolydian",
        "ruleId": "arpeggio",
        "harmonicFunction": "chord-tone",
        "noteName": "D4",
        "degree": "1"
      },
      {
        "startBeat": 3,
        "durationBeats": 0.6166666666666667,
        "midi": 58,
        "velocity": 0.9,
        "device": "arpeggio",
        "chordSymbol": "D7",
        "rootPc": 2,
        "quality": "7",
        "scaleName": "mixolydian",
        "ruleId": "arpeggio",
        "harmonicFunction": "chord-tone",
        "noteName": "A#3",
        "degree": "?"
      },
      {
        "startBeat": 3.6166666666666667,
        "durationBeats": 0.38333333333333336,
        "midi": 58,
        "velocity": 0.9,
        "device": "arpeggio",
        "chordSymbol": "D7",
        "rootPc": 2,
        "quality": "7",
        "scaleName": "mixolydian",
        "ruleId": "arpeggio",
        "harmonicFunction": "chord-tone",
        "noteName": "A#3",
        "degree": "?"
      },
      {
        "midi": 56,
        "noteName": "G#3",
        "degree": "7",
        "startBeat": 4,
        "durationBeats": 0.6166666666666667,
        "velocity": 0.9,
        "ruleId": "chord-tone",
        "harmonicFunction": "chord-tone",
        "device": "arpeggio",
        "chordSymbol": "Amaj7",
        "rootPc": 9,
        "quality": "maj7",
        "scaleName": "ionian"
      },
      {
        "startBeat": 4.616666666666666,
        "durationBeats": 0.38333333333333336,
        "midi": 64,
        "velocity": 0.9,
        "device": "arpeggio",
        "chordSymbol": "Amaj7",
        "rootPc": 9,
        "quality": "maj7",
        "scaleName": "ionian",
        "ruleId": "arpeggio",
        "harmonicFunction": "chord-tone",
        "noteName": "E4",
        "degree": "5"
      },
      {
        "startBeat": 5,
        "durationBeats": 0.6166666666666667,
        "midi": 61,
        "velocity": 0.9,
        "device": "arpeggio",
        "chordSymbol": "Amaj7",
        "rootPc": 9,
        "quality": "maj7",
        "scaleName": "ionian",
        "ruleId": "arpeggio",
        "harmonicFunction": "chord-tone",
        "noteName": "C#4",
        "degree": "3"
      },
      {
        "startBeat": 5.616666666666666,
        "durationBeats": 0.38333333333333336,
        "midi": 69,
        "velocity": 0.9,
        "device": "arpeggio",
        "chordSymbol": "Amaj7",
        "rootPc": 9,
        "quality": "maj7",
        "scaleName": "ionian",
        "ruleId": "arpeggio",
        "harmonicFunction": "chord-tone",
        "noteName": "A4",
        "degree": "1"
      },
      {
        "startBeat": 6,
        "durationBeats": 0.6166666666666667,
        "midi": 68,
        "velocity": 0.9,
        "device": "arpeggio",
        "chordSymbol": "Amaj7",
        "rootPc": 9,
        "quality": "maj7",
        "scaleName": "ionian",
        "ruleId": "arpeggio",
        "harmonicFunction": "chord-tone",
        "noteName": "G#4",
        "degree": "7"
      },
      {
        "startBeat": 6.616666666666666,
        "durationBeats": 0.38333333333333336,
        "midi": 64,
        "velocity": 0.9,
        "device": "arpeggio",
        "chordSymbol": "Amaj7",
        "rootPc": 9,
        "quality": "maj7",
        "scaleName": "ionian",
        "ruleId": "arpeggio",
        "harmonicFunction": "chord-tone",
        "noteName": "E4",
        "degree": "5"
      },
      {
        "startBeat": 7,
        "durationBeats": 0.5,
        "midi": 61,
        "velocity": 0.9,
        "device": "arpeggio",
        "chordSymbol": "Amaj7",
        "rootPc": 9,
        "quality": "maj7",
        "scaleName": "ionian",
        "ruleId": "arpeggio",
        "harmonicFunction": "chord-tone",
        "noteName": "C#4",
        "degree": "3"
      }
    ],
    "tokens": [
      {
        "midi": 60,
        "duration": 1,
        "velocity": 114,
        "degree": "b7",
        "harmonicFunction": "chord-tone",
        "device": "arpeggio",
        "chordRoot": 2,
        "chordQuality": "7",
        "scale": "mixolydian"
      },
      {
        "midi": 62,
        "duration": 1,
        "velocity": 114,
        "degree": "1",
        "harmonicFunction": "chord-tone",
        "device": "arpeggio",
        "chordRoot": 2,
        "chordQuality": "7",
        "scale": "mixolydian"
      },
      {
        "midi": 66,
        "duration": 1,
        "velocity": 114,
        "degree": "3",
        "harmonicFunction": "chord-tone",
        "device": "arpeggio",
        "chordRoot": 2,
        "chordQuality": "7",
        "scale": "mixolydian"
      },
      {
        "midi": 69,
        "duration": 1,
        "velocity": 114,
        "degree": "5",
        "harmonicFunction": "chord-tone",
        "device": "arpeggio",
        "chordRoot": 2,
        "chordQuality": "7",
        "scale": "mixolydian"
      },
      {
        "midi": 60,
        "duration": 1,
        "velocity": 114,
        "degree": "b7",
        "harmonicFunction": "chord-tone",
        "device": "arpeggio",
        "chordRoot": 2,
        "chordQuality": "7",
        "scale": "mixolydian"
      },
      {
        "midi": 62,
        "duration": 1,
        "velocity": 114,
        "degree": "1",
        "harmonicFunction": "chord-tone",
        "device": "arpeggio",
        "chordRoot": 2,
        "chordQuality": "7",
        "scale": "mixolydian"
      },
      {
        "midi": 58,
        "duration": 1,
        "velocity": 114,
        "degree": "?",
        "harmonicFunction": "chord-tone",
        "device": "arpeggio",
        "chordRoot": 2,
        "chordQuality": "7",
        "scale": "mixolydian"
      },
      {
        "midi": 58,
        "duration": 1,
        "velocity": 114,
        "degree": "?",
        "harmonicFunction": "chord-tone",
        "device": "arpeggio",
        "chordRoot": 2,
        "chordQuality": "7",
        "scale": "mixolydian"
      },
      {
        "midi": 56,
        "duration": 1,
        "velocity": 114,
        "degree": "7",
        "harmonicFunction": "chord-tone",
        "device": "arpeggio",
        "chordRoot": 9,
        "chordQuality": "maj7",
        "scale": "ionian"
      },
      {
        "midi": 64,
        "duration": 1,
        "velocity": 114,
        "degree": "5",
        "harmonicFunction": "chord-tone",
        "device": "arpeggio",
        "chordRoot": 9,
        "chordQuality": "maj7",
        "scale": "ionian"
      },
      {
        "midi": 61,
        "duration": 1,
        "velocity": 114,
        "degree": "3",
        "harmonicFunction": "chord-tone",
        "device": "arpeggio",
        "chordRoot": 9,
        "chordQuality": "maj7",
        "scale": "ionian"
      },
      {
        "midi": 69,
        "duration": 1,
        "velocity": 114,
        "degree": "1",
        "harmonicFunction": "chord-tone",
        "device": "arpeggio",
        "chordRoot": 9,
        "chordQuality": "maj7",
        "scale": "ionian"
      },
      {
        "midi": 68,
        "duration": 1,
        "velocity": 114,
        "degree": "7",
        "harmonicFunction": "chord-tone",
        "device": "arpeggio",
        "chordRoot": 9,
        "chordQuality": "maj7",
        "scale": "ionian"
      },
      {
        "midi": 64,
        "duration": 1,
        "velocity": 114,
        "degree": "5",
        "harmonicFunction": "chord-tone",
        "device": "arpeggio",
        "chordRoot": 9,
        "chordQuality": "maj7",
        "scale": "ionian"
      },
      {
        "midi": 61,
        "duration": 1,
        "velocity": 114,
        "degree": "3",
        "harmonicFunction": "chord-tone",
        "device": "arpeggio",
        "chordRoot": 9,
        "chordQuality": "maj7",
        "scale": "ionian"
      }
    ],
    "sequences": {
      "midi": [
        60,
        62,
        66,
        69,
        60,
        62,
        58,
        58,
        56,
        64,
        61,
        69,
        68,
        64,
        61
      ],
      "intervals": [
        0,
        2,
        4,
        3,
        -9,
        2,
        -4,
        0,
        -2,
        8,
        -3,
        8,
        -1,
        -4,
        -3
      ],
      "degrees": [
        7,
        1,
        3,
        5,
        7,
        1,
        0,
        0,
        7,
        5,
        3,
        1,
        7,
        5,
        3
      ]
    },
    "features": [
      {
        "midi": 60,
        "duration": 1,
        "velocity": 114,
        "position": 0,
        "beatPosition": 0,
        "isDownbeat": true,
        "prevInterval": 0,
        "nextInterval": 2,
        "chordRoot": 2,
        "isMinor": false,
        "isDominant": true,
        "isMajor": false,
        "isChordTone": true,
        "isScaleStep": false,
        "isChromatic": false,
        "deviceArpeggio": true,
        "deviceEnclosure": false,
        "deviceNeighbor": false,
        "deviceApproach": false,
        "label": "chord-tone"
      },
      {
        "midi": 62,
        "duration": 1,
        "velocity": 114,
        "position": 1,
        "beatPosition": 1,
        "isDownbeat": false,
        "prevInterval": 2,
        "nextInterval": 4,
        "chordRoot": 2,
        "isMinor": false,
        "isDominant": true,
        "isMajor": false,
        "isChordTone": true,
        "isScaleStep": false,
        "isChromatic": false,
        "deviceArpeggio": true,
        "deviceEnclosure": false,
        "deviceNeighbor": false,
        "deviceApproach": false,
        "label": "chord-tone"
      },
      {
        "midi": 66,
        "duration": 1,
        "velocity": 114,
        "position": 2,
        "beatPosition": 2,
        "isDownbeat": false,
        "prevInterval": 4,
        "nextInterval": 3,
        "chordRoot": 2,
        "isMinor": false,
        "isDominant": true,
        "isMajor": false,
        "isChordTone": true,
        "isScaleStep": false,
        "isChromatic": false,
        "deviceArpeggio": true,
        "deviceEnclosure": false,
        "deviceNeighbor": false,
        "deviceApproach": false,
        "label": "chord-tone"
      },
      {
        "midi": 69,
        "duration": 1,
        "velocity": 114,
        "position": 3,
        "beatPosition": 3,
        "isDownbeat": false,
        "prevInterval": 3,
        "nextInterval": -9,
        "chordRoot": 2,
        "isMinor": false,
        "isDominant": true,
        "isMajor": false,
        "isChordTone": true,
        "isScaleStep": false,
        "isChromatic": false,
        "deviceArpeggio": true,
        "deviceEnclosure": false,
        "deviceNeighbor": false,
        "deviceApproach": false,
        "label": "chord-tone"
      },
      {
        "midi": 60,
        "duration": 1,
        "velocity": 114,
        "position": 4,
        "beatPosition": 4,
        "isDownbeat": false,
        "prevInterval": -9,
        "nextInterval": 2,
        "chordRoot": 2,
        "isMinor": false,
        "isDominant": true,
        "isMajor": false,
        "isChordTone": true,
        "isScaleStep": false,
        "isChromatic": false,
        "deviceArpeggio": true,
        "deviceEnclosure": false,
        "deviceNeighbor": false,
        "deviceApproach": false,
        "label": "chord-tone"
      },
      {
        "midi": 62,
        "duration": 1,
        "velocity": 114,
        "position": 5,
        "beatPosition": 5,
        "isDownbeat": false,
        "prevInterval": 2,
        "nextInterval": -4,
        "chordRoot": 2,
        "isMinor": false,
        "isDominant": true,
        "isMajor": false,
        "isChordTone": true,
        "isScaleStep": false,
        "isChromatic": false,
        "deviceArpeggio": true,
        "deviceEnclosure": false,
        "deviceNeighbor": false,
        "deviceApproach": false,
        "label": "chord-tone"
      },
      {
        "midi": 58,
        "duration": 1,
        "velocity": 114,
        "position": 6,
        "beatPosition": 6,
        "isDownbeat": false,
        "prevInterval": -4,
        "nextInterval": 0,
        "chordRoot": 2,
        "isMinor": false,
        "isDominant": true,
        "isMajor": false,
        "isChordTone": true,
        "isScaleStep": false,
        "isChromatic": false,
        "deviceArpeggio": true,
        "deviceEnclosure": false,
        "deviceNeighbor": false,
        "deviceApproach": false,
        "label": "chord-tone"
      },
      {
        "midi": 58,
        "duration": 1,
        "velocity": 114,
        "position": 7,
        "beatPosition": 7,
        "isDownbeat": false,
        "prevInterval": 0,
        "nextInterval": -2,
        "chordRoot": 2,
        "isMinor": false,
        "isDominant": true,
        "isMajor": false,
        "isChordTone": true,
        "isScaleStep": false,
        "isChromatic": false,
        "deviceArpeggio": true,
        "deviceEnclosure": false,
        "deviceNeighbor": false,
        "deviceApproach": false,
        "label": "chord-tone"
      },
      {
        "midi": 56,
        "duration": 1,
        "velocity": 114,
        "position": 8,
        "beatPosition": 0,
        "isDownbeat": true,
        "prevInterval": -2,
        "nextInterval": 8,
        "chordRoot": 9,
        "isMinor": true,
        "isDominant": false,
        "isMajor": true,
        "isChordTone": true,
        "isScaleStep": false,
        "isChromatic": false,
        "deviceArpeggio": true,
        "deviceEnclosure": false,
        "deviceNeighbor": false,
        "deviceApproach": false,
        "label": "chord-tone"
      },
      {
        "midi": 64,
        "duration": 1,
        "velocity": 114,
        "position": 9,
        "beatPosition": 1,
        "isDownbeat": false,
        "prevInterval": 8,
        "nextInterval": -3,
        "chordRoot": 9,
        "isMinor": true,
        "isDominant": false,
        "isMajor": true,
        "isChordTone": true,
        "isScaleStep": false,
        "isChromatic": false,
        "deviceArpeggio": true,
        "deviceEnclosure": false,
        "deviceNeighbor": false,
        "deviceApproach": false,
        "label": "chord-tone"
      },
      {
        "midi": 61,
        "duration": 1,
        "velocity": 114,
        "position": 10,
        "beatPosition": 2,
        "isDownbeat": false,
        "prevInterval": -3,
        "nextInterval": 8,
        "chordRoot": 9,
        "isMinor": true,
        "isDominant": false,
        "isMajor": true,
        "isChordTone": true,
        "isScaleStep": false,
        "isChromatic": false,
        "deviceArpeggio": true,
        "deviceEnclosure": false,
        "deviceNeighbor": false,
        "deviceApproach": false,
        "label": "chord-tone"
      },
      {
        "midi": 69,
        "duration": 1,
        "velocity": 114,
        "position": 11,
        "beatPosition": 3,
        "isDownbeat": false,
        "prevInterval": 8,
        "nextInterval": -1,
        "chordRoot": 9,
        "isMinor": true,
        "isDominant": false,
        "isMajor": true,
        "isChordTone": true,
        "isScaleStep": false,
        "isChromatic": false,
        "deviceArpeggio": true,
        "deviceEnclosure": false,
        "deviceNeighbor": false,
        "deviceApproach": false,
        "label": "chord-tone"
      },
      {
        "midi": 68,
        "duration": 1,
        "velocity": 114,
        "position": 12,
        "beatPosition": 4,
        "isDownbeat": false,
        "prevInterval": -1,
        "nextInterval": -4,
        "chordRoot": 9,
        "isMinor": true,
        "isDominant": false,
        "isMajor": true,
        "isChordTone": true,
        "isScaleStep": false,
        "isChromatic": false,
        "deviceArpeggio": true,
        "deviceEnclosure": false,
        "deviceNeighbor": false,
        "deviceApproach": false,
        "label": "chord-tone"
      },
      {
        "midi": 64,
        "duration": 1,
        "velocity": 114,
        "position": 13,
        "beatPosition": 5,
        "isDownbeat": false,
        "prevInterval": -4,
        "nextInterval": -3,
        "chordRoot": 9,
        "isMinor": true,
        "isDominant": false,
        "isMajor": true,
        "isChordTone": true,
        "isScaleStep": false,
        "isChromatic": false,
        "deviceArpeggio": true,
        "deviceEnclosure": false,
        "deviceNeighbor": false,
        "deviceApproach": false,
        "label": "chord-tone"
      },
      {
        "midi": 61,
        "duration": 1,
        "velocity": 114,
        "position": 14,
        "beatPosition": 6,
        "isDownbeat": false,
        "prevInterval": -3,
        "nextInterval": 0,
        "chordRoot": 9,
        "isMinor": true,
        "isDominant": false,
        "isMajor": true,
        "isChordTone": true,
        "isScaleStep": false,
        "isChromatic": false,
        "deviceArpeggio": true,
        "deviceEnclosure": false,
        "deviceNeighbor": false,
        "deviceApproach": false,
        "label": "chord-tone"
      }
    ]
  },
  {
    "id": 6,
    "metadata": {
      "key": "A",
      "progressionType": "V-I",
      "deviceStrategy": "varied",
      "swing": 0.3,
      "numNotes": 15,
      "duration": 7.5
    },
    "notes": [
      {
        "midi": 61,
        "noteName": "C#4",
        "degree": "3",
        "startBeat": 0,
        "durationBeats": 0.55,
        "velocity": 0.9,
        "ruleId": "chord-tone",
        "harmonicFunction": "chord-tone",
        "device": "enclosure-target",
        "chordSymbol": "A7",
        "rootPc": 9,
        "quality": "7",
        "scaleName": "mixolydian"
      },
      {
        "startBeat": 0.55,
        "durationBeats": 0.45,
        "midi": 62,
        "velocity": 0.9,
        "device": "enclosure-fill",
        "chordSymbol": "A7",
        "rootPc": 9,
        "quality": "7",
        "scaleName": "mixolydian",
        "ruleId": "scale-step",
        "harmonicFunction": "scale-step",
        "noteName": "D4",
        "degree": "4"
      },
      {
        "startBeat": 1,
        "durationBeats": 0.55,
        "midi": 66,
        "velocity": 0.9,
        "device": "enclosure",
        "enclosureType": "upper",
        "chordSymbol": "A7",
        "rootPc": 9,
        "quality": "7",
        "scaleName": "mixolydian",
        "ruleId": "enclosure",
        "harmonicFunction": "scale-step",
        "noteName": "F#4",
        "degree": "6"
      },
      {
        "startBeat": 1.55,
        "durationBeats": 0.45,
        "midi": 63,
        "velocity": 0.9,
        "device": "enclosure",
        "enclosureType": "lower",
        "chordSymbol": "A7",
        "rootPc": 9,
        "quality": "7",
        "scaleName": "mixolydian",
        "ruleId": "enclosure",
        "harmonicFunction": "chromatic",
        "noteName": "D#4"
      },
      {
        "startBeat": 2,
        "durationBeats": 0.55,
        "midi": 64,
        "velocity": 0.9,
        "device": "enclosure-target",
        "chordSymbol": "A7",
        "rootPc": 9,
        "quality": "7",
        "scaleName": "mixolydian",
        "ruleId": "chord-tone",
        "harmonicFunction": "chord-tone",
        "noteName": "E4",
        "degree": "5"
      },
      {
        "startBeat": 2.55,
        "durationBeats": 0.45,
        "midi": 66,
        "velocity": 0.9,
        "device": "enclosure-fill",
        "chordSymbol": "A7",
        "rootPc": 9,
        "quality": "7",
        "scaleName": "mixolydian",
        "ruleId": "scale-step",
        "harmonicFunction": "scale-step",
        "noteName": "F#4",
        "degree": "6"
      },
      {
        "startBeat": 3,
        "durationBeats": 0.55,
        "midi": 58,
        "velocity": 0.9,
        "device": "enclosure",
        "enclosureType": "lower",
        "chordSymbol": "A7",
        "rootPc": 9,
        "quality": "7",
        "scaleName": "mixolydian",
        "ruleId": "enclosure",
        "harmonicFunction": "chromatic",
        "noteName": "A#3"
      },
      {
        "startBeat": 3.55,
        "durationBeats": 0.45,
        "midi": 61,
        "velocity": 0.9,
        "device": "enclosure",
        "enclosureType": "upper",
        "chordSymbol": "A7",
        "rootPc": 9,
        "quality": "7",
        "scaleName": "mixolydian",
        "ruleId": "enclosure",
        "harmonicFunction": "chord-tone",
        "noteName": "C#4",
        "degree": "3"
      },
      {
        "midi": 59,
        "noteName": "B3",
        "degree": "5",
        "startBeat": 4,
        "durationBeats": 0.55,
        "velocity": 0.9,
        "ruleId": "chord-tone",
        "harmonicFunction": "chord-tone",
        "device": "arpeggio",
        "chordSymbol": "Emaj7",
        "rootPc": 4,
        "quality": "maj7",
        "scaleName": "ionian"
      },
      {
        "startBeat": 4.55,
        "durationBeats": 0.45,
        "midi": 56,
        "velocity": 0.9,
        "device": "arpeggio",
        "chordSymbol": "Emaj7",
        "rootPc": 4,
        "quality": "maj7",
        "scaleName": "ionian",
        "ruleId": "arpeggio",
        "harmonicFunction": "chord-tone",
        "noteName": "G#3",
        "degree": "3"
      },
      {
        "startBeat": 5,
        "durationBeats": 0.55,
        "midi": 64,
        "velocity": 0.9,
        "device": "arpeggio",
        "chordSymbol": "Emaj7",
        "rootPc": 4,
        "quality": "maj7",
        "scaleName": "ionian",
        "ruleId": "arpeggio",
        "harmonicFunction": "chord-tone",
        "noteName": "E4",
        "degree": "1"
      },
      {
        "startBeat": 5.55,
        "durationBeats": 0.45,
        "midi": 63,
        "velocity": 0.9,
        "device": "arpeggio",
        "chordSymbol": "Emaj7",
        "rootPc": 4,
        "quality": "maj7",
        "scaleName": "ionian",
        "ruleId": "arpeggio",
        "harmonicFunction": "chord-tone",
        "noteName": "D#4",
        "degree": "7"
      },
      {
        "startBeat": 6,
        "durationBeats": 0.55,
        "midi": 71,
        "velocity": 0.9,
        "device": "arpeggio",
        "chordSymbol": "Emaj7",
        "rootPc": 4,
        "quality": "maj7",
        "scaleName": "ionian",
        "ruleId": "arpeggio",
        "harmonicFunction": "chord-tone",
        "noteName": "B4",
        "degree": "5"
      },
      {
        "startBeat": 6.55,
        "durationBeats": 0.45,
        "midi": 56,
        "velocity": 0.9,
        "device": "arpeggio",
        "chordSymbol": "Emaj7",
        "rootPc": 4,
        "quality": "maj7",
        "scaleName": "ionian",
        "ruleId": "arpeggio",
        "harmonicFunction": "chord-tone",
        "noteName": "G#3",
        "degree": "3"
      },
      {
        "startBeat": 7,
        "durationBeats": 0.5,
        "midi": 64,
        "velocity": 0.9,
        "device": "arpeggio",
        "chordSymbol": "Emaj7",
        "rootPc": 4,
        "quality": "maj7",
        "scaleName": "ionian",
        "ruleId": "arpeggio",
        "harmonicFunction": "chord-tone",
        "noteName": "E4",
        "degree": "1"
      }
    ],
    "tokens": [
      {
        "midi": 61,
        "duration": 1,
        "velocity": 114,
        "degree": "3",
        "harmonicFunction": "chord-tone",
        "device": "enclosure-target",
        "chordRoot": 9,
        "chordQuality": "7",
        "scale": "mixolydian"
      },
      {
        "midi": 62,
        "duration": 1,
        "velocity": 114,
        "degree": "4",
        "harmonicFunction": "scale-step",
        "device": "enclosure-fill",
        "chordRoot": 9,
        "chordQuality": "7",
        "scale": "mixolydian"
      },
      {
        "midi": 66,
        "duration": 1,
        "velocity": 114,
        "degree": "6",
        "harmonicFunction": "scale-step",
        "device": "enclosure",
        "chordRoot": 9,
        "chordQuality": "7",
        "scale": "mixolydian"
      },
      {
        "midi": 63,
        "duration": 1,
        "velocity": 114,
        "degree": "X",
        "harmonicFunction": "chromatic",
        "device": "enclosure",
        "chordRoot": 9,
        "chordQuality": "7",
        "scale": "mixolydian"
      },
      {
        "midi": 64,
        "duration": 1,
        "velocity": 114,
        "degree": "5",
        "harmonicFunction": "chord-tone",
        "device": "enclosure-target",
        "chordRoot": 9,
        "chordQuality": "7",
        "scale": "mixolydian"
      },
      {
        "midi": 66,
        "duration": 1,
        "velocity": 114,
        "degree": "6",
        "harmonicFunction": "scale-step",
        "device": "enclosure-fill",
        "chordRoot": 9,
        "chordQuality": "7",
        "scale": "mixolydian"
      },
      {
        "midi": 58,
        "duration": 1,
        "velocity": 114,
        "degree": "X",
        "harmonicFunction": "chromatic",
        "device": "enclosure",
        "chordRoot": 9,
        "chordQuality": "7",
        "scale": "mixolydian"
      },
      {
        "midi": 61,
        "duration": 1,
        "velocity": 114,
        "degree": "3",
        "harmonicFunction": "chord-tone",
        "device": "enclosure",
        "chordRoot": 9,
        "chordQuality": "7",
        "scale": "mixolydian"
      },
      {
        "midi": 59,
        "duration": 1,
        "velocity": 114,
        "degree": "5",
        "harmonicFunction": "chord-tone",
        "device": "arpeggio",
        "chordRoot": 4,
        "chordQuality": "maj7",
        "scale": "ionian"
      },
      {
        "midi": 56,
        "duration": 1,
        "velocity": 114,
        "degree": "3",
        "harmonicFunction": "chord-tone",
        "device": "arpeggio",
        "chordRoot": 4,
        "chordQuality": "maj7",
        "scale": "ionian"
      },
      {
        "midi": 64,
        "duration": 1,
        "velocity": 114,
        "degree": "1",
        "harmonicFunction": "chord-tone",
        "device": "arpeggio",
        "chordRoot": 4,
        "chordQuality": "maj7",
        "scale": "ionian"
      },
      {
        "midi": 63,
        "duration": 1,
        "velocity": 114,
        "degree": "7",
        "harmonicFunction": "chord-tone",
        "device": "arpeggio",
        "chordRoot": 4,
        "chordQuality": "maj7",
        "scale": "ionian"
      },
      {
        "midi": 71,
        "duration": 1,
        "velocity": 114,
        "degree": "5",
        "harmonicFunction": "chord-tone",
        "device": "arpeggio",
        "chordRoot": 4,
        "chordQuality": "maj7",
        "scale": "ionian"
      },
      {
        "midi": 56,
        "duration": 1,
        "velocity": 114,
        "degree": "3",
        "harmonicFunction": "chord-tone",
        "device": "arpeggio",
        "chordRoot": 4,
        "chordQuality": "maj7",
        "scale": "ionian"
      },
      {
        "midi": 64,
        "duration": 1,
        "velocity": 114,
        "degree": "1",
        "harmonicFunction": "chord-tone",
        "device": "arpeggio",
        "chordRoot": 4,
        "chordQuality": "maj7",
        "scale": "ionian"
      }
    ],
    "sequences": {
      "midi": [
        61,
        62,
        66,
        63,
        64,
        66,
        58,
        61,
        59,
        56,
        64,
        63,
        71,
        56,
        64
      ],
      "intervals": [
        0,
        1,
        4,
        -3,
        1,
        2,
        -8,
        3,
        -2,
        -3,
        8,
        -1,
        8,
        -15,
        8
      ],
      "degrees": [
        3,
        4,
        0,
        0,
        5,
        0,
        0,
        3,
        5,
        3,
        1,
        7,
        5,
        3,
        1
      ]
    },
    "features": [
      {
        "midi": 61,
        "duration": 1,
        "velocity": 114,
        "position": 0,
        "beatPosition": 0,
        "isDownbeat": true,
        "prevInterval": 0,
        "nextInterval": 1,
        "chordRoot": 9,
        "isMinor": false,
        "isDominant": true,
        "isMajor": false,
        "isChordTone": true,
        "isScaleStep": false,
        "isChromatic": false,
        "deviceArpeggio": false,
        "deviceEnclosure": true,
        "deviceNeighbor": false,
        "deviceApproach": false,
        "label": "chord-tone"
      },
      {
        "midi": 62,
        "duration": 1,
        "velocity": 114,
        "position": 1,
        "beatPosition": 1,
        "isDownbeat": false,
        "prevInterval": 1,
        "nextInterval": 4,
        "chordRoot": 9,
        "isMinor": false,
        "isDominant": true,
        "isMajor": false,
        "isChordTone": false,
        "isScaleStep": true,
        "isChromatic": false,
        "deviceArpeggio": false,
        "deviceEnclosure": true,
        "deviceNeighbor": false,
        "deviceApproach": false,
        "label": "scale-step"
      },
      {
        "midi": 66,
        "duration": 1,
        "velocity": 114,
        "position": 2,
        "beatPosition": 2,
        "isDownbeat": false,
        "prevInterval": 4,
        "nextInterval": -3,
        "chordRoot": 9,
        "isMinor": false,
        "isDominant": true,
        "isMajor": false,
        "isChordTone": false,
        "isScaleStep": true,
        "isChromatic": false,
        "deviceArpeggio": false,
        "deviceEnclosure": true,
        "deviceNeighbor": false,
        "deviceApproach": false,
        "label": "scale-step"
      },
      {
        "midi": 63,
        "duration": 1,
        "velocity": 114,
        "position": 3,
        "beatPosition": 3,
        "isDownbeat": false,
        "prevInterval": -3,
        "nextInterval": 1,
        "chordRoot": 9,
        "isMinor": false,
        "isDominant": true,
        "isMajor": false,
        "isChordTone": false,
        "isScaleStep": false,
        "isChromatic": true,
        "deviceArpeggio": false,
        "deviceEnclosure": true,
        "deviceNeighbor": false,
        "deviceApproach": false,
        "label": "chromatic"
      },
      {
        "midi": 64,
        "duration": 1,
        "velocity": 114,
        "position": 4,
        "beatPosition": 4,
        "isDownbeat": false,
        "prevInterval": 1,
        "nextInterval": 2,
        "chordRoot": 9,
        "isMinor": false,
        "isDominant": true,
        "isMajor": false,
        "isChordTone": true,
        "isScaleStep": false,
        "isChromatic": false,
        "deviceArpeggio": false,
        "deviceEnclosure": true,
        "deviceNeighbor": false,
        "deviceApproach": false,
        "label": "chord-tone"
      },
      {
        "midi": 66,
        "duration": 1,
        "velocity": 114,
        "position": 5,
        "beatPosition": 5,
        "isDownbeat": false,
        "prevInterval": 2,
        "nextInterval": -8,
        "chordRoot": 9,
        "isMinor": false,
        "isDominant": true,
        "isMajor": false,
        "isChordTone": false,
        "isScaleStep": true,
        "isChromatic": false,
        "deviceArpeggio": false,
        "deviceEnclosure": true,
        "deviceNeighbor": false,
        "deviceApproach": false,
        "label": "scale-step"
      },
      {
        "midi": 58,
        "duration": 1,
        "velocity": 114,
        "position": 6,
        "beatPosition": 6,
        "isDownbeat": false,
        "prevInterval": -8,
        "nextInterval": 3,
        "chordRoot": 9,
        "isMinor": false,
        "isDominant": true,
        "isMajor": false,
        "isChordTone": false,
        "isScaleStep": false,
        "isChromatic": true,
        "deviceArpeggio": false,
        "deviceEnclosure": true,
        "deviceNeighbor": false,
        "deviceApproach": false,
        "label": "chromatic"
      },
      {
        "midi": 61,
        "duration": 1,
        "velocity": 114,
        "position": 7,
        "beatPosition": 7,
        "isDownbeat": false,
        "prevInterval": 3,
        "nextInterval": -2,
        "chordRoot": 9,
        "isMinor": false,
        "isDominant": true,
        "isMajor": false,
        "isChordTone": true,
        "isScaleStep": false,
        "isChromatic": false,
        "deviceArpeggio": false,
        "deviceEnclosure": true,
        "deviceNeighbor": false,
        "deviceApproach": false,
        "label": "chord-tone"
      },
      {
        "midi": 59,
        "duration": 1,
        "velocity": 114,
        "position": 8,
        "beatPosition": 0,
        "isDownbeat": true,
        "prevInterval": -2,
        "nextInterval": -3,
        "chordRoot": 4,
        "isMinor": true,
        "isDominant": false,
        "isMajor": true,
        "isChordTone": true,
        "isScaleStep": false,
        "isChromatic": false,
        "deviceArpeggio": true,
        "deviceEnclosure": false,
        "deviceNeighbor": false,
        "deviceApproach": false,
        "label": "chord-tone"
      },
      {
        "midi": 56,
        "duration": 1,
        "velocity": 114,
        "position": 9,
        "beatPosition": 1,
        "isDownbeat": false,
        "prevInterval": -3,
        "nextInterval": 8,
        "chordRoot": 4,
        "isMinor": true,
        "isDominant": false,
        "isMajor": true,
        "isChordTone": true,
        "isScaleStep": false,
        "isChromatic": false,
        "deviceArpeggio": true,
        "deviceEnclosure": false,
        "deviceNeighbor": false,
        "deviceApproach": false,
        "label": "chord-tone"
      },
      {
        "midi": 64,
        "duration": 1,
        "velocity": 114,
        "position": 10,
        "beatPosition": 2,
        "isDownbeat": false,
        "prevInterval": 8,
        "nextInterval": -1,
        "chordRoot": 4,
        "isMinor": true,
        "isDominant": false,
        "isMajor": true,
        "isChordTone": true,
        "isScaleStep": false,
        "isChromatic": false,
        "deviceArpeggio": true,
        "deviceEnclosure": false,
        "deviceNeighbor": false,
        "deviceApproach": false,
        "label": "chord-tone"
      },
      {
        "midi": 63,
        "duration": 1,
        "velocity": 114,
        "position": 11,
        "beatPosition": 3,
        "isDownbeat": false,
        "prevInterval": -1,
        "nextInterval": 8,
        "chordRoot": 4,
        "isMinor": true,
        "isDominant": false,
        "isMajor": true,
        "isChordTone": true,
        "isScaleStep": false,
        "isChromatic": false,
        "deviceArpeggio": true,
        "deviceEnclosure": false,
        "deviceNeighbor": false,
        "deviceApproach": false,
        "label": "chord-tone"
      },
      {
        "midi": 71,
        "duration": 1,
        "velocity": 114,
        "position": 12,
        "beatPosition": 4,
        "isDownbeat": false,
        "prevInterval": 8,
        "nextInterval": -15,
        "chordRoot": 4,
        "isMinor": true,
        "isDominant": false,
        "isMajor": true,
        "isChordTone": true,
        "isScaleStep": false,
        "isChromatic": false,
        "deviceArpeggio": true,
        "deviceEnclosure": false,
        "deviceNeighbor": false,
        "deviceApproach": false,
        "label": "chord-tone"
      },
      {
        "midi": 56,
        "duration": 1,
        "velocity": 114,
        "position": 13,
        "beatPosition": 5,
        "isDownbeat": false,
        "prevInterval": -15,
        "nextInterval": 8,
        "chordRoot": 4,
        "isMinor": true,
        "isDominant": false,
        "isMajor": true,
        "isChordTone": true,
        "isScaleStep": false,
        "isChromatic": false,
        "deviceArpeggio": true,
        "deviceEnclosure": false,
        "deviceNeighbor": false,
        "deviceApproach": false,
        "label": "chord-tone"
      },
      {
        "midi": 64,
        "duration": 1,
        "velocity": 114,
        "position": 14,
        "beatPosition": 6,
        "isDownbeat": false,
        "prevInterval": 8,
        "nextInterval": 0,
        "chordRoot": 4,
        "isMinor": true,
        "isDominant": false,
        "isMajor": true,
        "isChordTone": true,
        "isScaleStep": false,
        "isChromatic": false,
        "deviceArpeggio": true,
        "deviceEnclosure": false,
        "deviceNeighbor": false,
        "deviceApproach": false,
        "label": "chord-tone"
      }
    ]
  },
  {
    "id": 7,
    "metadata": {
      "key": "Db",
      "progressionType": "ii-V",
      "deviceStrategy": "varied",
      "swing": 0.7,
      "numNotes": 14,
      "duration": 7
    },
    "notes": [
      {
        "midi": 61,
        "noteName": "C#4",
        "degree": "1",
        "startBeat": 0,
        "durationBeats": 0.6166666666666667,
        "velocity": 0.9,
        "ruleId": "chord-tone",
        "harmonicFunction": "chord-tone",
        "device": "scale-run",
        "chordSymbol": "Dbm7",
        "rootPc": 1,
        "quality": "m7",
        "scaleName": "dorian"
      },
      {
        "startBeat": 0.6166666666666667,
        "durationBeats": 0.38333333333333336,
        "midi": 59,
        "velocity": 0.9,
        "device": "scale-run",
        "chordSymbol": "Dbm7",
        "rootPc": 1,
        "quality": "m7",
        "scaleName": "dorian",
        "ruleId": "scale-run-chord-tone",
        "harmonicFunction": "chord-tone",
        "noteName": "B3",
        "degree": "b7"
      },
      {
        "startBeat": 1,
        "durationBeats": 0.6166666666666667,
        "midi": 58,
        "velocity": 0.9,
        "device": "scale-run",
        "chordSymbol": "Dbm7",
        "rootPc": 1,
        "quality": "m7",
        "scaleName": "dorian",
        "ruleId": "scale-step",
        "harmonicFunction": "scale-step",
        "noteName": "A#3",
        "degree": "6"
      },
      {
        "startBeat": 1.6166666666666667,
        "durationBeats": 0.38333333333333336,
        "midi": 56,
        "velocity": 0.9,
        "device": "scale-run",
        "chordSymbol": "Dbm7",
        "rootPc": 1,
        "quality": "m7",
        "scaleName": "dorian",
        "ruleId": "scale-run-chord-tone",
        "harmonicFunction": "chord-tone",
        "noteName": "G#3",
        "degree": "5"
      },
      {
        "startBeat": 2,
        "durationBeats": 0.6166666666666667,
        "midi": 58,
        "velocity": 0.9,
        "device": "scale-run",
        "chordSymbol": "Dbm7",
        "rootPc": 1,
        "quality": "m7",
        "scaleName": "dorian",
        "ruleId": "scale-step",
        "harmonicFunction": "scale-step",
        "noteName": "A#3",
        "degree": "6"
      },
      {
        "startBeat": 2.6166666666666667,
        "durationBeats": 0.38333333333333336,
        "midi": 59,
        "velocity": 0.9,
        "device": "scale-run",
        "chordSymbol": "Dbm7",
        "rootPc": 1,
        "quality": "m7",
        "scaleName": "dorian",
        "ruleId": "scale-run-chord-tone",
        "harmonicFunction": "chord-tone",
        "noteName": "B3",
        "degree": "b7"
      },
      {
        "startBeat": 3,
        "durationBeats": 0.6166666666666667,
        "midi": 61,
        "velocity": 0.9,
        "device": "scale-run",
        "chordSymbol": "Dbm7",
        "rootPc": 1,
        "quality": "m7",
        "scaleName": "dorian",
        "ruleId": "scale-run-chord-tone",
        "harmonicFunction": "chord-tone",
        "noteName": "C#4",
        "degree": "1"
      },
      {
        "startBeat": 3.6166666666666667,
        "durationBeats": 0.38333333333333336,
        "midi": 63,
        "velocity": 0.9,
        "device": "scale-run",
        "chordSymbol": "Dbm7",
        "rootPc": 1,
        "quality": "m7",
        "scaleName": "dorian",
        "ruleId": "scale-step",
        "harmonicFunction": "scale-step",
        "noteName": "D#4",
        "degree": "2"
      },
      {
        "midi": 66,
        "noteName": "F#4",
        "degree": "b7",
        "startBeat": 4,
        "durationBeats": 0.6166666666666667,
        "velocity": 0.9,
        "ruleId": "chord-tone",
        "harmonicFunction": "chord-tone",
        "device": "scale-run",
        "chordSymbol": "Ab7",
        "rootPc": 8,
        "quality": "7",
        "scaleName": "mixolydian"
      },
      {
        "startBeat": 4.616666666666666,
        "durationBeats": 0.38333333333333336,
        "midi": 65,
        "velocity": 0.9,
        "device": "scale-run",
        "chordSymbol": "Ab7",
        "rootPc": 8,
        "quality": "7",
        "scaleName": "mixolydian",
        "ruleId": "scale-step",
        "harmonicFunction": "scale-step",
        "noteName": "F4",
        "degree": "6"
      },
      {
        "startBeat": 5,
        "durationBeats": 0.6166666666666667,
        "midi": 63,
        "velocity": 0.9,
        "device": "scale-run",
        "chordSymbol": "Ab7",
        "rootPc": 8,
        "quality": "7",
        "scaleName": "mixolydian",
        "ruleId": "scale-run-chord-tone",
        "harmonicFunction": "chord-tone",
        "noteName": "D#4",
        "degree": "5"
      },
      {
        "startBeat": 5.616666666666666,
        "durationBeats": 0.38333333333333336,
        "midi": 61,
        "velocity": 0.9,
        "device": "scale-run",
        "chordSymbol": "Ab7",
        "rootPc": 8,
        "quality": "7",
        "scaleName": "mixolydian",
        "ruleId": "scale-step",
        "harmonicFunction": "scale-step",
        "noteName": "C#4",
        "degree": "4"
      },
      {
        "startBeat": 6,
        "durationBeats": 0.6166666666666667,
        "midi": 60,
        "velocity": 0.9,
        "device": "scale-run",
        "chordSymbol": "Ab7",
        "rootPc": 8,
        "quality": "7",
        "scaleName": "mixolydian",
        "ruleId": "scale-run-chord-tone",
        "harmonicFunction": "chord-tone",
        "noteName": "C4",
        "degree": "3"
      },
      {
        "startBeat": 6.616666666666666,
        "durationBeats": 0.38333333333333336,
        "midi": 58,
        "velocity": 0.9,
        "device": "scale-run",
        "chordSymbol": "Ab7",
        "rootPc": 8,
        "quality": "7",
        "scaleName": "mixolydian",
        "ruleId": "scale-step",
        "harmonicFunction": "scale-step",
        "noteName": "A#3",
        "degree": "2"
      }
    ],
    "tokens": [
      {
        "midi": 61,
        "duration": 1,
        "velocity": 114,
        "degree": "1",
        "harmonicFunction": "chord-tone",
        "device": "scale-run",
        "chordRoot": 1,
        "chordQuality": "m7",
        "scale": "dorian"
      },
      {
        "midi": 59,
        "duration": 1,
        "velocity": 114,
        "degree": "b7",
        "harmonicFunction": "chord-tone",
        "device": "scale-run",
        "chordRoot": 1,
        "chordQuality": "m7",
        "scale": "dorian"
      },
      {
        "midi": 58,
        "duration": 1,
        "velocity": 114,
        "degree": "6",
        "harmonicFunction": "scale-step",
        "device": "scale-run",
        "chordRoot": 1,
        "chordQuality": "m7",
        "scale": "dorian"
      },
      {
        "midi": 56,
        "duration": 1,
        "velocity": 114,
        "degree": "5",
        "harmonicFunction": "chord-tone",
        "device": "scale-run",
        "chordRoot": 1,
        "chordQuality": "m7",
        "scale": "dorian"
      },
      {
        "midi": 58,
        "duration": 1,
        "velocity": 114,
        "degree": "6",
        "harmonicFunction": "scale-step",
        "device": "scale-run",
        "chordRoot": 1,
        "chordQuality": "m7",
        "scale": "dorian"
      },
      {
        "midi": 59,
        "duration": 1,
        "velocity": 114,
        "degree": "b7",
        "harmonicFunction": "chord-tone",
        "device": "scale-run",
        "chordRoot": 1,
        "chordQuality": "m7",
        "scale": "dorian"
      },
      {
        "midi": 61,
        "duration": 1,
        "velocity": 114,
        "degree": "1",
        "harmonicFunction": "chord-tone",
        "device": "scale-run",
        "chordRoot": 1,
        "chordQuality": "m7",
        "scale": "dorian"
      },
      {
        "midi": 63,
        "duration": 1,
        "velocity": 114,
        "degree": "2",
        "harmonicFunction": "scale-step",
        "device": "scale-run",
        "chordRoot": 1,
        "chordQuality": "m7",
        "scale": "dorian"
      },
      {
        "midi": 66,
        "duration": 1,
        "velocity": 114,
        "degree": "b7",
        "harmonicFunction": "chord-tone",
        "device": "scale-run",
        "chordRoot": 8,
        "chordQuality": "7",
        "scale": "mixolydian"
      },
      {
        "midi": 65,
        "duration": 1,
        "velocity": 114,
        "degree": "6",
        "harmonicFunction": "scale-step",
        "device": "scale-run",
        "chordRoot": 8,
        "chordQuality": "7",
        "scale": "mixolydian"
      },
      {
        "midi": 63,
        "duration": 1,
        "velocity": 114,
        "degree": "5",
        "harmonicFunction": "chord-tone",
        "device": "scale-run",
        "chordRoot": 8,
        "chordQuality": "7",
        "scale": "mixolydian"
      },
      {
        "midi": 61,
        "duration": 1,
        "velocity": 114,
        "degree": "4",
        "harmonicFunction": "scale-step",
        "device": "scale-run",
        "chordRoot": 8,
        "chordQuality": "7",
        "scale": "mixolydian"
      },
      {
        "midi": 60,
        "duration": 1,
        "velocity": 114,
        "degree": "3",
        "harmonicFunction": "chord-tone",
        "device": "scale-run",
        "chordRoot": 8,
        "chordQuality": "7",
        "scale": "mixolydian"
      },
      {
        "midi": 58,
        "duration": 1,
        "velocity": 114,
        "degree": "2",
        "harmonicFunction": "scale-step",
        "device": "scale-run",
        "chordRoot": 8,
        "chordQuality": "7",
        "scale": "mixolydian"
      }
    ],
    "sequences": {
      "midi": [
        61,
        59,
        58,
        56,
        58,
        59,
        61,
        63,
        66,
        65,
        63,
        61,
        60,
        58
      ],
      "intervals": [
        0,
        -2,
        -1,
        -2,
        2,
        1,
        2,
        2,
        3,
        -1,
        -2,
        -2,
        -1,
        -2
      ],
      "degrees": [
        1,
        7,
        0,
        5,
        0,
        7,
        1,
        2,
        7,
        0,
        5,
        4,
        3,
        2
      ]
    },
    "features": [
      {
        "midi": 61,
        "duration": 1,
        "velocity": 114,
        "position": 0,
        "beatPosition": 0,
        "isDownbeat": true,
        "prevInterval": 0,
        "nextInterval": -2,
        "chordRoot": 1,
        "isMinor": true,
        "isDominant": true,
        "isMajor": false,
        "isChordTone": true,
        "isScaleStep": false,
        "isChromatic": false,
        "deviceArpeggio": false,
        "deviceEnclosure": false,
        "deviceNeighbor": false,
        "deviceApproach": false,
        "label": "chord-tone"
      },
      {
        "midi": 59,
        "duration": 1,
        "velocity": 114,
        "position": 1,
        "beatPosition": 1,
        "isDownbeat": false,
        "prevInterval": -2,
        "nextInterval": -1,
        "chordRoot": 1,
        "isMinor": true,
        "isDominant": true,
        "isMajor": false,
        "isChordTone": true,
        "isScaleStep": false,
        "isChromatic": false,
        "deviceArpeggio": false,
        "deviceEnclosure": false,
        "deviceNeighbor": false,
        "deviceApproach": false,
        "label": "chord-tone"
      },
      {
        "midi": 58,
        "duration": 1,
        "velocity": 114,
        "position": 2,
        "beatPosition": 2,
        "isDownbeat": false,
        "prevInterval": -1,
        "nextInterval": -2,
        "chordRoot": 1,
        "isMinor": true,
        "isDominant": true,
        "isMajor": false,
        "isChordTone": false,
        "isScaleStep": true,
        "isChromatic": false,
        "deviceArpeggio": false,
        "deviceEnclosure": false,
        "deviceNeighbor": false,
        "deviceApproach": false,
        "label": "scale-step"
      },
      {
        "midi": 56,
        "duration": 1,
        "velocity": 114,
        "position": 3,
        "beatPosition": 3,
        "isDownbeat": false,
        "prevInterval": -2,
        "nextInterval": 2,
        "chordRoot": 1,
        "isMinor": true,
        "isDominant": true,
        "isMajor": false,
        "isChordTone": true,
        "isScaleStep": false,
        "isChromatic": false,
        "deviceArpeggio": false,
        "deviceEnclosure": false,
        "deviceNeighbor": false,
        "deviceApproach": false,
        "label": "chord-tone"
      },
      {
        "midi": 58,
        "duration": 1,
        "velocity": 114,
        "position": 4,
        "beatPosition": 4,
        "isDownbeat": false,
        "prevInterval": 2,
        "nextInterval": 1,
        "chordRoot": 1,
        "isMinor": true,
        "isDominant": true,
        "isMajor": false,
        "isChordTone": false,
        "isScaleStep": true,
        "isChromatic": false,
        "deviceArpeggio": false,
        "deviceEnclosure": false,
        "deviceNeighbor": false,
        "deviceApproach": false,
        "label": "scale-step"
      },
      {
        "midi": 59,
        "duration": 1,
        "velocity": 114,
        "position": 5,
        "beatPosition": 5,
        "isDownbeat": false,
        "prevInterval": 1,
        "nextInterval": 2,
        "chordRoot": 1,
        "isMinor": true,
        "isDominant": true,
        "isMajor": false,
        "isChordTone": true,
        "isScaleStep": false,
        "isChromatic": false,
        "deviceArpeggio": false,
        "deviceEnclosure": false,
        "deviceNeighbor": false,
        "deviceApproach": false,
        "label": "chord-tone"
      },
      {
        "midi": 61,
        "duration": 1,
        "velocity": 114,
        "position": 6,
        "beatPosition": 6,
        "isDownbeat": false,
        "prevInterval": 2,
        "nextInterval": 2,
        "chordRoot": 1,
        "isMinor": true,
        "isDominant": true,
        "isMajor": false,
        "isChordTone": true,
        "isScaleStep": false,
        "isChromatic": false,
        "deviceArpeggio": false,
        "deviceEnclosure": false,
        "deviceNeighbor": false,
        "deviceApproach": false,
        "label": "chord-tone"
      },
      {
        "midi": 63,
        "duration": 1,
        "velocity": 114,
        "position": 7,
        "beatPosition": 7,
        "isDownbeat": false,
        "prevInterval": 2,
        "nextInterval": 3,
        "chordRoot": 1,
        "isMinor": true,
        "isDominant": true,
        "isMajor": false,
        "isChordTone": false,
        "isScaleStep": true,
        "isChromatic": false,
        "deviceArpeggio": false,
        "deviceEnclosure": false,
        "deviceNeighbor": false,
        "deviceApproach": false,
        "label": "scale-step"
      },
      {
        "midi": 66,
        "duration": 1,
        "velocity": 114,
        "position": 8,
        "beatPosition": 0,
        "isDownbeat": true,
        "prevInterval": 3,
        "nextInterval": -1,
        "chordRoot": 8,
        "isMinor": false,
        "isDominant": true,
        "isMajor": false,
        "isChordTone": true,
        "isScaleStep": false,
        "isChromatic": false,
        "deviceArpeggio": false,
        "deviceEnclosure": false,
        "deviceNeighbor": false,
        "deviceApproach": false,
        "label": "chord-tone"
      },
      {
        "midi": 65,
        "duration": 1,
        "velocity": 114,
        "position": 9,
        "beatPosition": 1,
        "isDownbeat": false,
        "prevInterval": -1,
        "nextInterval": -2,
        "chordRoot": 8,
        "isMinor": false,
        "isDominant": true,
        "isMajor": false,
        "isChordTone": false,
        "isScaleStep": true,
        "isChromatic": false,
        "deviceArpeggio": false,
        "deviceEnclosure": false,
        "deviceNeighbor": false,
        "deviceApproach": false,
        "label": "scale-step"
      },
      {
        "midi": 63,
        "duration": 1,
        "velocity": 114,
        "position": 10,
        "beatPosition": 2,
        "isDownbeat": false,
        "prevInterval": -2,
        "nextInterval": -2,
        "chordRoot": 8,
        "isMinor": false,
        "isDominant": true,
        "isMajor": false,
        "isChordTone": true,
        "isScaleStep": false,
        "isChromatic": false,
        "deviceArpeggio": false,
        "deviceEnclosure": false,
        "deviceNeighbor": false,
        "deviceApproach": false,
        "label": "chord-tone"
      },
      {
        "midi": 61,
        "duration": 1,
        "velocity": 114,
        "position": 11,
        "beatPosition": 3,
        "isDownbeat": false,
        "prevInterval": -2,
        "nextInterval": -1,
        "chordRoot": 8,
        "isMinor": false,
        "isDominant": true,
        "isMajor": false,
        "isChordTone": false,
        "isScaleStep": true,
        "isChromatic": false,
        "deviceArpeggio": false,
        "deviceEnclosure": false,
        "deviceNeighbor": false,
        "deviceApproach": false,
        "label": "scale-step"
      },
      {
        "midi": 60,
        "duration": 1,
        "velocity": 114,
        "position": 12,
        "beatPosition": 4,
        "isDownbeat": false,
        "prevInterval": -1,
        "nextInterval": -2,
        "chordRoot": 8,
        "isMinor": false,
        "isDominant": true,
        "isMajor": false,
        "isChordTone": true,
        "isScaleStep": false,
        "isChromatic": false,
        "deviceArpeggio": false,
        "deviceEnclosure": false,
        "deviceNeighbor": false,
        "deviceApproach": false,
        "label": "chord-tone"
      },
      {
        "midi": 58,
        "duration": 1,
        "velocity": 114,
        "position": 13,
        "beatPosition": 5,
        "isDownbeat": false,
        "prevInterval": -2,
        "nextInterval": 0,
        "chordRoot": 8,
        "isMinor": false,
        "isDominant": true,
        "isMajor": false,
        "isChordTone": false,
        "isScaleStep": true,
        "isChromatic": false,
        "deviceArpeggio": false,
        "deviceEnclosure": false,
        "deviceNeighbor": false,
        "deviceApproach": false,
        "label": "scale-step"
      }
    ]
  },
  {
    "id": 8,
    "metadata": {
      "key": "C",
      "progressionType": "ii-V-I",
      "deviceStrategy": "arpeggio-heavy",
      "swing": 0.5,
      "numNotes": 23,
      "duration": 11.5
    },
    "notes": [
      {
        "midi": 70,
        "noteName": "A#4",
        "degree": "b7",
        "startBeat": 0,
        "durationBeats": 0.5833333333333334,
        "velocity": 0.9,
        "ruleId": "chord-tone",
        "harmonicFunction": "chord-tone",
        "device": "arpeggio",
        "chordSymbol": "Cm7",
        "rootPc": 0,
        "quality": "m7",
        "scaleName": "dorian"
      },
      {
        "startBeat": 0.5833333333333334,
        "durationBeats": 0.4166666666666667,
        "midi": 67,
        "velocity": 0.9,
        "device": "arpeggio",
        "chordSymbol": "Cm7",
        "rootPc": 0,
        "quality": "m7",
        "scaleName": "dorian",
        "ruleId": "arpeggio",
        "harmonicFunction": "chord-tone",
        "noteName": "G4",
        "degree": "5"
      },
      {
        "startBeat": 1,
        "durationBeats": 0.5833333333333334,
        "midi": 63,
        "velocity": 0.9,
        "device": "arpeggio",
        "chordSymbol": "Cm7",
        "rootPc": 0,
        "quality": "m7",
        "scaleName": "dorian",
        "ruleId": "arpeggio",
        "harmonicFunction": "chord-tone",
        "noteName": "D#4",
        "degree": "b3"
      },
      {
        "startBeat": 1.5833333333333333,
        "durationBeats": 0.4166666666666667,
        "midi": 60,
        "velocity": 0.9,
        "device": "arpeggio",
        "chordSymbol": "Cm7",
        "rootPc": 0,
        "quality": "m7",
        "scaleName": "dorian",
        "ruleId": "arpeggio",
        "harmonicFunction": "chord-tone",
        "noteName": "C4",
        "degree": "1"
      },
      {
        "startBeat": 2,
        "durationBeats": 0.5833333333333334,
        "midi": 70,
        "velocity": 0.9,
        "device": "arpeggio",
        "chordSymbol": "Cm7",
        "rootPc": 0,
        "quality": "m7",
        "scaleName": "dorian",
        "ruleId": "arpeggio",
        "harmonicFunction": "chord-tone",
        "noteName": "A#4",
        "degree": "b7"
      },
      {
        "startBeat": 2.5833333333333335,
        "durationBeats": 0.4166666666666667,
        "midi": 55,
        "velocity": 0.9,
        "device": "arpeggio",
        "chordSymbol": "Cm7",
        "rootPc": 0,
        "quality": "m7",
        "scaleName": "dorian",
        "ruleId": "arpeggio",
        "harmonicFunction": "chord-tone",
        "noteName": "G3",
        "degree": "5"
      },
      {
        "startBeat": 3,
        "durationBeats": 0.5833333333333334,
        "midi": 69,
        "velocity": 0.9,
        "device": "arpeggio",
        "chordSymbol": "Cm7",
        "rootPc": 0,
        "quality": "m7",
        "scaleName": "dorian",
        "ruleId": "arpeggio",
        "harmonicFunction": "chord-tone",
        "noteName": "A4",
        "degree": "13"
      },
      {
        "startBeat": 3.5833333333333335,
        "durationBeats": 0.4166666666666667,
        "midi": 69,
        "velocity": 0.9,
        "device": "arpeggio",
        "chordSymbol": "Cm7",
        "rootPc": 0,
        "quality": "m7",
        "scaleName": "dorian",
        "ruleId": "arpeggio",
        "harmonicFunction": "chord-tone",
        "noteName": "A4",
        "degree": "13"
      },
      {
        "midi": 71,
        "noteName": "B4",
        "degree": "3",
        "startBeat": 4,
        "durationBeats": 0.5833333333333334,
        "velocity": 0.9,
        "ruleId": "chord-tone",
        "harmonicFunction": "chord-tone",
        "device": "arpeggio",
        "chordSymbol": "G7",
        "rootPc": 7,
        "quality": "7",
        "scaleName": "mixolydian"
      },
      {
        "startBeat": 4.583333333333333,
        "durationBeats": 0.4166666666666667,
        "midi": 67,
        "velocity": 0.9,
        "device": "arpeggio",
        "chordSymbol": "G7",
        "rootPc": 7,
        "quality": "7",
        "scaleName": "mixolydian",
        "ruleId": "arpeggio",
        "harmonicFunction": "chord-tone",
        "noteName": "G4",
        "degree": "1"
      },
      {
        "startBeat": 5,
        "durationBeats": 0.5833333333333334,
        "midi": 65,
        "velocity": 0.9,
        "device": "arpeggio",
        "chordSymbol": "G7",
        "rootPc": 7,
        "quality": "7",
        "scaleName": "mixolydian",
        "ruleId": "arpeggio",
        "harmonicFunction": "chord-tone",
        "noteName": "F4",
        "degree": "b7"
      },
      {
        "startBeat": 5.583333333333333,
        "durationBeats": 0.4166666666666667,
        "midi": 62,
        "velocity": 0.9,
        "device": "arpeggio",
        "chordSymbol": "G7",
        "rootPc": 7,
        "quality": "7",
        "scaleName": "mixolydian",
        "ruleId": "arpeggio",
        "harmonicFunction": "chord-tone",
        "noteName": "D4",
        "degree": "5"
      },
      {
        "startBeat": 6,
        "durationBeats": 0.5833333333333334,
        "midi": 71,
        "velocity": 0.9,
        "device": "arpeggio",
        "chordSymbol": "G7",
        "rootPc": 7,
        "quality": "7",
        "scaleName": "mixolydian",
        "ruleId": "arpeggio",
        "harmonicFunction": "chord-tone",
        "noteName": "B4",
        "degree": "3"
      },
      {
        "startBeat": 6.583333333333333,
        "durationBeats": 0.4166666666666667,
        "midi": 67,
        "velocity": 0.9,
        "device": "arpeggio",
        "chordSymbol": "G7",
        "rootPc": 7,
        "quality": "7",
        "scaleName": "mixolydian",
        "ruleId": "arpeggio",
        "harmonicFunction": "chord-tone",
        "noteName": "G4",
        "degree": "1"
      },
      {
        "startBeat": 7,
        "durationBeats": 0.5833333333333334,
        "midi": 70,
        "velocity": 0.9,
        "device": "arpeggio",
        "chordSymbol": "G7",
        "rootPc": 7,
        "quality": "7",
        "scaleName": "mixolydian",
        "ruleId": "arpeggio",
        "harmonicFunction": "chord-tone",
        "noteName": "A#4",
        "degree": "b3"
      },
      {
        "startBeat": 7.583333333333333,
        "durationBeats": 0.4166666666666667,
        "midi": 70,
        "velocity": 0.9,
        "device": "arpeggio",
        "chordSymbol": "G7",
        "rootPc": 7,
        "quality": "7",
        "scaleName": "mixolydian",
        "ruleId": "arpeggio",
        "harmonicFunction": "chord-tone",
        "noteName": "A#4",
        "degree": "b3"
      },
      {
        "midi": 72,
        "noteName": "C5",
        "degree": "1",
        "startBeat": 8,
        "durationBeats": 0.5833333333333334,
        "velocity": 0.9,
        "ruleId": "chord-tone",
        "harmonicFunction": "chord-tone",
        "device": "arpeggio",
        "chordSymbol": "Cmaj7",
        "rootPc": 0,
        "quality": "maj7",
        "scaleName": "ionian"
      },
      {
        "startBeat": 8.583333333333334,
        "durationBeats": 0.4166666666666667,
        "midi": 76,
        "velocity": 0.9,
        "device": "arpeggio",
        "chordSymbol": "Cmaj7",
        "rootPc": 0,
        "quality": "maj7",
        "scaleName": "ionian",
        "ruleId": "arpeggio",
        "harmonicFunction": "chord-tone",
        "noteName": "E5",
        "degree": "3"
      },
      {
        "startBeat": 9,
        "durationBeats": 0.5833333333333334,
        "midi": 79,
        "velocity": 0.9,
        "device": "arpeggio",
        "chordSymbol": "Cmaj7",
        "rootPc": 0,
        "quality": "maj7",
        "scaleName": "ionian",
        "ruleId": "arpeggio",
        "harmonicFunction": "chord-tone",
        "noteName": "G5",
        "degree": "5"
      },
      {
        "startBeat": 9.583333333333334,
        "durationBeats": 0.4166666666666667,
        "midi": 71,
        "velocity": 0.9,
        "device": "arpeggio",
        "chordSymbol": "Cmaj7",
        "rootPc": 0,
        "quality": "maj7",
        "scaleName": "ionian",
        "ruleId": "arpeggio",
        "harmonicFunction": "chord-tone",
        "noteName": "B4",
        "degree": "7"
      },
      {
        "startBeat": 10,
        "durationBeats": 0.5833333333333334,
        "midi": 60,
        "velocity": 0.9,
        "device": "arpeggio",
        "chordSymbol": "Cmaj7",
        "rootPc": 0,
        "quality": "maj7",
        "scaleName": "ionian",
        "ruleId": "arpeggio",
        "harmonicFunction": "chord-tone",
        "noteName": "C4",
        "degree": "1"
      },
      {
        "startBeat": 10.583333333333334,
        "durationBeats": 0.4166666666666667,
        "midi": 64,
        "velocity": 0.9,
        "device": "arpeggio",
        "chordSymbol": "Cmaj7",
        "rootPc": 0,
        "quality": "maj7",
        "scaleName": "ionian",
        "ruleId": "arpeggio",
        "harmonicFunction": "chord-tone",
        "noteName": "E4",
        "degree": "3"
      },
      {
        "startBeat": 11,
        "durationBeats": 0.5,
        "midi": 67,
        "velocity": 0.9,
        "device": "arpeggio",
        "chordSymbol": "Cmaj7",
        "rootPc": 0,
        "quality": "maj7",
        "scaleName": "ionian",
        "ruleId": "arpeggio",
        "harmonicFunction": "chord-tone",
        "noteName": "G4",
        "degree": "5"
      }
    ],
    "tokens": [
      {
        "midi": 70,
        "duration": 1,
        "velocity": 114,
        "degree": "b7",
        "harmonicFunction": "chord-tone",
        "device": "arpeggio",
        "chordRoot": 0,
        "chordQuality": "m7",
        "scale": "dorian"
      },
      {
        "midi": 67,
        "duration": 1,
        "velocity": 114,
        "degree": "5",
        "harmonicFunction": "chord-tone",
        "device": "arpeggio",
        "chordRoot": 0,
        "chordQuality": "m7",
        "scale": "dorian"
      },
      {
        "midi": 63,
        "duration": 1,
        "velocity": 114,
        "degree": "b3",
        "harmonicFunction": "chord-tone",
        "device": "arpeggio",
        "chordRoot": 0,
        "chordQuality": "m7",
        "scale": "dorian"
      },
      {
        "midi": 60,
        "duration": 1,
        "velocity": 114,
        "degree": "1",
        "harmonicFunction": "chord-tone",
        "device": "arpeggio",
        "chordRoot": 0,
        "chordQuality": "m7",
        "scale": "dorian"
      },
      {
        "midi": 70,
        "duration": 1,
        "velocity": 114,
        "degree": "b7",
        "harmonicFunction": "chord-tone",
        "device": "arpeggio",
        "chordRoot": 0,
        "chordQuality": "m7",
        "scale": "dorian"
      },
      {
        "midi": 55,
        "duration": 1,
        "velocity": 114,
        "degree": "5",
        "harmonicFunction": "chord-tone",
        "device": "arpeggio",
        "chordRoot": 0,
        "chordQuality": "m7",
        "scale": "dorian"
      },
      {
        "midi": 69,
        "duration": 1,
        "velocity": 114,
        "degree": "13",
        "harmonicFunction": "chord-tone",
        "device": "arpeggio",
        "chordRoot": 0,
        "chordQuality": "m7",
        "scale": "dorian"
      },
      {
        "midi": 69,
        "duration": 1,
        "velocity": 114,
        "degree": "13",
        "harmonicFunction": "chord-tone",
        "device": "arpeggio",
        "chordRoot": 0,
        "chordQuality": "m7",
        "scale": "dorian"
      },
      {
        "midi": 71,
        "duration": 1,
        "velocity": 114,
        "degree": "3",
        "harmonicFunction": "chord-tone",
        "device": "arpeggio",
        "chordRoot": 7,
        "chordQuality": "7",
        "scale": "mixolydian"
      },
      {
        "midi": 67,
        "duration": 1,
        "velocity": 114,
        "degree": "1",
        "harmonicFunction": "chord-tone",
        "device": "arpeggio",
        "chordRoot": 7,
        "chordQuality": "7",
        "scale": "mixolydian"
      },
      {
        "midi": 65,
        "duration": 1,
        "velocity": 114,
        "degree": "b7",
        "harmonicFunction": "chord-tone",
        "device": "arpeggio",
        "chordRoot": 7,
        "chordQuality": "7",
        "scale": "mixolydian"
      },
      {
        "midi": 62,
        "duration": 1,
        "velocity": 114,
        "degree": "5",
        "harmonicFunction": "chord-tone",
        "device": "arpeggio",
        "chordRoot": 7,
        "chordQuality": "7",
        "scale": "mixolydian"
      },
      {
        "midi": 71,
        "duration": 1,
        "velocity": 114,
        "degree": "3",
        "harmonicFunction": "chord-tone",
        "device": "arpeggio",
        "chordRoot": 7,
        "chordQuality": "7",
        "scale": "mixolydian"
      },
      {
        "midi": 67,
        "duration": 1,
        "velocity": 114,
        "degree": "1",
        "harmonicFunction": "chord-tone",
        "device": "arpeggio",
        "chordRoot": 7,
        "chordQuality": "7",
        "scale": "mixolydian"
      },
      {
        "midi": 70,
        "duration": 1,
        "velocity": 114,
        "degree": "b3",
        "harmonicFunction": "chord-tone",
        "device": "arpeggio",
        "chordRoot": 7,
        "chordQuality": "7",
        "scale": "mixolydian"
      },
      {
        "midi": 70,
        "duration": 1,
        "velocity": 114,
        "degree": "b3",
        "harmonicFunction": "chord-tone",
        "device": "arpeggio",
        "chordRoot": 7,
        "chordQuality": "7",
        "scale": "mixolydian"
      },
      {
        "midi": 72,
        "duration": 1,
        "velocity": 114,
        "degree": "1",
        "harmonicFunction": "chord-tone",
        "device": "arpeggio",
        "chordRoot": 0,
        "chordQuality": "maj7",
        "scale": "ionian"
      },
      {
        "midi": 76,
        "duration": 1,
        "velocity": 114,
        "degree": "3",
        "harmonicFunction": "chord-tone",
        "device": "arpeggio",
        "chordRoot": 0,
        "chordQuality": "maj7",
        "scale": "ionian"
      },
      {
        "midi": 79,
        "duration": 1,
        "velocity": 114,
        "degree": "5",
        "harmonicFunction": "chord-tone",
        "device": "arpeggio",
        "chordRoot": 0,
        "chordQuality": "maj7",
        "scale": "ionian"
      },
      {
        "midi": 71,
        "duration": 1,
        "velocity": 114,
        "degree": "7",
        "harmonicFunction": "chord-tone",
        "device": "arpeggio",
        "chordRoot": 0,
        "chordQuality": "maj7",
        "scale": "ionian"
      },
      {
        "midi": 60,
        "duration": 1,
        "velocity": 114,
        "degree": "1",
        "harmonicFunction": "chord-tone",
        "device": "arpeggio",
        "chordRoot": 0,
        "chordQuality": "maj7",
        "scale": "ionian"
      },
      {
        "midi": 64,
        "duration": 1,
        "velocity": 114,
        "degree": "3",
        "harmonicFunction": "chord-tone",
        "device": "arpeggio",
        "chordRoot": 0,
        "chordQuality": "maj7",
        "scale": "ionian"
      },
      {
        "midi": 67,
        "duration": 1,
        "velocity": 114,
        "degree": "5",
        "harmonicFunction": "chord-tone",
        "device": "arpeggio",
        "chordRoot": 0,
        "chordQuality": "maj7",
        "scale": "ionian"
      }
    ],
    "sequences": {
      "midi": [
        70,
        67,
        63,
        60,
        70,
        55,
        69,
        69,
        71,
        67,
        65,
        62,
        71,
        67,
        70,
        70,
        72,
        76,
        79,
        71,
        60,
        64,
        67
      ],
      "intervals": [
        0,
        -3,
        -4,
        -3,
        10,
        -15,
        14,
        0,
        2,
        -4,
        -2,
        -3,
        9,
        -4,
        3,
        0,
        2,
        4,
        3,
        -8,
        -11,
        4,
        3
      ],
      "degrees": [
        7,
        5,
        3,
        1,
        7,
        5,
        6,
        6,
        3,
        1,
        7,
        5,
        3,
        1,
        3,
        3,
        1,
        3,
        5,
        7,
        1,
        3,
        5
      ]
    },
    "features": [
      {
        "midi": 70,
        "duration": 1,
        "velocity": 114,
        "position": 0,
        "beatPosition": 0,
        "isDownbeat": true,
        "prevInterval": 0,
        "nextInterval": -3,
        "chordRoot": 0,
        "isMinor": true,
        "isDominant": true,
        "isMajor": false,
        "isChordTone": true,
        "isScaleStep": false,
        "isChromatic": false,
        "deviceArpeggio": true,
        "deviceEnclosure": false,
        "deviceNeighbor": false,
        "deviceApproach": false,
        "label": "chord-tone"
      },
      {
        "midi": 67,
        "duration": 1,
        "velocity": 114,
        "position": 1,
        "beatPosition": 1,
        "isDownbeat": false,
        "prevInterval": -3,
        "nextInterval": -4,
        "chordRoot": 0,
        "isMinor": true,
        "isDominant": true,
        "isMajor": false,
        "isChordTone": true,
        "isScaleStep": false,
        "isChromatic": false,
        "deviceArpeggio": true,
        "deviceEnclosure": false,
        "deviceNeighbor": false,
        "deviceApproach": false,
        "label": "chord-tone"
      },
      {
        "midi": 63,
        "duration": 1,
        "velocity": 114,
        "position": 2,
        "beatPosition": 2,
        "isDownbeat": false,
        "prevInterval": -4,
        "nextInterval": -3,
        "chordRoot": 0,
        "isMinor": true,
        "isDominant": true,
        "isMajor": false,
        "isChordTone": true,
        "isScaleStep": false,
        "isChromatic": false,
        "deviceArpeggio": true,
        "deviceEnclosure": false,
        "deviceNeighbor": false,
        "deviceApproach": false,
        "label": "chord-tone"
      },
      {
        "midi": 60,
        "duration": 1,
        "velocity": 114,
        "position": 3,
        "beatPosition": 3,
        "isDownbeat": false,
        "prevInterval": -3,
        "nextInterval": 10,
        "chordRoot": 0,
        "isMinor": true,
        "isDominant": true,
        "isMajor": false,
        "isChordTone": true,
        "isScaleStep": false,
        "isChromatic": false,
        "deviceArpeggio": true,
        "deviceEnclosure": false,
        "deviceNeighbor": false,
        "deviceApproach": false,
        "label": "chord-tone"
      },
      {
        "midi": 70,
        "duration": 1,
        "velocity": 114,
        "position": 4,
        "beatPosition": 4,
        "isDownbeat": false,
        "prevInterval": 10,
        "nextInterval": -15,
        "chordRoot": 0,
        "isMinor": true,
        "isDominant": true,
        "isMajor": false,
        "isChordTone": true,
        "isScaleStep": false,
        "isChromatic": false,
        "deviceArpeggio": true,
        "deviceEnclosure": false,
        "deviceNeighbor": false,
        "deviceApproach": false,
        "label": "chord-tone"
      },
      {
        "midi": 55,
        "duration": 1,
        "velocity": 114,
        "position": 5,
        "beatPosition": 5,
        "isDownbeat": false,
        "prevInterval": -15,
        "nextInterval": 14,
        "chordRoot": 0,
        "isMinor": true,
        "isDominant": true,
        "isMajor": false,
        "isChordTone": true,
        "isScaleStep": false,
        "isChromatic": false,
        "deviceArpeggio": true,
        "deviceEnclosure": false,
        "deviceNeighbor": false,
        "deviceApproach": false,
        "label": "chord-tone"
      },
      {
        "midi": 69,
        "duration": 1,
        "velocity": 114,
        "position": 6,
        "beatPosition": 6,
        "isDownbeat": false,
        "prevInterval": 14,
        "nextInterval": 0,
        "chordRoot": 0,
        "isMinor": true,
        "isDominant": true,
        "isMajor": false,
        "isChordTone": true,
        "isScaleStep": false,
        "isChromatic": false,
        "deviceArpeggio": true,
        "deviceEnclosure": false,
        "deviceNeighbor": false,
        "deviceApproach": false,
        "label": "chord-tone"
      },
      {
        "midi": 69,
        "duration": 1,
        "velocity": 114,
        "position": 7,
        "beatPosition": 7,
        "isDownbeat": false,
        "prevInterval": 0,
        "nextInterval": 2,
        "chordRoot": 0,
        "isMinor": true,
        "isDominant": true,
        "isMajor": false,
        "isChordTone": true,
        "isScaleStep": false,
        "isChromatic": false,
        "deviceArpeggio": true,
        "deviceEnclosure": false,
        "deviceNeighbor": false,
        "deviceApproach": false,
        "label": "chord-tone"
      },
      {
        "midi": 71,
        "duration": 1,
        "velocity": 114,
        "position": 8,
        "beatPosition": 0,
        "isDownbeat": true,
        "prevInterval": 2,
        "nextInterval": -4,
        "chordRoot": 7,
        "isMinor": false,
        "isDominant": true,
        "isMajor": false,
        "isChordTone": true,
        "isScaleStep": false,
        "isChromatic": false,
        "deviceArpeggio": true,
        "deviceEnclosure": false,
        "deviceNeighbor": false,
        "deviceApproach": false,
        "label": "chord-tone"
      },
      {
        "midi": 67,
        "duration": 1,
        "velocity": 114,
        "position": 9,
        "beatPosition": 1,
        "isDownbeat": false,
        "prevInterval": -4,
        "nextInterval": -2,
        "chordRoot": 7,
        "isMinor": false,
        "isDominant": true,
        "isMajor": false,
        "isChordTone": true,
        "isScaleStep": false,
        "isChromatic": false,
        "deviceArpeggio": true,
        "deviceEnclosure": false,
        "deviceNeighbor": false,
        "deviceApproach": false,
        "label": "chord-tone"
      },
      {
        "midi": 65,
        "duration": 1,
        "velocity": 114,
        "position": 10,
        "beatPosition": 2,
        "isDownbeat": false,
        "prevInterval": -2,
        "nextInterval": -3,
        "chordRoot": 7,
        "isMinor": false,
        "isDominant": true,
        "isMajor": false,
        "isChordTone": true,
        "isScaleStep": false,
        "isChromatic": false,
        "deviceArpeggio": true,
        "deviceEnclosure": false,
        "deviceNeighbor": false,
        "deviceApproach": false,
        "label": "chord-tone"
      },
      {
        "midi": 62,
        "duration": 1,
        "velocity": 114,
        "position": 11,
        "beatPosition": 3,
        "isDownbeat": false,
        "prevInterval": -3,
        "nextInterval": 9,
        "chordRoot": 7,
        "isMinor": false,
        "isDominant": true,
        "isMajor": false,
        "isChordTone": true,
        "isScaleStep": false,
        "isChromatic": false,
        "deviceArpeggio": true,
        "deviceEnclosure": false,
        "deviceNeighbor": false,
        "deviceApproach": false,
        "label": "chord-tone"
      },
      {
        "midi": 71,
        "duration": 1,
        "velocity": 114,
        "position": 12,
        "beatPosition": 4,
        "isDownbeat": false,
        "prevInterval": 9,
        "nextInterval": -4,
        "chordRoot": 7,
        "isMinor": false,
        "isDominant": true,
        "isMajor": false,
        "isChordTone": true,
        "isScaleStep": false,
        "isChromatic": false,
        "deviceArpeggio": true,
        "deviceEnclosure": false,
        "deviceNeighbor": false,
        "deviceApproach": false,
        "label": "chord-tone"
      },
      {
        "midi": 67,
        "duration": 1,
        "velocity": 114,
        "position": 13,
        "beatPosition": 5,
        "isDownbeat": false,
        "prevInterval": -4,
        "nextInterval": 3,
        "chordRoot": 7,
        "isMinor": false,
        "isDominant": true,
        "isMajor": false,
        "isChordTone": true,
        "isScaleStep": false,
        "isChromatic": false,
        "deviceArpeggio": true,
        "deviceEnclosure": false,
        "deviceNeighbor": false,
        "deviceApproach": false,
        "label": "chord-tone"
      },
      {
        "midi": 70,
        "duration": 1,
        "velocity": 114,
        "position": 14,
        "beatPosition": 6,
        "isDownbeat": false,
        "prevInterval": 3,
        "nextInterval": 0,
        "chordRoot": 7,
        "isMinor": false,
        "isDominant": true,
        "isMajor": false,
        "isChordTone": true,
        "isScaleStep": false,
        "isChromatic": false,
        "deviceArpeggio": true,
        "deviceEnclosure": false,
        "deviceNeighbor": false,
        "deviceApproach": false,
        "label": "chord-tone"
      },
      {
        "midi": 70,
        "duration": 1,
        "velocity": 114,
        "position": 15,
        "beatPosition": 7,
        "isDownbeat": false,
        "prevInterval": 0,
        "nextInterval": 2,
        "chordRoot": 7,
        "isMinor": false,
        "isDominant": true,
        "isMajor": false,
        "isChordTone": true,
        "isScaleStep": false,
        "isChromatic": false,
        "deviceArpeggio": true,
        "deviceEnclosure": false,
        "deviceNeighbor": false,
        "deviceApproach": false,
        "label": "chord-tone"
      },
      {
        "midi": 72,
        "duration": 1,
        "velocity": 114,
        "position": 16,
        "beatPosition": 0,
        "isDownbeat": true,
        "prevInterval": 2,
        "nextInterval": 4,
        "chordRoot": 0,
        "isMinor": true,
        "isDominant": false,
        "isMajor": true,
        "isChordTone": true,
        "isScaleStep": false,
        "isChromatic": false,
        "deviceArpeggio": true,
        "deviceEnclosure": false,
        "deviceNeighbor": false,
        "deviceApproach": false,
        "label": "chord-tone"
      },
      {
        "midi": 76,
        "duration": 1,
        "velocity": 114,
        "position": 17,
        "beatPosition": 1,
        "isDownbeat": false,
        "prevInterval": 4,
        "nextInterval": 3,
        "chordRoot": 0,
        "isMinor": true,
        "isDominant": false,
        "isMajor": true,
        "isChordTone": true,
        "isScaleStep": false,
        "isChromatic": false,
        "deviceArpeggio": true,
        "deviceEnclosure": false,
        "deviceNeighbor": false,
        "deviceApproach": false,
        "label": "chord-tone"
      },
      {
        "midi": 79,
        "duration": 1,
        "velocity": 114,
        "position": 18,
        "beatPosition": 2,
        "isDownbeat": false,
        "prevInterval": 3,
        "nextInterval": -8,
        "chordRoot": 0,
        "isMinor": true,
        "isDominant": false,
        "isMajor": true,
        "isChordTone": true,
        "isScaleStep": false,
        "isChromatic": false,
        "deviceArpeggio": true,
        "deviceEnclosure": false,
        "deviceNeighbor": false,
        "deviceApproach": false,
        "label": "chord-tone"
      },
      {
        "midi": 71,
        "duration": 1,
        "velocity": 114,
        "position": 19,
        "beatPosition": 3,
        "isDownbeat": false,
        "prevInterval": -8,
        "nextInterval": -11,
        "chordRoot": 0,
        "isMinor": true,
        "isDominant": false,
        "isMajor": true,
        "isChordTone": true,
        "isScaleStep": false,
        "isChromatic": false,
        "deviceArpeggio": true,
        "deviceEnclosure": false,
        "deviceNeighbor": false,
        "deviceApproach": false,
        "label": "chord-tone"
      },
      {
        "midi": 60,
        "duration": 1,
        "velocity": 114,
        "position": 20,
        "beatPosition": 4,
        "isDownbeat": false,
        "prevInterval": -11,
        "nextInterval": 4,
        "chordRoot": 0,
        "isMinor": true,
        "isDominant": false,
        "isMajor": true,
        "isChordTone": true,
        "isScaleStep": false,
        "isChromatic": false,
        "deviceArpeggio": true,
        "deviceEnclosure": false,
        "deviceNeighbor": false,
        "deviceApproach": false,
        "label": "chord-tone"
      },
      {
        "midi": 64,
        "duration": 1,
        "velocity": 114,
        "position": 21,
        "beatPosition": 5,
        "isDownbeat": false,
        "prevInterval": 4,
        "nextInterval": 3,
        "chordRoot": 0,
        "isMinor": true,
        "isDominant": false,
        "isMajor": true,
        "isChordTone": true,
        "isScaleStep": false,
        "isChromatic": false,
        "deviceArpeggio": true,
        "deviceEnclosure": false,
        "deviceNeighbor": false,
        "deviceApproach": false,
        "label": "chord-tone"
      },
      {
        "midi": 67,
        "duration": 1,
        "velocity": 114,
        "position": 22,
        "beatPosition": 6,
        "isDownbeat": false,
        "prevInterval": 3,
        "nextInterval": 0,
        "chordRoot": 0,
        "isMinor": true,
        "isDominant": false,
        "isMajor": true,
        "isChordTone": true,
        "isScaleStep": false,
        "isChromatic": false,
        "deviceArpeggio": true,
        "deviceEnclosure": false,
        "deviceNeighbor": false,
        "deviceApproach": false,
        "label": "chord-tone"
      }
    ]
  },
  {
    "id": 9,
    "metadata": {
      "key": "B",
      "progressionType": "I-vi-ii-V",
      "deviceStrategy": "arpeggio-heavy",
      "swing": 0.5,
      "numNotes": 31,
      "duration": 15.5
    },
    "notes": [
      {
        "midi": 66,
        "noteName": "F#4",
        "degree": "5",
        "startBeat": 0,
        "durationBeats": 0.5833333333333334,
        "velocity": 0.9,
        "ruleId": "chord-tone",
        "harmonicFunction": "chord-tone",
        "device": "scale-run",
        "chordSymbol": "Bmaj7",
        "rootPc": 11,
        "quality": "maj7",
        "scaleName": "ionian"
      },
      {
        "startBeat": 0.5833333333333334,
        "durationBeats": 0.4166666666666667,
        "midi": 64,
        "velocity": 0.9,
        "device": "scale-run",
        "chordSymbol": "Bmaj7",
        "rootPc": 11,
        "quality": "maj7",
        "scaleName": "ionian",
        "ruleId": "scale-step",
        "harmonicFunction": "scale-step",
        "noteName": "E4",
        "degree": "4"
      },
      {
        "startBeat": 1,
        "durationBeats": 0.5833333333333334,
        "midi": 63,
        "velocity": 0.9,
        "device": "scale-run",
        "chordSymbol": "Bmaj7",
        "rootPc": 11,
        "quality": "maj7",
        "scaleName": "ionian",
        "ruleId": "scale-run-chord-tone",
        "harmonicFunction": "chord-tone",
        "noteName": "D#4",
        "degree": "3"
      },
      {
        "startBeat": 1.5833333333333333,
        "durationBeats": 0.4166666666666667,
        "midi": 61,
        "velocity": 0.9,
        "device": "scale-run",
        "chordSymbol": "Bmaj7",
        "rootPc": 11,
        "quality": "maj7",
        "scaleName": "ionian",
        "ruleId": "scale-step",
        "harmonicFunction": "scale-step",
        "noteName": "C#4",
        "degree": "2"
      },
      {
        "startBeat": 2,
        "durationBeats": 0.5833333333333334,
        "midi": 63,
        "velocity": 0.9,
        "device": "scale-run",
        "chordSymbol": "Bmaj7",
        "rootPc": 11,
        "quality": "maj7",
        "scaleName": "ionian",
        "ruleId": "scale-run-chord-tone",
        "harmonicFunction": "chord-tone",
        "noteName": "D#4",
        "degree": "3"
      },
      {
        "startBeat": 2.5833333333333335,
        "durationBeats": 0.4166666666666667,
        "midi": 64,
        "velocity": 0.9,
        "device": "scale-run",
        "chordSymbol": "Bmaj7",
        "rootPc": 11,
        "quality": "maj7",
        "scaleName": "ionian",
        "ruleId": "scale-step",
        "harmonicFunction": "scale-step",
        "noteName": "E4",
        "degree": "4"
      },
      {
        "startBeat": 3,
        "durationBeats": 0.5833333333333334,
        "midi": 66,
        "velocity": 0.9,
        "device": "scale-run",
        "chordSymbol": "Bmaj7",
        "rootPc": 11,
        "quality": "maj7",
        "scaleName": "ionian",
        "ruleId": "scale-run-chord-tone",
        "harmonicFunction": "chord-tone",
        "noteName": "F#4",
        "degree": "5"
      },
      {
        "startBeat": 3.5833333333333335,
        "durationBeats": 0.4166666666666667,
        "midi": 68,
        "velocity": 0.9,
        "device": "scale-run",
        "chordSymbol": "Bmaj7",
        "rootPc": 11,
        "quality": "maj7",
        "scaleName": "ionian",
        "ruleId": "scale-step",
        "harmonicFunction": "scale-step",
        "noteName": "G#4",
        "degree": "6"
      },
      {
        "midi": 71,
        "noteName": "B4",
        "degree": "b3",
        "startBeat": 4,
        "durationBeats": 0.5833333333333334,
        "velocity": 0.9,
        "ruleId": "chord-tone",
        "harmonicFunction": "chord-tone",
        "device": "enclosure-target",
        "chordSymbol": "Abm7",
        "rootPc": 8,
        "quality": "m7",
        "scaleName": "dorian"
      },
      {
        "startBeat": 4.583333333333333,
        "durationBeats": 0.4166666666666667,
        "midi": 73,
        "velocity": 0.9,
        "device": "enclosure-fill",
        "chordSymbol": "Abm7",
        "rootPc": 8,
        "quality": "m7",
        "scaleName": "dorian",
        "ruleId": "scale-step",
        "harmonicFunction": "scale-step",
        "noteName": "C#5",
        "degree": "4"
      },
      {
        "startBeat": 5,
        "durationBeats": 0.5833333333333334,
        "midi": 77,
        "velocity": 0.9,
        "device": "enclosure",
        "enclosureType": "upper",
        "chordSymbol": "Abm7",
        "rootPc": 8,
        "quality": "m7",
        "scaleName": "dorian",
        "ruleId": "enclosure",
        "harmonicFunction": "scale-step",
        "noteName": "F5",
        "degree": "6"
      },
      {
        "startBeat": 5.583333333333333,
        "durationBeats": 0.4166666666666667,
        "midi": 74,
        "velocity": 0.9,
        "device": "enclosure",
        "enclosureType": "lower",
        "chordSymbol": "Abm7",
        "rootPc": 8,
        "quality": "m7",
        "scaleName": "dorian",
        "ruleId": "enclosure",
        "harmonicFunction": "chromatic",
        "noteName": "D5"
      },
      {
        "startBeat": 6,
        "durationBeats": 0.5833333333333334,
        "midi": 75,
        "velocity": 0.9,
        "device": "enclosure-target",
        "chordSymbol": "Abm7",
        "rootPc": 8,
        "quality": "m7",
        "scaleName": "dorian",
        "ruleId": "chord-tone",
        "harmonicFunction": "chord-tone",
        "noteName": "D#5",
        "degree": "5"
      },
      {
        "startBeat": 6.583333333333333,
        "durationBeats": 0.4166666666666667,
        "midi": 77,
        "velocity": 0.9,
        "device": "enclosure-fill",
        "chordSymbol": "Abm7",
        "rootPc": 8,
        "quality": "m7",
        "scaleName": "dorian",
        "ruleId": "scale-step",
        "harmonicFunction": "scale-step",
        "noteName": "F5",
        "degree": "6"
      },
      {
        "startBeat": 7,
        "durationBeats": 0.5833333333333334,
        "midi": 70,
        "velocity": 0.9,
        "device": "enclosure",
        "enclosureType": "lower",
        "chordSymbol": "Abm7",
        "rootPc": 8,
        "quality": "m7",
        "scaleName": "dorian",
        "ruleId": "enclosure",
        "harmonicFunction": "chromatic",
        "noteName": "A#4"
      },
      {
        "startBeat": 7.583333333333333,
        "durationBeats": 0.4166666666666667,
        "midi": 73,
        "velocity": 0.9,
        "device": "enclosure",
        "enclosureType": "upper",
        "chordSymbol": "Abm7",
        "rootPc": 8,
        "quality": "m7",
        "scaleName": "dorian",
        "ruleId": "enclosure",
        "harmonicFunction": "scale-step",
        "noteName": "C#5",
        "degree": "4"
      },
      {
        "midi": 71,
        "noteName": "B4",
        "degree": "b7",
        "startBeat": 8,
        "durationBeats": 0.5833333333333334,
        "velocity": 0.9,
        "ruleId": "chord-tone",
        "harmonicFunction": "chord-tone",
        "device": "enclosure-target",
        "chordSymbol": "Dbm7",
        "rootPc": 1,
        "quality": "m7",
        "scaleName": "dorian"
      },
      {
        "startBeat": 8.583333333333334,
        "durationBeats": 0.4166666666666667,
        "midi": 73,
        "velocity": 0.9,
        "device": "enclosure-fill",
        "chordSymbol": "Dbm7",
        "rootPc": 1,
        "quality": "m7",
        "scaleName": "dorian",
        "ruleId": "chord-tone",
        "harmonicFunction": "chord-tone",
        "noteName": "C#5",
        "degree": "1"
      },
      {
        "startBeat": 9,
        "durationBeats": 0.5833333333333334,
        "midi": 75,
        "velocity": 0.9,
        "device": "enclosure",
        "enclosureType": "lower",
        "chordSymbol": "Dbm7",
        "rootPc": 1,
        "quality": "m7",
        "scaleName": "dorian",
        "ruleId": "enclosure",
        "harmonicFunction": "chromatic",
        "noteName": "D#5"
      },
      {
        "startBeat": 9.583333333333334,
        "durationBeats": 0.4166666666666667,
        "midi": 78,
        "velocity": 0.9,
        "device": "enclosure",
        "enclosureType": "upper",
        "chordSymbol": "Dbm7",
        "rootPc": 1,
        "quality": "m7",
        "scaleName": "dorian",
        "ruleId": "enclosure",
        "harmonicFunction": "scale-step",
        "noteName": "F#5",
        "degree": "4"
      },
      {
        "startBeat": 10,
        "durationBeats": 0.5833333333333334,
        "midi": 76,
        "velocity": 0.9,
        "device": "enclosure-target",
        "chordSymbol": "Dbm7",
        "rootPc": 1,
        "quality": "m7",
        "scaleName": "dorian",
        "ruleId": "chord-tone",
        "harmonicFunction": "chord-tone",
        "noteName": "E5",
        "degree": "b3"
      },
      {
        "startBeat": 10.583333333333334,
        "durationBeats": 0.4166666666666667,
        "midi": 75,
        "velocity": 0.9,
        "device": "enclosure-fill",
        "chordSymbol": "Dbm7",
        "rootPc": 1,
        "quality": "m7",
        "scaleName": "dorian",
        "ruleId": "scale-step",
        "harmonicFunction": "scale-step",
        "noteName": "D#5",
        "degree": "2"
      },
      {
        "startBeat": 11,
        "durationBeats": 0.5833333333333334,
        "midi": 78,
        "velocity": 0.9,
        "device": "enclosure",
        "enclosureType": "upper",
        "chordSymbol": "Dbm7",
        "rootPc": 1,
        "quality": "m7",
        "scaleName": "dorian",
        "ruleId": "enclosure",
        "harmonicFunction": "scale-step",
        "noteName": "F#5",
        "degree": "4"
      },
      {
        "startBeat": 11.583333333333334,
        "durationBeats": 0.4166666666666667,
        "midi": 75,
        "velocity": 0.9,
        "device": "enclosure",
        "enclosureType": "lower",
        "chordSymbol": "Dbm7",
        "rootPc": 1,
        "quality": "m7",
        "scaleName": "dorian",
        "ruleId": "enclosure",
        "harmonicFunction": "chromatic",
        "noteName": "D#5"
      },
      {
        "midi": 76,
        "noteName": "E5",
        "degree": "b7",
        "startBeat": 12,
        "durationBeats": 0.5833333333333334,
        "velocity": 0.9,
        "ruleId": "chord-tone",
        "harmonicFunction": "chord-tone",
        "device": "arpeggio",
        "chordSymbol": "Gb7",
        "rootPc": 6,
        "quality": "7",
        "scaleName": "mixolydian"
      },
      {
        "startBeat": 12.583333333333334,
        "durationBeats": 0.4166666666666667,
        "midi": 73,
        "velocity": 0.9,
        "device": "arpeggio",
        "chordSymbol": "Gb7",
        "rootPc": 6,
        "quality": "7",
        "scaleName": "mixolydian",
        "ruleId": "arpeggio",
        "harmonicFunction": "chord-tone",
        "noteName": "C#5",
        "degree": "5"
      },
      {
        "startBeat": 13,
        "durationBeats": 0.5833333333333334,
        "midi": 70,
        "velocity": 0.9,
        "device": "arpeggio",
        "chordSymbol": "Gb7",
        "rootPc": 6,
        "quality": "7",
        "scaleName": "mixolydian",
        "ruleId": "arpeggio",
        "harmonicFunction": "chord-tone",
        "noteName": "A#4",
        "degree": "3"
      },
      {
        "startBeat": 13.583333333333334,
        "durationBeats": 0.4166666666666667,
        "midi": 66,
        "velocity": 0.9,
        "device": "arpeggio",
        "chordSymbol": "Gb7",
        "rootPc": 6,
        "quality": "7",
        "scaleName": "mixolydian",
        "ruleId": "arpeggio",
        "harmonicFunction": "chord-tone",
        "noteName": "F#4",
        "degree": "1"
      },
      {
        "startBeat": 14,
        "durationBeats": 0.5833333333333334,
        "midi": 64,
        "velocity": 0.9,
        "device": "arpeggio",
        "chordSymbol": "Gb7",
        "rootPc": 6,
        "quality": "7",
        "scaleName": "mixolydian",
        "ruleId": "arpeggio",
        "harmonicFunction": "chord-tone",
        "noteName": "E4",
        "degree": "b7"
      },
      {
        "startBeat": 14.583333333333334,
        "durationBeats": 0.4166666666666667,
        "midi": 61,
        "velocity": 0.9,
        "device": "arpeggio",
        "chordSymbol": "Gb7",
        "rootPc": 6,
        "quality": "7",
        "scaleName": "mixolydian",
        "ruleId": "arpeggio",
        "harmonicFunction": "chord-tone",
        "noteName": "C#4",
        "degree": "5"
      },
      {
        "startBeat": 15,
        "durationBeats": 0.5,
        "midi": 70,
        "velocity": 0.9,
        "device": "arpeggio",
        "chordSymbol": "Gb7",
        "rootPc": 6,
        "quality": "7",
        "scaleName": "mixolydian",
        "ruleId": "arpeggio",
        "harmonicFunction": "chord-tone",
        "noteName": "A#4",
        "degree": "3"
      }
    ],
    "tokens": [
      {
        "midi": 66,
        "duration": 1,
        "velocity": 114,
        "degree": "5",
        "harmonicFunction": "chord-tone",
        "device": "scale-run",
        "chordRoot": 11,
        "chordQuality": "maj7",
        "scale": "ionian"
      },
      {
        "midi": 64,
        "duration": 1,
        "velocity": 114,
        "degree": "4",
        "harmonicFunction": "scale-step",
        "device": "scale-run",
        "chordRoot": 11,
        "chordQuality": "maj7",
        "scale": "ionian"
      },
      {
        "midi": 63,
        "duration": 1,
        "velocity": 114,
        "degree": "3",
        "harmonicFunction": "chord-tone",
        "device": "scale-run",
        "chordRoot": 11,
        "chordQuality": "maj7",
        "scale": "ionian"
      },
      {
        "midi": 61,
        "duration": 1,
        "velocity": 114,
        "degree": "2",
        "harmonicFunction": "scale-step",
        "device": "scale-run",
        "chordRoot": 11,
        "chordQuality": "maj7",
        "scale": "ionian"
      },
      {
        "midi": 63,
        "duration": 1,
        "velocity": 114,
        "degree": "3",
        "harmonicFunction": "chord-tone",
        "device": "scale-run",
        "chordRoot": 11,
        "chordQuality": "maj7",
        "scale": "ionian"
      },
      {
        "midi": 64,
        "duration": 1,
        "velocity": 114,
        "degree": "4",
        "harmonicFunction": "scale-step",
        "device": "scale-run",
        "chordRoot": 11,
        "chordQuality": "maj7",
        "scale": "ionian"
      },
      {
        "midi": 66,
        "duration": 1,
        "velocity": 114,
        "degree": "5",
        "harmonicFunction": "chord-tone",
        "device": "scale-run",
        "chordRoot": 11,
        "chordQuality": "maj7",
        "scale": "ionian"
      },
      {
        "midi": 68,
        "duration": 1,
        "velocity": 114,
        "degree": "6",
        "harmonicFunction": "scale-step",
        "device": "scale-run",
        "chordRoot": 11,
        "chordQuality": "maj7",
        "scale": "ionian"
      },
      {
        "midi": 71,
        "duration": 1,
        "velocity": 114,
        "degree": "b3",
        "harmonicFunction": "chord-tone",
        "device": "enclosure-target",
        "chordRoot": 8,
        "chordQuality": "m7",
        "scale": "dorian"
      },
      {
        "midi": 73,
        "duration": 1,
        "velocity": 114,
        "degree": "4",
        "harmonicFunction": "scale-step",
        "device": "enclosure-fill",
        "chordRoot": 8,
        "chordQuality": "m7",
        "scale": "dorian"
      },
      {
        "midi": 77,
        "duration": 1,
        "velocity": 114,
        "degree": "6",
        "harmonicFunction": "scale-step",
        "device": "enclosure",
        "chordRoot": 8,
        "chordQuality": "m7",
        "scale": "dorian"
      },
      {
        "midi": 74,
        "duration": 1,
        "velocity": 114,
        "degree": "X",
        "harmonicFunction": "chromatic",
        "device": "enclosure",
        "chordRoot": 8,
        "chordQuality": "m7",
        "scale": "dorian"
      },
      {
        "midi": 75,
        "duration": 1,
        "velocity": 114,
        "degree": "5",
        "harmonicFunction": "chord-tone",
        "device": "enclosure-target",
        "chordRoot": 8,
        "chordQuality": "m7",
        "scale": "dorian"
      },
      {
        "midi": 77,
        "duration": 1,
        "velocity": 114,
        "degree": "6",
        "harmonicFunction": "scale-step",
        "device": "enclosure-fill",
        "chordRoot": 8,
        "chordQuality": "m7",
        "scale": "dorian"
      },
      {
        "midi": 70,
        "duration": 1,
        "velocity": 114,
        "degree": "X",
        "harmonicFunction": "chromatic",
        "device": "enclosure",
        "chordRoot": 8,
        "chordQuality": "m7",
        "scale": "dorian"
      },
      {
        "midi": 73,
        "duration": 1,
        "velocity": 114,
        "degree": "4",
        "harmonicFunction": "scale-step",
        "device": "enclosure",
        "chordRoot": 8,
        "chordQuality": "m7",
        "scale": "dorian"
      },
      {
        "midi": 71,
        "duration": 1,
        "velocity": 114,
        "degree": "b7",
        "harmonicFunction": "chord-tone",
        "device": "enclosure-target",
        "chordRoot": 1,
        "chordQuality": "m7",
        "scale": "dorian"
      },
      {
        "midi": 73,
        "duration": 1,
        "velocity": 114,
        "degree": "1",
        "harmonicFunction": "chord-tone",
        "device": "enclosure-fill",
        "chordRoot": 1,
        "chordQuality": "m7",
        "scale": "dorian"
      },
      {
        "midi": 75,
        "duration": 1,
        "velocity": 114,
        "degree": "X",
        "harmonicFunction": "chromatic",
        "device": "enclosure",
        "chordRoot": 1,
        "chordQuality": "m7",
        "scale": "dorian"
      },
      {
        "midi": 78,
        "duration": 1,
        "velocity": 114,
        "degree": "4",
        "harmonicFunction": "scale-step",
        "device": "enclosure",
        "chordRoot": 1,
        "chordQuality": "m7",
        "scale": "dorian"
      },
      {
        "midi": 76,
        "duration": 1,
        "velocity": 114,
        "degree": "b3",
        "harmonicFunction": "chord-tone",
        "device": "enclosure-target",
        "chordRoot": 1,
        "chordQuality": "m7",
        "scale": "dorian"
      },
      {
        "midi": 75,
        "duration": 1,
        "velocity": 114,
        "degree": "2",
        "harmonicFunction": "scale-step",
        "device": "enclosure-fill",
        "chordRoot": 1,
        "chordQuality": "m7",
        "scale": "dorian"
      },
      {
        "midi": 78,
        "duration": 1,
        "velocity": 114,
        "degree": "4",
        "harmonicFunction": "scale-step",
        "device": "enclosure",
        "chordRoot": 1,
        "chordQuality": "m7",
        "scale": "dorian"
      },
      {
        "midi": 75,
        "duration": 1,
        "velocity": 114,
        "degree": "X",
        "harmonicFunction": "chromatic",
        "device": "enclosure",
        "chordRoot": 1,
        "chordQuality": "m7",
        "scale": "dorian"
      },
      {
        "midi": 76,
        "duration": 1,
        "velocity": 114,
        "degree": "b7",
        "harmonicFunction": "chord-tone",
        "device": "arpeggio",
        "chordRoot": 6,
        "chordQuality": "7",
        "scale": "mixolydian"
      },
      {
        "midi": 73,
        "duration": 1,
        "velocity": 114,
        "degree": "5",
        "harmonicFunction": "chord-tone",
        "device": "arpeggio",
        "chordRoot": 6,
        "chordQuality": "7",
        "scale": "mixolydian"
      },
      {
        "midi": 70,
        "duration": 1,
        "velocity": 114,
        "degree": "3",
        "harmonicFunction": "chord-tone",
        "device": "arpeggio",
        "chordRoot": 6,
        "chordQuality": "7",
        "scale": "mixolydian"
      },
      {
        "midi": 66,
        "duration": 1,
        "velocity": 114,
        "degree": "1",
        "harmonicFunction": "chord-tone",
        "device": "arpeggio",
        "chordRoot": 6,
        "chordQuality": "7",
        "scale": "mixolydian"
      },
      {
        "midi": 64,
        "duration": 1,
        "velocity": 114,
        "degree": "b7",
        "harmonicFunction": "chord-tone",
        "device": "arpeggio",
        "chordRoot": 6,
        "chordQuality": "7",
        "scale": "mixolydian"
      },
      {
        "midi": 61,
        "duration": 1,
        "velocity": 114,
        "degree": "5",
        "harmonicFunction": "chord-tone",
        "device": "arpeggio",
        "chordRoot": 6,
        "chordQuality": "7",
        "scale": "mixolydian"
      },
      {
        "midi": 70,
        "duration": 1,
        "velocity": 114,
        "degree": "3",
        "harmonicFunction": "chord-tone",
        "device": "arpeggio",
        "chordRoot": 6,
        "chordQuality": "7",
        "scale": "mixolydian"
      }
    ],
    "sequences": {
      "midi": [
        66,
        64,
        63,
        61,
        63,
        64,
        66,
        68,
        71,
        73,
        77,
        74,
        75,
        77,
        70,
        73,
        71,
        73,
        75,
        78,
        76,
        75,
        78,
        75,
        76,
        73,
        70,
        66,
        64,
        61,
        70
      ],
      "intervals": [
        0,
        -2,
        -1,
        -2,
        2,
        1,
        2,
        2,
        3,
        2,
        4,
        -3,
        1,
        2,
        -7,
        3,
        -2,
        2,
        2,
        3,
        -2,
        -1,
        3,
        -3,
        1,
        -3,
        -3,
        -4,
        -2,
        -3,
        9
      ],
      "degrees": [
        5,
        4,
        3,
        2,
        3,
        4,
        5,
        0,
        3,
        4,
        0,
        0,
        5,
        0,
        0,
        4,
        7,
        1,
        0,
        4,
        3,
        2,
        4,
        0,
        7,
        5,
        3,
        1,
        7,
        5,
        3
      ]
    },
    "features": [
      {
        "midi": 66,
        "duration": 1,
        "velocity": 114,
        "position": 0,
        "beatPosition": 0,
        "isDownbeat": true,
        "prevInterval": 0,
        "nextInterval": -2,
        "chordRoot": 11,
        "isMinor": true,
        "isDominant": false,
        "isMajor": true,
        "isChordTone": true,
        "isScaleStep": false,
        "isChromatic": false,
        "deviceArpeggio": false,
        "deviceEnclosure": false,
        "deviceNeighbor": false,
        "deviceApproach": false,
        "label": "chord-tone"
      },
      {
        "midi": 64,
        "duration": 1,
        "velocity": 114,
        "position": 1,
        "beatPosition": 1,
        "isDownbeat": false,
        "prevInterval": -2,
        "nextInterval": -1,
        "chordRoot": 11,
        "isMinor": true,
        "isDominant": false,
        "isMajor": true,
        "isChordTone": false,
        "isScaleStep": true,
        "isChromatic": false,
        "deviceArpeggio": false,
        "deviceEnclosure": false,
        "deviceNeighbor": false,
        "deviceApproach": false,
        "label": "scale-step"
      },
      {
        "midi": 63,
        "duration": 1,
        "velocity": 114,
        "position": 2,
        "beatPosition": 2,
        "isDownbeat": false,
        "prevInterval": -1,
        "nextInterval": -2,
        "chordRoot": 11,
        "isMinor": true,
        "isDominant": false,
        "isMajor": true,
        "isChordTone": true,
        "isScaleStep": false,
        "isChromatic": false,
        "deviceArpeggio": false,
        "deviceEnclosure": false,
        "deviceNeighbor": false,
        "deviceApproach": false,
        "label": "chord-tone"
      },
      {
        "midi": 61,
        "duration": 1,
        "velocity": 114,
        "position": 3,
        "beatPosition": 3,
        "isDownbeat": false,
        "prevInterval": -2,
        "nextInterval": 2,
        "chordRoot": 11,
        "isMinor": true,
        "isDominant": false,
        "isMajor": true,
        "isChordTone": false,
        "isScaleStep": true,
        "isChromatic": false,
        "deviceArpeggio": false,
        "deviceEnclosure": false,
        "deviceNeighbor": false,
        "deviceApproach": false,
        "label": "scale-step"
      },
      {
        "midi": 63,
        "duration": 1,
        "velocity": 114,
        "position": 4,
        "beatPosition": 4,
        "isDownbeat": false,
        "prevInterval": 2,
        "nextInterval": 1,
        "chordRoot": 11,
        "isMinor": true,
        "isDominant": false,
        "isMajor": true,
        "isChordTone": true,
        "isScaleStep": false,
        "isChromatic": false,
        "deviceArpeggio": false,
        "deviceEnclosure": false,
        "deviceNeighbor": false,
        "deviceApproach": false,
        "label": "chord-tone"
      },
      {
        "midi": 64,
        "duration": 1,
        "velocity": 114,
        "position": 5,
        "beatPosition": 5,
        "isDownbeat": false,
        "prevInterval": 1,
        "nextInterval": 2,
        "chordRoot": 11,
        "isMinor": true,
        "isDominant": false,
        "isMajor": true,
        "isChordTone": false,
        "isScaleStep": true,
        "isChromatic": false,
        "deviceArpeggio": false,
        "deviceEnclosure": false,
        "deviceNeighbor": false,
        "deviceApproach": false,
        "label": "scale-step"
      },
      {
        "midi": 66,
        "duration": 1,
        "velocity": 114,
        "position": 6,
        "beatPosition": 6,
        "isDownbeat": false,
        "prevInterval": 2,
        "nextInterval": 2,
        "chordRoot": 11,
        "isMinor": true,
        "isDominant": false,
        "isMajor": true,
        "isChordTone": true,
        "isScaleStep": false,
        "isChromatic": false,
        "deviceArpeggio": false,
        "deviceEnclosure": false,
        "deviceNeighbor": false,
        "deviceApproach": false,
        "label": "chord-tone"
      },
      {
        "midi": 68,
        "duration": 1,
        "velocity": 114,
        "position": 7,
        "beatPosition": 7,
        "isDownbeat": false,
        "prevInterval": 2,
        "nextInterval": 3,
        "chordRoot": 11,
        "isMinor": true,
        "isDominant": false,
        "isMajor": true,
        "isChordTone": false,
        "isScaleStep": true,
        "isChromatic": false,
        "deviceArpeggio": false,
        "deviceEnclosure": false,
        "deviceNeighbor": false,
        "deviceApproach": false,
        "label": "scale-step"
      },
      {
        "midi": 71,
        "duration": 1,
        "velocity": 114,
        "position": 8,
        "beatPosition": 0,
        "isDownbeat": true,
        "prevInterval": 3,
        "nextInterval": 2,
        "chordRoot": 8,
        "isMinor": true,
        "isDominant": true,
        "isMajor": false,
        "isChordTone": true,
        "isScaleStep": false,
        "isChromatic": false,
        "deviceArpeggio": false,
        "deviceEnclosure": true,
        "deviceNeighbor": false,
        "deviceApproach": false,
        "label": "chord-tone"
      },
      {
        "midi": 73,
        "duration": 1,
        "velocity": 114,
        "position": 9,
        "beatPosition": 1,
        "isDownbeat": false,
        "prevInterval": 2,
        "nextInterval": 4,
        "chordRoot": 8,
        "isMinor": true,
        "isDominant": true,
        "isMajor": false,
        "isChordTone": false,
        "isScaleStep": true,
        "isChromatic": false,
        "deviceArpeggio": false,
        "deviceEnclosure": true,
        "deviceNeighbor": false,
        "deviceApproach": false,
        "label": "scale-step"
      },
      {
        "midi": 77,
        "duration": 1,
        "velocity": 114,
        "position": 10,
        "beatPosition": 2,
        "isDownbeat": false,
        "prevInterval": 4,
        "nextInterval": -3,
        "chordRoot": 8,
        "isMinor": true,
        "isDominant": true,
        "isMajor": false,
        "isChordTone": false,
        "isScaleStep": true,
        "isChromatic": false,
        "deviceArpeggio": false,
        "deviceEnclosure": true,
        "deviceNeighbor": false,
        "deviceApproach": false,
        "label": "scale-step"
      },
      {
        "midi": 74,
        "duration": 1,
        "velocity": 114,
        "position": 11,
        "beatPosition": 3,
        "isDownbeat": false,
        "prevInterval": -3,
        "nextInterval": 1,
        "chordRoot": 8,
        "isMinor": true,
        "isDominant": true,
        "isMajor": false,
        "isChordTone": false,
        "isScaleStep": false,
        "isChromatic": true,
        "deviceArpeggio": false,
        "deviceEnclosure": true,
        "deviceNeighbor": false,
        "deviceApproach": false,
        "label": "chromatic"
      },
      {
        "midi": 75,
        "duration": 1,
        "velocity": 114,
        "position": 12,
        "beatPosition": 4,
        "isDownbeat": false,
        "prevInterval": 1,
        "nextInterval": 2,
        "chordRoot": 8,
        "isMinor": true,
        "isDominant": true,
        "isMajor": false,
        "isChordTone": true,
        "isScaleStep": false,
        "isChromatic": false,
        "deviceArpeggio": false,
        "deviceEnclosure": true,
        "deviceNeighbor": false,
        "deviceApproach": false,
        "label": "chord-tone"
      },
      {
        "midi": 77,
        "duration": 1,
        "velocity": 114,
        "position": 13,
        "beatPosition": 5,
        "isDownbeat": false,
        "prevInterval": 2,
        "nextInterval": -7,
        "chordRoot": 8,
        "isMinor": true,
        "isDominant": true,
        "isMajor": false,
        "isChordTone": false,
        "isScaleStep": true,
        "isChromatic": false,
        "deviceArpeggio": false,
        "deviceEnclosure": true,
        "deviceNeighbor": false,
        "deviceApproach": false,
        "label": "scale-step"
      },
      {
        "midi": 70,
        "duration": 1,
        "velocity": 114,
        "position": 14,
        "beatPosition": 6,
        "isDownbeat": false,
        "prevInterval": -7,
        "nextInterval": 3,
        "chordRoot": 8,
        "isMinor": true,
        "isDominant": true,
        "isMajor": false,
        "isChordTone": false,
        "isScaleStep": false,
        "isChromatic": true,
        "deviceArpeggio": false,
        "deviceEnclosure": true,
        "deviceNeighbor": false,
        "deviceApproach": false,
        "label": "chromatic"
      },
      {
        "midi": 73,
        "duration": 1,
        "velocity": 114,
        "position": 15,
        "beatPosition": 7,
        "isDownbeat": false,
        "prevInterval": 3,
        "nextInterval": -2,
        "chordRoot": 8,
        "isMinor": true,
        "isDominant": true,
        "isMajor": false,
        "isChordTone": false,
        "isScaleStep": true,
        "isChromatic": false,
        "deviceArpeggio": false,
        "deviceEnclosure": true,
        "deviceNeighbor": false,
        "deviceApproach": false,
        "label": "scale-step"
      },
      {
        "midi": 71,
        "duration": 1,
        "velocity": 114,
        "position": 16,
        "beatPosition": 0,
        "isDownbeat": true,
        "prevInterval": -2,
        "nextInterval": 2,
        "chordRoot": 1,
        "isMinor": true,
        "isDominant": true,
        "isMajor": false,
        "isChordTone": true,
        "isScaleStep": false,
        "isChromatic": false,
        "deviceArpeggio": false,
        "deviceEnclosure": true,
        "deviceNeighbor": false,
        "deviceApproach": false,
        "label": "chord-tone"
      },
      {
        "midi": 73,
        "duration": 1,
        "velocity": 114,
        "position": 17,
        "beatPosition": 1,
        "isDownbeat": false,
        "prevInterval": 2,
        "nextInterval": 2,
        "chordRoot": 1,
        "isMinor": true,
        "isDominant": true,
        "isMajor": false,
        "isChordTone": true,
        "isScaleStep": false,
        "isChromatic": false,
        "deviceArpeggio": false,
        "deviceEnclosure": true,
        "deviceNeighbor": false,
        "deviceApproach": false,
        "label": "chord-tone"
      },
      {
        "midi": 75,
        "duration": 1,
        "velocity": 114,
        "position": 18,
        "beatPosition": 2,
        "isDownbeat": false,
        "prevInterval": 2,
        "nextInterval": 3,
        "chordRoot": 1,
        "isMinor": true,
        "isDominant": true,
        "isMajor": false,
        "isChordTone": false,
        "isScaleStep": false,
        "isChromatic": true,
        "deviceArpeggio": false,
        "deviceEnclosure": true,
        "deviceNeighbor": false,
        "deviceApproach": false,
        "label": "chromatic"
      },
      {
        "midi": 78,
        "duration": 1,
        "velocity": 114,
        "position": 19,
        "beatPosition": 3,
        "isDownbeat": false,
        "prevInterval": 3,
        "nextInterval": -2,
        "chordRoot": 1,
        "isMinor": true,
        "isDominant": true,
        "isMajor": false,
        "isChordTone": false,
        "isScaleStep": true,
        "isChromatic": false,
        "deviceArpeggio": false,
        "deviceEnclosure": true,
        "deviceNeighbor": false,
        "deviceApproach": false,
        "label": "scale-step"
      },
      {
        "midi": 76,
        "duration": 1,
        "velocity": 114,
        "position": 20,
        "beatPosition": 4,
        "isDownbeat": false,
        "prevInterval": -2,
        "nextInterval": -1,
        "chordRoot": 1,
        "isMinor": true,
        "isDominant": true,
        "isMajor": false,
        "isChordTone": true,
        "isScaleStep": false,
        "isChromatic": false,
        "deviceArpeggio": false,
        "deviceEnclosure": true,
        "deviceNeighbor": false,
        "deviceApproach": false,
        "label": "chord-tone"
      },
      {
        "midi": 75,
        "duration": 1,
        "velocity": 114,
        "position": 21,
        "beatPosition": 5,
        "isDownbeat": false,
        "prevInterval": -1,
        "nextInterval": 3,
        "chordRoot": 1,
        "isMinor": true,
        "isDominant": true,
        "isMajor": false,
        "isChordTone": false,
        "isScaleStep": true,
        "isChromatic": false,
        "deviceArpeggio": false,
        "deviceEnclosure": true,
        "deviceNeighbor": false,
        "deviceApproach": false,
        "label": "scale-step"
      },
      {
        "midi": 78,
        "duration": 1,
        "velocity": 114,
        "position": 22,
        "beatPosition": 6,
        "isDownbeat": false,
        "prevInterval": 3,
        "nextInterval": -3,
        "chordRoot": 1,
        "isMinor": true,
        "isDominant": true,
        "isMajor": false,
        "isChordTone": false,
        "isScaleStep": true,
        "isChromatic": false,
        "deviceArpeggio": false,
        "deviceEnclosure": true,
        "deviceNeighbor": false,
        "deviceApproach": false,
        "label": "scale-step"
      },
      {
        "midi": 75,
        "duration": 1,
        "velocity": 114,
        "position": 23,
        "beatPosition": 7,
        "isDownbeat": false,
        "prevInterval": -3,
        "nextInterval": 1,
        "chordRoot": 1,
        "isMinor": true,
        "isDominant": true,
        "isMajor": false,
        "isChordTone": false,
        "isScaleStep": false,
        "isChromatic": true,
        "deviceArpeggio": false,
        "deviceEnclosure": true,
        "deviceNeighbor": false,
        "deviceApproach": false,
        "label": "chromatic"
      },
      {
        "midi": 76,
        "duration": 1,
        "velocity": 114,
        "position": 24,
        "beatPosition": 0,
        "isDownbeat": true,
        "prevInterval": 1,
        "nextInterval": -3,
        "chordRoot": 6,
        "isMinor": false,
        "isDominant": true,
        "isMajor": false,
        "isChordTone": true,
        "isScaleStep": false,
        "isChromatic": false,
        "deviceArpeggio": true,
        "deviceEnclosure": false,
        "deviceNeighbor": false,
        "deviceApproach": false,
        "label": "chord-tone"
      },
      {
        "midi": 73,
        "duration": 1,
        "velocity": 114,
        "position": 25,
        "beatPosition": 1,
        "isDownbeat": false,
        "prevInterval": -3,
        "nextInterval": -3,
        "chordRoot": 6,
        "isMinor": false,
        "isDominant": true,
        "isMajor": false,
        "isChordTone": true,
        "isScaleStep": false,
        "isChromatic": false,
        "deviceArpeggio": true,
        "deviceEnclosure": false,
        "deviceNeighbor": false,
        "deviceApproach": false,
        "label": "chord-tone"
      },
      {
        "midi": 70,
        "duration": 1,
        "velocity": 114,
        "position": 26,
        "beatPosition": 2,
        "isDownbeat": false,
        "prevInterval": -3,
        "nextInterval": -4,
        "chordRoot": 6,
        "isMinor": false,
        "isDominant": true,
        "isMajor": false,
        "isChordTone": true,
        "isScaleStep": false,
        "isChromatic": false,
        "deviceArpeggio": true,
        "deviceEnclosure": false,
        "deviceNeighbor": false,
        "deviceApproach": false,
        "label": "chord-tone"
      },
      {
        "midi": 66,
        "duration": 1,
        "velocity": 114,
        "position": 27,
        "beatPosition": 3,
        "isDownbeat": false,
        "prevInterval": -4,
        "nextInterval": -2,
        "chordRoot": 6,
        "isMinor": false,
        "isDominant": true,
        "isMajor": false,
        "isChordTone": true,
        "isScaleStep": false,
        "isChromatic": false,
        "deviceArpeggio": true,
        "deviceEnclosure": false,
        "deviceNeighbor": false,
        "deviceApproach": false,
        "label": "chord-tone"
      },
      {
        "midi": 64,
        "duration": 1,
        "velocity": 114,
        "position": 28,
        "beatPosition": 4,
        "isDownbeat": false,
        "prevInterval": -2,
        "nextInterval": -3,
        "chordRoot": 6,
        "isMinor": false,
        "isDominant": true,
        "isMajor": false,
        "isChordTone": true,
        "isScaleStep": false,
        "isChromatic": false,
        "deviceArpeggio": true,
        "deviceEnclosure": false,
        "deviceNeighbor": false,
        "deviceApproach": false,
        "label": "chord-tone"
      },
      {
        "midi": 61,
        "duration": 1,
        "velocity": 114,
        "position": 29,
        "beatPosition": 5,
        "isDownbeat": false,
        "prevInterval": -3,
        "nextInterval": 9,
        "chordRoot": 6,
        "isMinor": false,
        "isDominant": true,
        "isMajor": false,
        "isChordTone": true,
        "isScaleStep": false,
        "isChromatic": false,
        "deviceArpeggio": true,
        "deviceEnclosure": false,
        "deviceNeighbor": false,
        "deviceApproach": false,
        "label": "chord-tone"
      },
      {
        "midi": 70,
        "duration": 1,
        "velocity": 114,
        "position": 30,
        "beatPosition": 6,
        "isDownbeat": false,
        "prevInterval": 9,
        "nextInterval": 0,
        "chordRoot": 6,
        "isMinor": false,
        "isDominant": true,
        "isMajor": false,
        "isChordTone": true,
        "isScaleStep": false,
        "isChromatic": false,
        "deviceArpeggio": true,
        "deviceEnclosure": false,
        "deviceNeighbor": false,
        "deviceApproach": false,
        "label": "chord-tone"
      }
    ]
  }
]